G04 #@! TF.FileFunction,Copper,L2,Bot,Signal*
%FSLAX46Y46*%
G04 Gerber Fmt 4.6, Leading zero omitted, Abs format (unit mm)*
G04 Created by KiCad (PCBNEW 4.0.2-stable) date 13/05/2016 13:41:56*
%MOMM*%
G01*
G04 APERTURE LIST*
%ADD10C,0.100000*%
%ADD11C,0.300000*%
%ADD12R,1.300000X1.300000*%
%ADD13C,1.300000*%
%ADD14R,2.000000X1.900000*%
%ADD15C,1.900000*%
%ADD16R,1.727200X1.727200*%
%ADD17O,1.727200X1.727200*%
%ADD18R,2.032000X1.727200*%
%ADD19O,2.032000X1.727200*%
%ADD20R,2.032000X2.032000*%
%ADD21O,2.032000X2.032000*%
%ADD22R,2.235200X2.235200*%
%ADD23C,1.397000*%
%ADD24O,1.998980X2.499360*%
%ADD25C,1.998980*%
%ADD26R,1.727200X2.032000*%
%ADD27O,1.727200X2.032000*%
%ADD28C,1.333400*%
%ADD29C,1.016000*%
%ADD30C,0.762000*%
%ADD31C,0.508000*%
%ADD32C,0.304800*%
G04 APERTURE END LIST*
D10*
D11*
X173905143Y-92797714D02*
X173976571Y-93012000D01*
X173976571Y-93369143D01*
X173905143Y-93512000D01*
X173833714Y-93583429D01*
X173690857Y-93654857D01*
X173548000Y-93654857D01*
X173405143Y-93583429D01*
X173333714Y-93512000D01*
X173262286Y-93369143D01*
X173190857Y-93083429D01*
X173119429Y-92940571D01*
X173048000Y-92869143D01*
X172905143Y-92797714D01*
X172762286Y-92797714D01*
X172619429Y-92869143D01*
X172548000Y-92940571D01*
X172476571Y-93083429D01*
X172476571Y-93440571D01*
X172548000Y-93654857D01*
X172476571Y-94583428D02*
X172476571Y-94869142D01*
X172548000Y-95012000D01*
X172690857Y-95154857D01*
X172976571Y-95226285D01*
X173476571Y-95226285D01*
X173762286Y-95154857D01*
X173905143Y-95012000D01*
X173976571Y-94869142D01*
X173976571Y-94583428D01*
X173905143Y-94440571D01*
X173762286Y-94297714D01*
X173476571Y-94226285D01*
X172976571Y-94226285D01*
X172690857Y-94297714D01*
X172548000Y-94440571D01*
X172476571Y-94583428D01*
X173976571Y-96583429D02*
X173976571Y-95869143D01*
X172476571Y-95869143D01*
X173548000Y-97012000D02*
X173548000Y-97726286D01*
X173976571Y-96869143D02*
X172476571Y-97369143D01*
X173976571Y-97869143D01*
X173976571Y-99226286D02*
X173262286Y-98726286D01*
X173976571Y-98369143D02*
X172476571Y-98369143D01*
X172476571Y-98940571D01*
X172548000Y-99083429D01*
X172619429Y-99154857D01*
X172762286Y-99226286D01*
X172976571Y-99226286D01*
X173119429Y-99154857D01*
X173190857Y-99083429D01*
X173262286Y-98940571D01*
X173262286Y-98369143D01*
X174876571Y-91262000D02*
X174876571Y-92119143D01*
X176376571Y-91690572D02*
X174876571Y-91690572D01*
X176376571Y-93476286D02*
X175662286Y-92976286D01*
X176376571Y-92619143D02*
X174876571Y-92619143D01*
X174876571Y-93190571D01*
X174948000Y-93333429D01*
X175019429Y-93404857D01*
X175162286Y-93476286D01*
X175376571Y-93476286D01*
X175519429Y-93404857D01*
X175590857Y-93333429D01*
X175662286Y-93190571D01*
X175662286Y-92619143D01*
X175948000Y-94047714D02*
X175948000Y-94762000D01*
X176376571Y-93904857D02*
X174876571Y-94404857D01*
X176376571Y-94904857D01*
X176233714Y-96262000D02*
X176305143Y-96190571D01*
X176376571Y-95976285D01*
X176376571Y-95833428D01*
X176305143Y-95619143D01*
X176162286Y-95476285D01*
X176019429Y-95404857D01*
X175733714Y-95333428D01*
X175519429Y-95333428D01*
X175233714Y-95404857D01*
X175090857Y-95476285D01*
X174948000Y-95619143D01*
X174876571Y-95833428D01*
X174876571Y-95976285D01*
X174948000Y-96190571D01*
X175019429Y-96262000D01*
X176376571Y-96904857D02*
X174876571Y-96904857D01*
X176376571Y-97762000D02*
X175519429Y-97119143D01*
X174876571Y-97762000D02*
X175733714Y-96904857D01*
X175590857Y-98404857D02*
X175590857Y-98904857D01*
X176376571Y-99119143D02*
X176376571Y-98404857D01*
X174876571Y-98404857D01*
X174876571Y-99119143D01*
X176376571Y-100619143D02*
X175662286Y-100119143D01*
X176376571Y-99762000D02*
X174876571Y-99762000D01*
X174876571Y-100333428D01*
X174948000Y-100476286D01*
X175019429Y-100547714D01*
X175162286Y-100619143D01*
X175376571Y-100619143D01*
X175519429Y-100547714D01*
X175590857Y-100476286D01*
X175662286Y-100333428D01*
X175662286Y-99762000D01*
D12*
X150876000Y-38100000D03*
D13*
X148376000Y-38100000D03*
D12*
X143510000Y-47498000D03*
D13*
X143510000Y-44998000D03*
D12*
X150876000Y-47498000D03*
D13*
X150876000Y-44998000D03*
D12*
X156972000Y-84582000D03*
D13*
X159472000Y-84582000D03*
D12*
X132588000Y-86614000D03*
D13*
X132588000Y-84114000D03*
D12*
X149860000Y-86106000D03*
D13*
X152360000Y-86106000D03*
D12*
X150876000Y-53848000D03*
D13*
X150876000Y-51348000D03*
D12*
X143510000Y-53848000D03*
D13*
X143510000Y-51348000D03*
D14*
X169000000Y-39000000D03*
D15*
X169000000Y-41540000D03*
D16*
X144272000Y-84074000D03*
D17*
X144272000Y-86614000D03*
X141732000Y-84074000D03*
X141732000Y-86614000D03*
X139192000Y-84074000D03*
X139192000Y-86614000D03*
D18*
X174498000Y-81788000D03*
D19*
X174498000Y-79248000D03*
X174498000Y-76708000D03*
X174498000Y-74168000D03*
X174498000Y-71628000D03*
X174498000Y-69088000D03*
D20*
X144526000Y-99314000D03*
D21*
X147066000Y-99314000D03*
D20*
X156000000Y-35500000D03*
D21*
X158540000Y-35500000D03*
D18*
X174498000Y-54610000D03*
D19*
X174498000Y-57150000D03*
X174498000Y-59690000D03*
X174498000Y-62230000D03*
D22*
X124968000Y-57404000D03*
D18*
X124968000Y-60960000D03*
D19*
X124968000Y-63500000D03*
X124968000Y-66040000D03*
X124968000Y-68580000D03*
X124968000Y-71120000D03*
X124968000Y-73660000D03*
D22*
X124968000Y-51308000D03*
D23*
X169672000Y-81788000D03*
X169672000Y-86868000D03*
X162052000Y-81788000D03*
X162052000Y-86868000D03*
X167640000Y-61468000D03*
X167640000Y-66548000D03*
X160020000Y-61468000D03*
X160020000Y-66548000D03*
X127508000Y-90170000D03*
X132588000Y-90170000D03*
X127508000Y-97790000D03*
X132588000Y-97790000D03*
D24*
X149506940Y-58674000D03*
X144625060Y-58674000D03*
D25*
X169000000Y-47000000D03*
X161380000Y-47000000D03*
X138430000Y-92202000D03*
X138430000Y-99822000D03*
X143256000Y-37338000D03*
X135636000Y-37338000D03*
X144526000Y-95504000D03*
X152146000Y-95504000D03*
X161468000Y-54654000D03*
X169088000Y-54654000D03*
X135636000Y-40894000D03*
X143256000Y-40894000D03*
X152146000Y-92202000D03*
X144526000Y-92202000D03*
X166878000Y-50800000D03*
X159258000Y-50800000D03*
X164338000Y-90932000D03*
X156718000Y-90932000D03*
X166116000Y-94488000D03*
X158496000Y-94488000D03*
X131064000Y-45466000D03*
X138684000Y-45466000D03*
X126238000Y-39116000D03*
X126238000Y-46736000D03*
D26*
X156000000Y-42000000D03*
D27*
X158540000Y-42000000D03*
X161080000Y-42000000D03*
D26*
X157480000Y-99314000D03*
D27*
X160020000Y-99314000D03*
X162560000Y-99314000D03*
D26*
X131318000Y-35560000D03*
D27*
X128778000Y-35560000D03*
X126238000Y-35560000D03*
D28*
X171704000Y-58928000D03*
X147320000Y-86614000D03*
X156210000Y-70866000D03*
X146050000Y-65024000D03*
X143256000Y-65786000D03*
X151384000Y-62230000D03*
X133604000Y-71374000D03*
X128524000Y-51308000D03*
X135128000Y-73406000D03*
X129032000Y-66802000D03*
X136652000Y-74930000D03*
X136906000Y-89662000D03*
X143256000Y-81026000D03*
X141732000Y-79502000D03*
X148844000Y-82550000D03*
X153162000Y-66548000D03*
D29*
X150876000Y-38100000D02*
X150876000Y-37084000D01*
X150876000Y-37084000D02*
X149292000Y-35500000D01*
X156000000Y-35500000D02*
X149292000Y-35500000D01*
X149292000Y-35500000D02*
X143570000Y-35500000D01*
X143570000Y-35500000D02*
X143256000Y-35814000D01*
X143256000Y-35814000D02*
X143256000Y-37338000D01*
X156000000Y-35500000D02*
X156000000Y-42000000D01*
X150876000Y-38100000D02*
X154686000Y-38100000D01*
X154686000Y-38100000D02*
X156000000Y-39414000D01*
D30*
X154686000Y-38100000D02*
X156000000Y-39414000D01*
X156000000Y-35500000D02*
X156000000Y-39414000D01*
X156000000Y-39414000D02*
X156000000Y-42000000D01*
D29*
X147320000Y-86614000D02*
X147320000Y-88138000D01*
X156972000Y-86868000D02*
X156972000Y-84582000D01*
X155194000Y-88646000D02*
X156972000Y-86868000D01*
X147828000Y-88646000D02*
X155194000Y-88646000D01*
X147320000Y-88138000D02*
X147828000Y-88646000D01*
X144272000Y-86614000D02*
X144272000Y-88900000D01*
X140970000Y-92202000D02*
X138430000Y-92202000D01*
X144272000Y-88900000D02*
X140970000Y-92202000D01*
X147320000Y-86614000D02*
X144272000Y-86614000D01*
X161380000Y-47000000D02*
X163078000Y-47000000D01*
X163078000Y-47000000D02*
X163830000Y-47752000D01*
X163830000Y-47752000D02*
X163830000Y-56896000D01*
X163830000Y-56896000D02*
X165862000Y-58928000D01*
X165862000Y-58928000D02*
X171704000Y-58928000D01*
X161080000Y-42000000D02*
X161080000Y-46700000D01*
X161080000Y-46700000D02*
X161380000Y-47000000D01*
X143510000Y-47498000D02*
X150876000Y-47498000D01*
X150876000Y-47498000D02*
X156972000Y-47498000D01*
X157480000Y-46990000D02*
X161370000Y-46990000D01*
X156972000Y-47498000D02*
X157480000Y-46990000D01*
X161370000Y-46990000D02*
X161380000Y-47000000D01*
D31*
X163830000Y-47752000D02*
X163830000Y-49450000D01*
X163078000Y-47000000D02*
X163830000Y-47752000D01*
X163830000Y-56896000D02*
X163830000Y-49450000D01*
X165862000Y-58928000D02*
X163830000Y-56896000D01*
X168656000Y-58928000D02*
X165862000Y-58928000D01*
X171704000Y-58928000D02*
X168656000Y-58928000D01*
D30*
X161080000Y-46700000D02*
X161380000Y-47000000D01*
D31*
X161080000Y-46700000D02*
X161380000Y-47000000D01*
D29*
X139192000Y-84074000D02*
X139192000Y-79248000D01*
X139192000Y-79248000D02*
X140716000Y-77724000D01*
X155702000Y-76708000D02*
X155702000Y-71374000D01*
X154686000Y-77724000D02*
X155702000Y-76708000D01*
X140716000Y-77724000D02*
X154686000Y-77724000D01*
X155702000Y-71374000D02*
X156210000Y-70866000D01*
X127508000Y-97790000D02*
X127508000Y-98806000D01*
X128524000Y-99822000D02*
X138430000Y-99822000D01*
X127508000Y-98806000D02*
X128524000Y-99822000D01*
X127508000Y-90170000D02*
X127508000Y-97790000D01*
X132588000Y-84114000D02*
X128738000Y-84114000D01*
X127508000Y-85344000D02*
X127508000Y-90170000D01*
X128738000Y-84114000D02*
X127508000Y-85344000D01*
X139192000Y-84074000D02*
X132628000Y-84074000D01*
X132628000Y-84074000D02*
X132588000Y-84114000D01*
D31*
X155702000Y-77216000D02*
X155702000Y-71374000D01*
X132628000Y-84074000D02*
X132588000Y-84114000D01*
D32*
X155702000Y-72898000D02*
X155702000Y-71628000D01*
X155702000Y-71628000D02*
X155702000Y-71374000D01*
X154432000Y-78232000D02*
X154686000Y-78232000D01*
X141478000Y-78232000D02*
X154432000Y-78232000D01*
X139192000Y-79248000D02*
X140208000Y-78232000D01*
X140208000Y-78232000D02*
X141478000Y-78232000D01*
X154686000Y-78232000D02*
X155702000Y-77216000D01*
X155702000Y-77216000D02*
X155702000Y-72898000D01*
D29*
X146050000Y-65024000D02*
X146050000Y-61976000D01*
X146050000Y-61976000D02*
X147320000Y-60706000D01*
X147320000Y-60706000D02*
X149098000Y-60706000D01*
X149506940Y-60297060D02*
X149506940Y-58674000D01*
X149098000Y-60706000D02*
X149506940Y-60297060D01*
X149506940Y-58674000D02*
X149506940Y-57503060D01*
X149506940Y-57503060D02*
X150876000Y-56134000D01*
X150876000Y-56134000D02*
X150876000Y-53848000D01*
D31*
X148844000Y-60706000D02*
X147320000Y-60706000D01*
X149506940Y-58674000D02*
X149506940Y-60043060D01*
X149506940Y-60043060D02*
X148844000Y-60706000D01*
D32*
X148844000Y-60706000D02*
X149506940Y-60043060D01*
D31*
X149506940Y-58674000D02*
X149506940Y-57757060D01*
X149506940Y-57757060D02*
X150876000Y-56388000D01*
X150876000Y-56388000D02*
X150876000Y-53848000D01*
D32*
X149506940Y-57757060D02*
X150876000Y-56388000D01*
X150876000Y-56388000D02*
X150876000Y-53848000D01*
D29*
X144625060Y-58674000D02*
X144625060Y-60352940D01*
X144625060Y-60352940D02*
X143256000Y-61722000D01*
X143256000Y-61722000D02*
X143256000Y-65786000D01*
X143510000Y-53848000D02*
X143510000Y-56388000D01*
X143510000Y-56388000D02*
X144625060Y-57503060D01*
X144625060Y-57503060D02*
X144625060Y-58674000D01*
D31*
X143256000Y-65786000D02*
X143256000Y-61722000D01*
X143256000Y-61722000D02*
X144018000Y-60960000D01*
X144018000Y-60960000D02*
X144625060Y-60352940D01*
X144625060Y-58674000D02*
X144625060Y-57503060D01*
X144625060Y-57503060D02*
X143510000Y-56388000D01*
D32*
X144625060Y-57503060D02*
X143510000Y-56388000D01*
X143510000Y-56388000D02*
X143510000Y-53848000D01*
D29*
X169000000Y-41540000D02*
X169000000Y-47000000D01*
X160020000Y-61468000D02*
X167640000Y-61468000D01*
X151384000Y-62230000D02*
X152146000Y-61468000D01*
X152146000Y-61468000D02*
X160020000Y-61468000D01*
D31*
X152146000Y-61468000D02*
X160020000Y-61468000D01*
D32*
X152146000Y-61468000D02*
X160020000Y-61468000D01*
D29*
X126238000Y-46736000D02*
X128778000Y-46736000D01*
X130810000Y-58674000D02*
X133604000Y-61468000D01*
X130810000Y-48768000D02*
X130810000Y-58674000D01*
X128778000Y-46736000D02*
X130810000Y-48768000D01*
X133604000Y-61468000D02*
X133604000Y-71374000D01*
D31*
X133604000Y-71374000D02*
X133604000Y-61468000D01*
D29*
X128524000Y-51308000D02*
X128524000Y-59690000D01*
X128524000Y-59690000D02*
X131064000Y-62230000D01*
X131064000Y-62230000D02*
X131064000Y-72644000D01*
X131064000Y-72644000D02*
X131826000Y-73406000D01*
X131826000Y-73406000D02*
X135128000Y-73406000D01*
D31*
X135128000Y-73406000D02*
X131826000Y-73406000D01*
X131064000Y-62230000D02*
X128524000Y-59690000D01*
X131064000Y-71120000D02*
X131064000Y-62230000D01*
X131064000Y-72644000D02*
X131064000Y-71120000D01*
X131826000Y-73406000D02*
X131064000Y-72644000D01*
D29*
X136652000Y-74930000D02*
X136652000Y-75438000D01*
X129032000Y-74930000D02*
X129032000Y-66802000D01*
X130302000Y-76200000D02*
X129032000Y-74930000D01*
X135890000Y-76200000D02*
X130302000Y-76200000D01*
X136652000Y-75438000D02*
X135890000Y-76200000D01*
X141732000Y-88646000D02*
X140716000Y-89662000D01*
X140716000Y-89662000D02*
X136906000Y-89662000D01*
X141732000Y-86614000D02*
X141732000Y-88646000D01*
X144272000Y-84074000D02*
X144272000Y-82042000D01*
X144272000Y-82042000D02*
X143256000Y-81026000D01*
D31*
X143256000Y-81026000D02*
X144272000Y-82042000D01*
D32*
X144272000Y-84074000D02*
X144272000Y-82042000D01*
D31*
X141732000Y-79502000D02*
X141732000Y-84074000D01*
D29*
X135636000Y-40894000D02*
X135636000Y-37338000D01*
X142494000Y-68580000D02*
X136906000Y-68580000D01*
X148844000Y-81280000D02*
X150114000Y-80010000D01*
X150114000Y-80010000D02*
X155956000Y-80010000D01*
X155956000Y-80010000D02*
X157988000Y-77978000D01*
X157988000Y-77978000D02*
X157988000Y-69850000D01*
X157988000Y-69850000D02*
X156718000Y-68580000D01*
X156718000Y-68580000D02*
X142494000Y-68580000D01*
X148844000Y-82550000D02*
X148844000Y-81280000D01*
X135636000Y-67310000D02*
X135636000Y-40894000D01*
X136906000Y-68580000D02*
X135636000Y-67310000D01*
X162052000Y-81788000D02*
X160782000Y-81788000D01*
X160782000Y-81788000D02*
X160020000Y-81026000D01*
X160020000Y-81026000D02*
X160020000Y-69088000D01*
X160020000Y-69088000D02*
X157480000Y-66548000D01*
X157480000Y-66548000D02*
X153162000Y-66548000D01*
X162052000Y-81788000D02*
X169672000Y-81788000D01*
D31*
X160020000Y-80518000D02*
X160020000Y-81026000D01*
X160020000Y-81026000D02*
X160782000Y-81788000D01*
X157480000Y-66548000D02*
X160020000Y-69088000D01*
X160020000Y-69088000D02*
X160020000Y-80518000D01*
X153162000Y-66548000D02*
X157480000Y-66548000D01*
X169132000Y-54610000D02*
X169088000Y-54654000D01*
D32*
G36*
X177264600Y-90308743D02*
X171137600Y-90308743D01*
X171137600Y-101264600D01*
X139285302Y-101264600D01*
X139369024Y-101230007D01*
X139836366Y-100763480D01*
X140089601Y-100153621D01*
X140090177Y-99493276D01*
X139838007Y-98882976D01*
X139371480Y-98415634D01*
X139088186Y-98298000D01*
X142836662Y-98298000D01*
X142836662Y-100330000D01*
X142882711Y-100574730D01*
X143027346Y-100799499D01*
X143248034Y-100950288D01*
X143510000Y-101003338D01*
X145542000Y-101003338D01*
X145786730Y-100957289D01*
X146011499Y-100812654D01*
X146107266Y-100672494D01*
X146164641Y-100727467D01*
X146703886Y-100950823D01*
X146964400Y-100821881D01*
X146964400Y-99415600D01*
X147167600Y-99415600D01*
X147167600Y-100821881D01*
X147428114Y-100950823D01*
X147967359Y-100727467D01*
X148439658Y-100274938D01*
X148702830Y-99676115D01*
X148574225Y-99415600D01*
X147167600Y-99415600D01*
X146964400Y-99415600D01*
X146944400Y-99415600D01*
X146944400Y-99212400D01*
X146964400Y-99212400D01*
X146964400Y-97806119D01*
X147167600Y-97806119D01*
X147167600Y-99212400D01*
X148574225Y-99212400D01*
X148702830Y-98951885D01*
X148439658Y-98353062D01*
X148382191Y-98298000D01*
X155943062Y-98298000D01*
X155943062Y-100330000D01*
X155989111Y-100574730D01*
X156133746Y-100799499D01*
X156354434Y-100950288D01*
X156616400Y-101003338D01*
X158343600Y-101003338D01*
X158588330Y-100957289D01*
X158813099Y-100812654D01*
X158963888Y-100591966D01*
X158964015Y-100591338D01*
X159436790Y-100907235D01*
X160020000Y-101023243D01*
X160603210Y-100907235D01*
X161097631Y-100576874D01*
X161290000Y-100288973D01*
X161482369Y-100576874D01*
X161976790Y-100907235D01*
X162560000Y-101023243D01*
X163143210Y-100907235D01*
X163637631Y-100576874D01*
X163967992Y-100082453D01*
X164084000Y-99499243D01*
X164084000Y-99128757D01*
X163967992Y-98545547D01*
X163637631Y-98051126D01*
X163143210Y-97720765D01*
X162560000Y-97604757D01*
X161976790Y-97720765D01*
X161482369Y-98051126D01*
X161290000Y-98339027D01*
X161097631Y-98051126D01*
X160603210Y-97720765D01*
X160020000Y-97604757D01*
X159436790Y-97720765D01*
X158961349Y-98038444D01*
X158826254Y-97828501D01*
X158605566Y-97677712D01*
X158343600Y-97624662D01*
X156616400Y-97624662D01*
X156371670Y-97670711D01*
X156146901Y-97815346D01*
X155996112Y-98036034D01*
X155943062Y-98298000D01*
X148382191Y-98298000D01*
X147967359Y-97900533D01*
X147428114Y-97677177D01*
X147167600Y-97806119D01*
X146964400Y-97806119D01*
X146703886Y-97677177D01*
X146164641Y-97900533D01*
X146106718Y-97956032D01*
X146024654Y-97828501D01*
X145803966Y-97677712D01*
X145542000Y-97624662D01*
X143510000Y-97624662D01*
X143265270Y-97670711D01*
X143040501Y-97815346D01*
X142889712Y-98036034D01*
X142836662Y-98298000D01*
X139088186Y-98298000D01*
X138761621Y-98162399D01*
X138101276Y-98161823D01*
X137490976Y-98413993D01*
X137250950Y-98653600D01*
X133595287Y-98653600D01*
X133519817Y-98578130D01*
X133765612Y-98520001D01*
X133955331Y-98013779D01*
X133936885Y-97473491D01*
X133765612Y-97059999D01*
X133519815Y-97001869D01*
X132731684Y-97790000D01*
X132745827Y-97804143D01*
X132602143Y-97947827D01*
X132588000Y-97933684D01*
X132573858Y-97947827D01*
X132430174Y-97804143D01*
X132444316Y-97790000D01*
X131656185Y-97001869D01*
X131410388Y-97059999D01*
X131220669Y-97566221D01*
X131239115Y-98106509D01*
X131410388Y-98520001D01*
X131656183Y-98578130D01*
X131580713Y-98653600D01*
X129007968Y-98653600D01*
X128734394Y-98380026D01*
X128866663Y-98061488D01*
X128867135Y-97520884D01*
X128676400Y-97059270D01*
X128676400Y-96858185D01*
X131799869Y-96858185D01*
X132588000Y-97646316D01*
X133376131Y-96858185D01*
X133318001Y-96612388D01*
X132811779Y-96422669D01*
X132271491Y-96441115D01*
X131857999Y-96612388D01*
X131799869Y-96858185D01*
X128676400Y-96858185D01*
X128676400Y-95832724D01*
X142865823Y-95832724D01*
X143117993Y-96443024D01*
X143584520Y-96910366D01*
X144194379Y-97163601D01*
X144854724Y-97164177D01*
X145465024Y-96912007D01*
X145932366Y-96445480D01*
X146185601Y-95835621D01*
X146186177Y-95175276D01*
X145934007Y-94564976D01*
X145467480Y-94097634D01*
X144882735Y-93854827D01*
X144890623Y-93854663D01*
X145436783Y-93628437D01*
X145531736Y-93351420D01*
X144526000Y-92345684D01*
X143520264Y-93351420D01*
X143615217Y-93628437D01*
X144182776Y-93849814D01*
X143586976Y-94095993D01*
X143119634Y-94562520D01*
X142866399Y-95172379D01*
X142865823Y-95832724D01*
X128676400Y-95832724D01*
X128676400Y-91101815D01*
X131799869Y-91101815D01*
X131857999Y-91347612D01*
X132364221Y-91537331D01*
X132904509Y-91518885D01*
X133318001Y-91347612D01*
X133376131Y-91101815D01*
X132588000Y-90313684D01*
X131799869Y-91101815D01*
X128676400Y-91101815D01*
X128676400Y-90899692D01*
X128866663Y-90441488D01*
X128867095Y-89946221D01*
X131220669Y-89946221D01*
X131239115Y-90486509D01*
X131410388Y-90900001D01*
X131656185Y-90958131D01*
X132444316Y-90170000D01*
X132731684Y-90170000D01*
X133519815Y-90958131D01*
X133765612Y-90900001D01*
X133955331Y-90393779D01*
X133936885Y-89853491D01*
X133765612Y-89439999D01*
X133519815Y-89381869D01*
X132731684Y-90170000D01*
X132444316Y-90170000D01*
X131656185Y-89381869D01*
X131410388Y-89439999D01*
X131220669Y-89946221D01*
X128867095Y-89946221D01*
X128867135Y-89900884D01*
X128676400Y-89439270D01*
X128676400Y-89238185D01*
X131799869Y-89238185D01*
X132588000Y-90026316D01*
X133376131Y-89238185D01*
X133318001Y-88992388D01*
X132811779Y-88802669D01*
X132271491Y-88821115D01*
X131857999Y-88992388D01*
X131799869Y-89238185D01*
X128676400Y-89238185D01*
X128676400Y-86880700D01*
X131277600Y-86880700D01*
X131277600Y-87395362D01*
X131378140Y-87638087D01*
X131563914Y-87823860D01*
X131806639Y-87924400D01*
X132321300Y-87924400D01*
X132486400Y-87759300D01*
X132486400Y-86715600D01*
X132689600Y-86715600D01*
X132689600Y-87759300D01*
X132854700Y-87924400D01*
X133369361Y-87924400D01*
X133612086Y-87823860D01*
X133797860Y-87638087D01*
X133898400Y-87395362D01*
X133898400Y-86952226D01*
X137705998Y-86952226D01*
X137948547Y-87495148D01*
X138380400Y-87903923D01*
X138853775Y-88099995D01*
X139090400Y-87969097D01*
X139090400Y-86715600D01*
X137836483Y-86715600D01*
X137705998Y-86952226D01*
X133898400Y-86952226D01*
X133898400Y-86880700D01*
X133733300Y-86715600D01*
X132689600Y-86715600D01*
X132486400Y-86715600D01*
X131442700Y-86715600D01*
X131277600Y-86880700D01*
X128676400Y-86880700D01*
X128676400Y-85827968D01*
X129221967Y-85282400D01*
X131984778Y-85282400D01*
X132035833Y-85303600D01*
X131806639Y-85303600D01*
X131563914Y-85404140D01*
X131378140Y-85589913D01*
X131277600Y-85832638D01*
X131277600Y-86347300D01*
X131442700Y-86512400D01*
X132486400Y-86512400D01*
X132486400Y-86492400D01*
X132689600Y-86492400D01*
X132689600Y-86512400D01*
X133733300Y-86512400D01*
X133898400Y-86347300D01*
X133898400Y-85832638D01*
X133797860Y-85589913D01*
X133612086Y-85404140D01*
X133369361Y-85303600D01*
X133140419Y-85303600D01*
X133288534Y-85242400D01*
X138205530Y-85242400D01*
X138358621Y-85344692D01*
X137948547Y-85732852D01*
X137705998Y-86275774D01*
X137836483Y-86512400D01*
X139090400Y-86512400D01*
X139090400Y-86492400D01*
X139293600Y-86492400D01*
X139293600Y-86512400D01*
X139313600Y-86512400D01*
X139313600Y-86715600D01*
X139293600Y-86715600D01*
X139293600Y-87969097D01*
X139530225Y-88099995D01*
X140003600Y-87903923D01*
X140435453Y-87495148D01*
X140462572Y-87434444D01*
X140563600Y-87585642D01*
X140563600Y-88162032D01*
X140232032Y-88493600D01*
X137552769Y-88493600D01*
X137171135Y-88335131D01*
X136643182Y-88334671D01*
X136155241Y-88536284D01*
X135781596Y-88909277D01*
X135579131Y-89396865D01*
X135578671Y-89924818D01*
X135780284Y-90412759D01*
X136153277Y-90786404D01*
X136640865Y-90988869D01*
X137168818Y-90989329D01*
X137384623Y-90900160D01*
X137023634Y-91260520D01*
X136770399Y-91870379D01*
X136769823Y-92530724D01*
X137021993Y-93141024D01*
X137488520Y-93608366D01*
X138098379Y-93861601D01*
X138758724Y-93862177D01*
X139369024Y-93610007D01*
X139609050Y-93370400D01*
X140969995Y-93370400D01*
X140970000Y-93370401D01*
X141417128Y-93281461D01*
X141796184Y-93028184D01*
X142860791Y-91963577D01*
X142873337Y-92566623D01*
X143099563Y-93112783D01*
X143376580Y-93207736D01*
X144382316Y-92202000D01*
X144669684Y-92202000D01*
X145675420Y-93207736D01*
X145952437Y-93112783D01*
X146179469Y-92530724D01*
X150485823Y-92530724D01*
X150737993Y-93141024D01*
X151204520Y-93608366D01*
X151794364Y-93853290D01*
X151206976Y-94095993D01*
X150739634Y-94562520D01*
X150486399Y-95172379D01*
X150485823Y-95832724D01*
X150737993Y-96443024D01*
X151204520Y-96910366D01*
X151814379Y-97163601D01*
X152474724Y-97164177D01*
X153085024Y-96912007D01*
X153552366Y-96445480D01*
X153805601Y-95835621D01*
X153806177Y-95175276D01*
X153658027Y-94816724D01*
X156835823Y-94816724D01*
X157087993Y-95427024D01*
X157554520Y-95894366D01*
X158164379Y-96147601D01*
X158824724Y-96148177D01*
X159435024Y-95896007D01*
X159902366Y-95429480D01*
X160155601Y-94819621D01*
X160155603Y-94816724D01*
X164455823Y-94816724D01*
X164707993Y-95427024D01*
X165174520Y-95894366D01*
X165784379Y-96147601D01*
X166444724Y-96148177D01*
X167055024Y-95896007D01*
X167522366Y-95429480D01*
X167775601Y-94819621D01*
X167776177Y-94159276D01*
X167524007Y-93548976D01*
X167057480Y-93081634D01*
X166447621Y-92828399D01*
X165787276Y-92827823D01*
X165176976Y-93079993D01*
X164709634Y-93546520D01*
X164456399Y-94156379D01*
X164455823Y-94816724D01*
X160155603Y-94816724D01*
X160156177Y-94159276D01*
X159904007Y-93548976D01*
X159437480Y-93081634D01*
X158827621Y-92828399D01*
X158167276Y-92827823D01*
X157556976Y-93079993D01*
X157089634Y-93546520D01*
X156836399Y-94156379D01*
X156835823Y-94816724D01*
X153658027Y-94816724D01*
X153554007Y-94564976D01*
X153087480Y-94097634D01*
X152497636Y-93852710D01*
X153085024Y-93610007D01*
X153552366Y-93143480D01*
X153805601Y-92533621D01*
X153806177Y-91873276D01*
X153554007Y-91262976D01*
X153087480Y-90795634D01*
X152477621Y-90542399D01*
X151817276Y-90541823D01*
X151206976Y-90793993D01*
X150739634Y-91260520D01*
X150486399Y-91870379D01*
X150485823Y-92530724D01*
X146179469Y-92530724D01*
X146192398Y-92497579D01*
X146178663Y-91837377D01*
X145952437Y-91291217D01*
X145675420Y-91196264D01*
X144669684Y-92202000D01*
X144382316Y-92202000D01*
X144368174Y-92187858D01*
X144511858Y-92044174D01*
X144526000Y-92058316D01*
X145531736Y-91052580D01*
X145436783Y-90775563D01*
X144821579Y-90535602D01*
X144277445Y-90546922D01*
X145098181Y-89726186D01*
X145098184Y-89726184D01*
X145315297Y-89401251D01*
X145351461Y-89347128D01*
X145440400Y-88900000D01*
X145440400Y-87782400D01*
X146151600Y-87782400D01*
X146151600Y-88137995D01*
X146151599Y-88138000D01*
X146240539Y-88585128D01*
X146493816Y-88964184D01*
X147001814Y-89472181D01*
X147001816Y-89472184D01*
X147380873Y-89725461D01*
X147828000Y-89814400D01*
X155193995Y-89814400D01*
X155194000Y-89814401D01*
X155561237Y-89741352D01*
X155311634Y-89990520D01*
X155058399Y-90600379D01*
X155057823Y-91260724D01*
X155309993Y-91871024D01*
X155776520Y-92338366D01*
X156386379Y-92591601D01*
X157046724Y-92592177D01*
X157657024Y-92340007D01*
X158124366Y-91873480D01*
X158377601Y-91263621D01*
X158377603Y-91260724D01*
X162677823Y-91260724D01*
X162929993Y-91871024D01*
X163396520Y-92338366D01*
X164006379Y-92591601D01*
X164666724Y-92592177D01*
X165277024Y-92340007D01*
X165744366Y-91873480D01*
X165997601Y-91263621D01*
X165998177Y-90603276D01*
X165746007Y-89992976D01*
X165279480Y-89525634D01*
X164669621Y-89272399D01*
X164009276Y-89271823D01*
X163398976Y-89523993D01*
X162931634Y-89990520D01*
X162678399Y-90600379D01*
X162677823Y-91260724D01*
X158377603Y-91260724D01*
X158378177Y-90603276D01*
X158126007Y-89992976D01*
X157659480Y-89525634D01*
X157049621Y-89272399D01*
X156389276Y-89271823D01*
X156101736Y-89390632D01*
X157692552Y-87799815D01*
X161263869Y-87799815D01*
X161321999Y-88045612D01*
X161828221Y-88235331D01*
X162368509Y-88216885D01*
X162782001Y-88045612D01*
X162840131Y-87799815D01*
X168883869Y-87799815D01*
X168941999Y-88045612D01*
X169448221Y-88235331D01*
X169988509Y-88216885D01*
X170402001Y-88045612D01*
X170460131Y-87799815D01*
X169672000Y-87011684D01*
X168883869Y-87799815D01*
X162840131Y-87799815D01*
X162052000Y-87011684D01*
X161263869Y-87799815D01*
X157692552Y-87799815D01*
X157798181Y-87694186D01*
X157798184Y-87694184D01*
X158051461Y-87315127D01*
X158065710Y-87243494D01*
X158140401Y-86868000D01*
X158140400Y-86867995D01*
X158140400Y-86644221D01*
X160684669Y-86644221D01*
X160703115Y-87184509D01*
X160874388Y-87598001D01*
X161120185Y-87656131D01*
X161908316Y-86868000D01*
X162195684Y-86868000D01*
X162983815Y-87656131D01*
X163229612Y-87598001D01*
X163419331Y-87091779D01*
X163404051Y-86644221D01*
X168304669Y-86644221D01*
X168323115Y-87184509D01*
X168494388Y-87598001D01*
X168740185Y-87656131D01*
X169528316Y-86868000D01*
X169815684Y-86868000D01*
X170603815Y-87656131D01*
X170849612Y-87598001D01*
X171039331Y-87091779D01*
X171020885Y-86551491D01*
X170849612Y-86137999D01*
X170603815Y-86079869D01*
X169815684Y-86868000D01*
X169528316Y-86868000D01*
X168740185Y-86079869D01*
X168494388Y-86137999D01*
X168304669Y-86644221D01*
X163404051Y-86644221D01*
X163400885Y-86551491D01*
X163229612Y-86137999D01*
X162983815Y-86079869D01*
X162195684Y-86868000D01*
X161908316Y-86868000D01*
X161120185Y-86079869D01*
X160874388Y-86137999D01*
X160684669Y-86644221D01*
X158140400Y-86644221D01*
X158140400Y-85936185D01*
X161263869Y-85936185D01*
X162052000Y-86724316D01*
X162840131Y-85936185D01*
X168883869Y-85936185D01*
X169672000Y-86724316D01*
X170460131Y-85936185D01*
X170402001Y-85690388D01*
X169895779Y-85500669D01*
X169355491Y-85519115D01*
X168941999Y-85690388D01*
X168883869Y-85936185D01*
X162840131Y-85936185D01*
X162782001Y-85690388D01*
X162275779Y-85500669D01*
X161735491Y-85519115D01*
X161321999Y-85690388D01*
X161263869Y-85936185D01*
X158140400Y-85936185D01*
X158140400Y-85643085D01*
X158242288Y-85493966D01*
X158245375Y-85478722D01*
X158718962Y-85478722D01*
X158771147Y-85719494D01*
X159259797Y-85901113D01*
X159780752Y-85881908D01*
X160172853Y-85719494D01*
X160225038Y-85478722D01*
X159472000Y-84725684D01*
X158718962Y-85478722D01*
X158245375Y-85478722D01*
X158295338Y-85232000D01*
X158295338Y-85188293D01*
X158334506Y-85282853D01*
X158575278Y-85335038D01*
X159328316Y-84582000D01*
X159615684Y-84582000D01*
X160368722Y-85335038D01*
X160609494Y-85282853D01*
X160791113Y-84794203D01*
X160771908Y-84273248D01*
X160609494Y-83881147D01*
X160368722Y-83828962D01*
X159615684Y-84582000D01*
X159328316Y-84582000D01*
X158575278Y-83828962D01*
X158334506Y-83881147D01*
X158295338Y-83986529D01*
X158295338Y-83932000D01*
X158249289Y-83687270D01*
X158248008Y-83685278D01*
X158718962Y-83685278D01*
X159472000Y-84438316D01*
X160225038Y-83685278D01*
X160172853Y-83444506D01*
X159684203Y-83262887D01*
X159163248Y-83282092D01*
X158771147Y-83444506D01*
X158718962Y-83685278D01*
X158248008Y-83685278D01*
X158104654Y-83462501D01*
X157883966Y-83311712D01*
X157622000Y-83258662D01*
X156322000Y-83258662D01*
X156077270Y-83304711D01*
X155852501Y-83449346D01*
X155701712Y-83670034D01*
X155648662Y-83932000D01*
X155648662Y-85232000D01*
X155694711Y-85476730D01*
X155803600Y-85645948D01*
X155803600Y-86384033D01*
X154710032Y-87477600D01*
X148488400Y-87477600D01*
X148488400Y-87260769D01*
X148591018Y-87013639D01*
X148727346Y-87225499D01*
X148948034Y-87376288D01*
X149210000Y-87429338D01*
X150510000Y-87429338D01*
X150754730Y-87383289D01*
X150979499Y-87238654D01*
X151130288Y-87017966D01*
X151133375Y-87002722D01*
X151606962Y-87002722D01*
X151659147Y-87243494D01*
X152147797Y-87425113D01*
X152668752Y-87405908D01*
X153060853Y-87243494D01*
X153113038Y-87002722D01*
X152360000Y-86249684D01*
X151606962Y-87002722D01*
X151133375Y-87002722D01*
X151183338Y-86756000D01*
X151183338Y-86712293D01*
X151222506Y-86806853D01*
X151463278Y-86859038D01*
X152216316Y-86106000D01*
X152503684Y-86106000D01*
X153256722Y-86859038D01*
X153497494Y-86806853D01*
X153679113Y-86318203D01*
X153659908Y-85797248D01*
X153497494Y-85405147D01*
X153256722Y-85352962D01*
X152503684Y-86106000D01*
X152216316Y-86106000D01*
X151463278Y-85352962D01*
X151222506Y-85405147D01*
X151183338Y-85510529D01*
X151183338Y-85456000D01*
X151137289Y-85211270D01*
X151136008Y-85209278D01*
X151606962Y-85209278D01*
X152360000Y-85962316D01*
X153113038Y-85209278D01*
X153060853Y-84968506D01*
X152572203Y-84786887D01*
X152051248Y-84806092D01*
X151659147Y-84968506D01*
X151606962Y-85209278D01*
X151136008Y-85209278D01*
X150992654Y-84986501D01*
X150771966Y-84835712D01*
X150510000Y-84782662D01*
X149210000Y-84782662D01*
X148965270Y-84828711D01*
X148740501Y-84973346D01*
X148589712Y-85194034D01*
X148536662Y-85456000D01*
X148536662Y-86083347D01*
X148445716Y-85863241D01*
X148072723Y-85489596D01*
X147585135Y-85287131D01*
X147057182Y-85286671D01*
X146672544Y-85445600D01*
X145565710Y-85445600D01*
X145605099Y-85420254D01*
X145755888Y-85199566D01*
X145808938Y-84937600D01*
X145808938Y-83210400D01*
X145762889Y-82965670D01*
X145618254Y-82740901D01*
X145440400Y-82619379D01*
X145440400Y-82042005D01*
X145440401Y-82042000D01*
X145351461Y-81594872D01*
X145098184Y-81215816D01*
X144539517Y-80657149D01*
X144381716Y-80275241D01*
X144008723Y-79901596D01*
X143521135Y-79699131D01*
X143058929Y-79698728D01*
X143059329Y-79239182D01*
X142979012Y-79044800D01*
X149495869Y-79044800D01*
X149287816Y-79183816D01*
X149287814Y-79183819D01*
X148017816Y-80453816D01*
X147764539Y-80832872D01*
X147675599Y-81280000D01*
X147675600Y-81280005D01*
X147675600Y-81903231D01*
X147517131Y-82284865D01*
X147516671Y-82812818D01*
X147718284Y-83300759D01*
X148091277Y-83674404D01*
X148578865Y-83876869D01*
X149106818Y-83877329D01*
X149594759Y-83675716D01*
X149968404Y-83302723D01*
X150170869Y-82815135D01*
X150171329Y-82287182D01*
X150012400Y-81902544D01*
X150012400Y-81763968D01*
X150597967Y-81178400D01*
X155955995Y-81178400D01*
X155956000Y-81178401D01*
X156403128Y-81089461D01*
X156782184Y-80836184D01*
X158814184Y-78804184D01*
X158851600Y-78748187D01*
X158851600Y-81025995D01*
X158851599Y-81026000D01*
X158940539Y-81473128D01*
X159193816Y-81852184D01*
X159955814Y-82614181D01*
X159955816Y-82614184D01*
X160334873Y-82867461D01*
X160782000Y-82956401D01*
X160782005Y-82956400D01*
X161322308Y-82956400D01*
X161780512Y-83146663D01*
X162321116Y-83147135D01*
X162782730Y-82956400D01*
X168942308Y-82956400D01*
X169400512Y-83146663D01*
X169941116Y-83147135D01*
X170440749Y-82940691D01*
X170823347Y-82558760D01*
X171030663Y-82059488D01*
X171031135Y-81518884D01*
X170824691Y-81019251D01*
X170442760Y-80636653D01*
X169943488Y-80429337D01*
X169402884Y-80428865D01*
X168941270Y-80619600D01*
X162781692Y-80619600D01*
X162323488Y-80429337D01*
X161782884Y-80428865D01*
X161321270Y-80619600D01*
X161265967Y-80619600D01*
X161188400Y-80542032D01*
X161188400Y-71628000D01*
X172788757Y-71628000D01*
X172904765Y-72211210D01*
X173235126Y-72705631D01*
X173523027Y-72898000D01*
X173235126Y-73090369D01*
X172904765Y-73584790D01*
X172788757Y-74168000D01*
X172904765Y-74751210D01*
X173235126Y-75245631D01*
X173523027Y-75438000D01*
X173235126Y-75630369D01*
X172904765Y-76124790D01*
X172788757Y-76708000D01*
X172904765Y-77291210D01*
X173235126Y-77785631D01*
X173523027Y-77978000D01*
X173235126Y-78170369D01*
X172904765Y-78664790D01*
X172788757Y-79248000D01*
X172904765Y-79831210D01*
X173222444Y-80306651D01*
X173012501Y-80441746D01*
X172861712Y-80662434D01*
X172808662Y-80924400D01*
X172808662Y-82651600D01*
X172854711Y-82896330D01*
X172999346Y-83121099D01*
X173220034Y-83271888D01*
X173482000Y-83324938D01*
X175514000Y-83324938D01*
X175758730Y-83278889D01*
X175983499Y-83134254D01*
X176134288Y-82913566D01*
X176187338Y-82651600D01*
X176187338Y-80924400D01*
X176141289Y-80679670D01*
X175996654Y-80454901D01*
X175775966Y-80304112D01*
X175775338Y-80303985D01*
X176091235Y-79831210D01*
X176207243Y-79248000D01*
X176091235Y-78664790D01*
X175760874Y-78170369D01*
X175472973Y-77978000D01*
X175760874Y-77785631D01*
X176091235Y-77291210D01*
X176207243Y-76708000D01*
X176091235Y-76124790D01*
X175760874Y-75630369D01*
X175472973Y-75438000D01*
X175760874Y-75245631D01*
X176091235Y-74751210D01*
X176207243Y-74168000D01*
X176091235Y-73584790D01*
X175760874Y-73090369D01*
X175472973Y-72898000D01*
X175760874Y-72705631D01*
X176091235Y-72211210D01*
X176207243Y-71628000D01*
X176091235Y-71044790D01*
X175760874Y-70550369D01*
X175471669Y-70357129D01*
X175854848Y-70025875D01*
X176122074Y-69493561D01*
X176136395Y-69426225D01*
X176005497Y-69189600D01*
X174599600Y-69189600D01*
X174599600Y-69209600D01*
X174396400Y-69209600D01*
X174396400Y-69189600D01*
X172990503Y-69189600D01*
X172859605Y-69426225D01*
X172873926Y-69493561D01*
X173141152Y-70025875D01*
X173524331Y-70357129D01*
X173235126Y-70550369D01*
X172904765Y-71044790D01*
X172788757Y-71628000D01*
X161188400Y-71628000D01*
X161188400Y-69088000D01*
X161121123Y-68749775D01*
X172859605Y-68749775D01*
X172990503Y-68986400D01*
X174396400Y-68986400D01*
X174396400Y-67727411D01*
X174599600Y-67727411D01*
X174599600Y-68986400D01*
X176005497Y-68986400D01*
X176136395Y-68749775D01*
X176122074Y-68682439D01*
X175854848Y-68150125D01*
X175404256Y-67760594D01*
X174838896Y-67573148D01*
X174599600Y-67727411D01*
X174396400Y-67727411D01*
X174157104Y-67573148D01*
X173591744Y-67760594D01*
X173141152Y-68150125D01*
X172873926Y-68682439D01*
X172859605Y-68749775D01*
X161121123Y-68749775D01*
X161099461Y-68640873D01*
X160846184Y-68261816D01*
X160846181Y-68261814D01*
X160438858Y-67854491D01*
X160750001Y-67725612D01*
X160808131Y-67479815D01*
X166851869Y-67479815D01*
X166909999Y-67725612D01*
X167416221Y-67915331D01*
X167956509Y-67896885D01*
X168370001Y-67725612D01*
X168428131Y-67479815D01*
X167640000Y-66691684D01*
X166851869Y-67479815D01*
X160808131Y-67479815D01*
X160020000Y-66691684D01*
X160005858Y-66705827D01*
X159862174Y-66562143D01*
X159876316Y-66548000D01*
X160163684Y-66548000D01*
X160951815Y-67336131D01*
X161197612Y-67278001D01*
X161387331Y-66771779D01*
X161372051Y-66324221D01*
X166272669Y-66324221D01*
X166291115Y-66864509D01*
X166462388Y-67278001D01*
X166708185Y-67336131D01*
X167496316Y-66548000D01*
X167783684Y-66548000D01*
X168571815Y-67336131D01*
X168817612Y-67278001D01*
X169007331Y-66771779D01*
X168988885Y-66231491D01*
X168817612Y-65817999D01*
X168571815Y-65759869D01*
X167783684Y-66548000D01*
X167496316Y-66548000D01*
X166708185Y-65759869D01*
X166462388Y-65817999D01*
X166272669Y-66324221D01*
X161372051Y-66324221D01*
X161368885Y-66231491D01*
X161197612Y-65817999D01*
X160951815Y-65759869D01*
X160163684Y-66548000D01*
X159876316Y-66548000D01*
X159088185Y-65759869D01*
X158842388Y-65817999D01*
X158722435Y-66138067D01*
X158306184Y-65721816D01*
X158148096Y-65616185D01*
X159231869Y-65616185D01*
X160020000Y-66404316D01*
X160808131Y-65616185D01*
X166851869Y-65616185D01*
X167640000Y-66404316D01*
X168428131Y-65616185D01*
X168370001Y-65370388D01*
X167863779Y-65180669D01*
X167323491Y-65199115D01*
X166909999Y-65370388D01*
X166851869Y-65616185D01*
X160808131Y-65616185D01*
X160750001Y-65370388D01*
X160243779Y-65180669D01*
X159703491Y-65199115D01*
X159289999Y-65370388D01*
X159231869Y-65616185D01*
X158148096Y-65616185D01*
X157927128Y-65468539D01*
X157480000Y-65379599D01*
X157479995Y-65379600D01*
X153808769Y-65379600D01*
X153427135Y-65221131D01*
X152899182Y-65220671D01*
X152411241Y-65422284D01*
X152037596Y-65795277D01*
X151835131Y-66282865D01*
X151834671Y-66810818D01*
X152036284Y-67298759D01*
X152148928Y-67411600D01*
X137389967Y-67411600D01*
X136804400Y-66826032D01*
X136804400Y-66048818D01*
X141928671Y-66048818D01*
X142130284Y-66536759D01*
X142503277Y-66910404D01*
X142990865Y-67112869D01*
X143518818Y-67113329D01*
X144006759Y-66911716D01*
X144380404Y-66538723D01*
X144582869Y-66051135D01*
X144583329Y-65523182D01*
X144424400Y-65138544D01*
X144424400Y-62205968D01*
X144938022Y-61692346D01*
X144881599Y-61976000D01*
X144881600Y-61976005D01*
X144881600Y-64377231D01*
X144723131Y-64758865D01*
X144722671Y-65286818D01*
X144924284Y-65774759D01*
X145297277Y-66148404D01*
X145784865Y-66350869D01*
X146312818Y-66351329D01*
X146800759Y-66149716D01*
X147174404Y-65776723D01*
X147376869Y-65289135D01*
X147377329Y-64761182D01*
X147218400Y-64376544D01*
X147218400Y-62492818D01*
X150056671Y-62492818D01*
X150258284Y-62980759D01*
X150631277Y-63354404D01*
X151118865Y-63556869D01*
X151646818Y-63557329D01*
X152134759Y-63355716D01*
X152508404Y-62982723D01*
X152652210Y-62636400D01*
X159290308Y-62636400D01*
X159748512Y-62826663D01*
X160289116Y-62827135D01*
X160750730Y-62636400D01*
X166910308Y-62636400D01*
X167368512Y-62826663D01*
X167909116Y-62827135D01*
X168408749Y-62620691D01*
X168791347Y-62238760D01*
X168794984Y-62230000D01*
X172788757Y-62230000D01*
X172904765Y-62813210D01*
X173235126Y-63307631D01*
X173729547Y-63637992D01*
X174312757Y-63754000D01*
X174683243Y-63754000D01*
X175266453Y-63637992D01*
X175760874Y-63307631D01*
X176091235Y-62813210D01*
X176207243Y-62230000D01*
X176091235Y-61646790D01*
X175760874Y-61152369D01*
X175471669Y-60959129D01*
X175854848Y-60627875D01*
X176122074Y-60095561D01*
X176136395Y-60028225D01*
X176005497Y-59791600D01*
X174599600Y-59791600D01*
X174599600Y-59811600D01*
X174396400Y-59811600D01*
X174396400Y-59791600D01*
X172990503Y-59791600D01*
X172859605Y-60028225D01*
X172873926Y-60095561D01*
X173141152Y-60627875D01*
X173524331Y-60959129D01*
X173235126Y-61152369D01*
X172904765Y-61646790D01*
X172788757Y-62230000D01*
X168794984Y-62230000D01*
X168998663Y-61739488D01*
X168999135Y-61198884D01*
X168792691Y-60699251D01*
X168410760Y-60316653D01*
X167911488Y-60109337D01*
X167370884Y-60108865D01*
X166909270Y-60299600D01*
X160749692Y-60299600D01*
X160291488Y-60109337D01*
X159750884Y-60108865D01*
X159289270Y-60299600D01*
X152146005Y-60299600D01*
X152146000Y-60299599D01*
X151698873Y-60388539D01*
X151319816Y-60641816D01*
X151319814Y-60641819D01*
X151015150Y-60946482D01*
X150633241Y-61104284D01*
X150259596Y-61477277D01*
X150057131Y-61964865D01*
X150056671Y-62492818D01*
X147218400Y-62492818D01*
X147218400Y-62459968D01*
X147803967Y-61874400D01*
X149097995Y-61874400D01*
X149098000Y-61874401D01*
X149545128Y-61785461D01*
X149924184Y-61532184D01*
X150333121Y-61123246D01*
X150333124Y-61123244D01*
X150586401Y-60744187D01*
X150675340Y-60297060D01*
X150675340Y-60138884D01*
X150680659Y-60135330D01*
X151040478Y-59596823D01*
X151166830Y-58961611D01*
X151166830Y-58386389D01*
X151040478Y-57751177D01*
X150988693Y-57673675D01*
X151702181Y-56960186D01*
X151702184Y-56960184D01*
X151891484Y-56676876D01*
X151955461Y-56581128D01*
X152044400Y-56134000D01*
X152044400Y-54909085D01*
X152146288Y-54759966D01*
X152199338Y-54498000D01*
X152199338Y-53198000D01*
X152153289Y-52953270D01*
X152008654Y-52728501D01*
X151787966Y-52577712D01*
X151526000Y-52524662D01*
X151482293Y-52524662D01*
X151576853Y-52485494D01*
X151629038Y-52244722D01*
X150876000Y-51491684D01*
X150122962Y-52244722D01*
X150175147Y-52485494D01*
X150280529Y-52524662D01*
X150226000Y-52524662D01*
X149981270Y-52570711D01*
X149756501Y-52715346D01*
X149605712Y-52936034D01*
X149552662Y-53198000D01*
X149552662Y-54498000D01*
X149598711Y-54742730D01*
X149707600Y-54911948D01*
X149707600Y-55650033D01*
X148680756Y-56676876D01*
X148427479Y-57055932D01*
X148405971Y-57164060D01*
X148333221Y-57212670D01*
X147973402Y-57751177D01*
X147847050Y-58386389D01*
X147847050Y-58961611D01*
X147961622Y-59537600D01*
X147320000Y-59537600D01*
X146872872Y-59626539D01*
X146753409Y-59706362D01*
X146493816Y-59879816D01*
X146493814Y-59879819D01*
X145737038Y-60636595D01*
X145793460Y-60352940D01*
X145793460Y-60138884D01*
X145798779Y-60135330D01*
X146158598Y-59596823D01*
X146284950Y-58961611D01*
X146284950Y-58386389D01*
X146158598Y-57751177D01*
X145798779Y-57212670D01*
X145726029Y-57164060D01*
X145704521Y-57055932D01*
X145451244Y-56676876D01*
X144678400Y-55904032D01*
X144678400Y-54909085D01*
X144780288Y-54759966D01*
X144833338Y-54498000D01*
X144833338Y-53198000D01*
X144787289Y-52953270D01*
X144642654Y-52728501D01*
X144421966Y-52577712D01*
X144160000Y-52524662D01*
X144116293Y-52524662D01*
X144210853Y-52485494D01*
X144263038Y-52244722D01*
X143510000Y-51491684D01*
X142756962Y-52244722D01*
X142809147Y-52485494D01*
X142914529Y-52524662D01*
X142860000Y-52524662D01*
X142615270Y-52570711D01*
X142390501Y-52715346D01*
X142239712Y-52936034D01*
X142186662Y-53198000D01*
X142186662Y-54498000D01*
X142232711Y-54742730D01*
X142341600Y-54911948D01*
X142341600Y-56387995D01*
X142341599Y-56388000D01*
X142430539Y-56835128D01*
X142683816Y-57214184D01*
X143143307Y-57673675D01*
X143091522Y-57751177D01*
X142965170Y-58386389D01*
X142965170Y-58961611D01*
X143091522Y-59596823D01*
X143346784Y-59978849D01*
X142429816Y-60895816D01*
X142176539Y-61274872D01*
X142087599Y-61722000D01*
X142087600Y-61722005D01*
X142087600Y-65139231D01*
X141929131Y-65520865D01*
X141928671Y-66048818D01*
X136804400Y-66048818D01*
X136804400Y-51135797D01*
X142190887Y-51135797D01*
X142210092Y-51656752D01*
X142372506Y-52048853D01*
X142613278Y-52101038D01*
X143366316Y-51348000D01*
X143653684Y-51348000D01*
X144406722Y-52101038D01*
X144647494Y-52048853D01*
X144829113Y-51560203D01*
X144813468Y-51135797D01*
X149556887Y-51135797D01*
X149576092Y-51656752D01*
X149738506Y-52048853D01*
X149979278Y-52101038D01*
X150732316Y-51348000D01*
X151019684Y-51348000D01*
X151772722Y-52101038D01*
X152013494Y-52048853D01*
X152050450Y-51949420D01*
X158252264Y-51949420D01*
X158347217Y-52226437D01*
X158962421Y-52466398D01*
X159622623Y-52452663D01*
X160168783Y-52226437D01*
X160263736Y-51949420D01*
X159258000Y-50943684D01*
X158252264Y-51949420D01*
X152050450Y-51949420D01*
X152195113Y-51560203D01*
X152175908Y-51039248D01*
X152013494Y-50647147D01*
X151772722Y-50594962D01*
X151019684Y-51348000D01*
X150732316Y-51348000D01*
X149979278Y-50594962D01*
X149738506Y-50647147D01*
X149556887Y-51135797D01*
X144813468Y-51135797D01*
X144809908Y-51039248D01*
X144647494Y-50647147D01*
X144406722Y-50594962D01*
X143653684Y-51348000D01*
X143366316Y-51348000D01*
X142613278Y-50594962D01*
X142372506Y-50647147D01*
X142190887Y-51135797D01*
X136804400Y-51135797D01*
X136804400Y-50451278D01*
X142756962Y-50451278D01*
X143510000Y-51204316D01*
X144263038Y-50451278D01*
X150122962Y-50451278D01*
X150876000Y-51204316D01*
X151575895Y-50504421D01*
X157591602Y-50504421D01*
X157605337Y-51164623D01*
X157831563Y-51710783D01*
X158108580Y-51805736D01*
X159114316Y-50800000D01*
X159401684Y-50800000D01*
X160407420Y-51805736D01*
X160684437Y-51710783D01*
X160924398Y-51095579D01*
X160910663Y-50435377D01*
X160684437Y-49889217D01*
X160407420Y-49794264D01*
X159401684Y-50800000D01*
X159114316Y-50800000D01*
X158108580Y-49794264D01*
X157831563Y-49889217D01*
X157591602Y-50504421D01*
X151575895Y-50504421D01*
X151629038Y-50451278D01*
X151576853Y-50210506D01*
X151088203Y-50028887D01*
X150567248Y-50048092D01*
X150175147Y-50210506D01*
X150122962Y-50451278D01*
X144263038Y-50451278D01*
X144210853Y-50210506D01*
X143722203Y-50028887D01*
X143201248Y-50048092D01*
X142809147Y-50210506D01*
X142756962Y-50451278D01*
X136804400Y-50451278D01*
X136804400Y-49650580D01*
X158252264Y-49650580D01*
X159258000Y-50656316D01*
X160263736Y-49650580D01*
X160168783Y-49373563D01*
X159553579Y-49133602D01*
X158893377Y-49147337D01*
X158347217Y-49373563D01*
X158252264Y-49650580D01*
X136804400Y-49650580D01*
X136804400Y-45794724D01*
X137023823Y-45794724D01*
X137275993Y-46405024D01*
X137742520Y-46872366D01*
X138352379Y-47125601D01*
X139012724Y-47126177D01*
X139623024Y-46874007D01*
X139649076Y-46848000D01*
X142186662Y-46848000D01*
X142186662Y-48148000D01*
X142232711Y-48392730D01*
X142377346Y-48617499D01*
X142598034Y-48768288D01*
X142860000Y-48821338D01*
X144160000Y-48821338D01*
X144404730Y-48775289D01*
X144573948Y-48666400D01*
X149814915Y-48666400D01*
X149964034Y-48768288D01*
X150226000Y-48821338D01*
X151526000Y-48821338D01*
X151770730Y-48775289D01*
X151939948Y-48666400D01*
X156971995Y-48666400D01*
X156972000Y-48666401D01*
X157419128Y-48577461D01*
X157798184Y-48324184D01*
X157963968Y-48158400D01*
X160190986Y-48158400D01*
X160438520Y-48406366D01*
X161048379Y-48659601D01*
X161708724Y-48660177D01*
X162319024Y-48408007D01*
X162559050Y-48168400D01*
X162594032Y-48168400D01*
X162661600Y-48235967D01*
X162661600Y-53500194D01*
X162409480Y-53247634D01*
X161799621Y-52994399D01*
X161139276Y-52993823D01*
X160528976Y-53245993D01*
X160061634Y-53712520D01*
X159808399Y-54322379D01*
X159807823Y-54982724D01*
X160059993Y-55593024D01*
X160526520Y-56060366D01*
X161136379Y-56313601D01*
X161796724Y-56314177D01*
X162407024Y-56062007D01*
X162661600Y-55807875D01*
X162661600Y-56895995D01*
X162661599Y-56896000D01*
X162750539Y-57343128D01*
X163003816Y-57722184D01*
X165035816Y-59754184D01*
X165414872Y-60007461D01*
X165862000Y-60096401D01*
X165862005Y-60096400D01*
X171057231Y-60096400D01*
X171438865Y-60254869D01*
X171966818Y-60255329D01*
X172454759Y-60053716D01*
X172828404Y-59680723D01*
X172919807Y-59460602D01*
X172990503Y-59588400D01*
X174396400Y-59588400D01*
X174396400Y-59568400D01*
X174599600Y-59568400D01*
X174599600Y-59588400D01*
X176005497Y-59588400D01*
X176136395Y-59351775D01*
X176122074Y-59284439D01*
X175854848Y-58752125D01*
X175471669Y-58420871D01*
X175760874Y-58227631D01*
X176091235Y-57733210D01*
X176207243Y-57150000D01*
X176091235Y-56566790D01*
X175773556Y-56091349D01*
X175983499Y-55956254D01*
X176134288Y-55735566D01*
X176187338Y-55473600D01*
X176187338Y-53746400D01*
X176141289Y-53501670D01*
X175996654Y-53276901D01*
X175775966Y-53126112D01*
X175514000Y-53073062D01*
X173482000Y-53073062D01*
X173237270Y-53119111D01*
X173012501Y-53263746D01*
X172861712Y-53484434D01*
X172808662Y-53746400D01*
X172808662Y-55473600D01*
X172854711Y-55718330D01*
X172999346Y-55943099D01*
X173220034Y-56093888D01*
X173220662Y-56094015D01*
X172904765Y-56566790D01*
X172788757Y-57150000D01*
X172904765Y-57733210D01*
X173235126Y-58227631D01*
X173524331Y-58420871D01*
X173141152Y-58752125D01*
X173031062Y-58971424D01*
X173031329Y-58665182D01*
X172829716Y-58177241D01*
X172456723Y-57803596D01*
X171969135Y-57601131D01*
X171441182Y-57600671D01*
X171056544Y-57759600D01*
X166345968Y-57759600D01*
X164998400Y-56412032D01*
X164998400Y-54982724D01*
X167427823Y-54982724D01*
X167679993Y-55593024D01*
X168146520Y-56060366D01*
X168756379Y-56313601D01*
X169416724Y-56314177D01*
X170027024Y-56062007D01*
X170494366Y-55595480D01*
X170747601Y-54985621D01*
X170748177Y-54325276D01*
X170496007Y-53714976D01*
X170029480Y-53247634D01*
X169419621Y-52994399D01*
X168759276Y-52993823D01*
X168148976Y-53245993D01*
X167681634Y-53712520D01*
X167428399Y-54322379D01*
X167427823Y-54982724D01*
X164998400Y-54982724D01*
X164998400Y-51128724D01*
X165217823Y-51128724D01*
X165469993Y-51739024D01*
X165936520Y-52206366D01*
X166546379Y-52459601D01*
X167206724Y-52460177D01*
X167817024Y-52208007D01*
X168284366Y-51741480D01*
X168537601Y-51131621D01*
X168538177Y-50471276D01*
X168286007Y-49860976D01*
X167819480Y-49393634D01*
X167209621Y-49140399D01*
X166549276Y-49139823D01*
X165938976Y-49391993D01*
X165471634Y-49858520D01*
X165218399Y-50468379D01*
X165217823Y-51128724D01*
X164998400Y-51128724D01*
X164998400Y-47752005D01*
X164998401Y-47752000D01*
X164909461Y-47304873D01*
X164804059Y-47147127D01*
X164656184Y-46925816D01*
X164656181Y-46925814D01*
X163904184Y-46173816D01*
X163525128Y-45920539D01*
X163078000Y-45831599D01*
X163077995Y-45831600D01*
X162559031Y-45831600D01*
X162321480Y-45593634D01*
X162248400Y-45563289D01*
X162248400Y-43127028D01*
X162487992Y-42768453D01*
X162604000Y-42185243D01*
X162604000Y-41814757D01*
X162487992Y-41231547D01*
X162157631Y-40737126D01*
X161663210Y-40406765D01*
X161080000Y-40290757D01*
X160496790Y-40406765D01*
X160002369Y-40737126D01*
X159809129Y-41026331D01*
X159477875Y-40643152D01*
X158945561Y-40375926D01*
X158878225Y-40361605D01*
X158641600Y-40492503D01*
X158641600Y-41898400D01*
X158661600Y-41898400D01*
X158661600Y-42101600D01*
X158641600Y-42101600D01*
X158641600Y-43507497D01*
X158878225Y-43638395D01*
X158945561Y-43624074D01*
X159477875Y-43356848D01*
X159809129Y-42973669D01*
X159911600Y-43127028D01*
X159911600Y-45821600D01*
X157480000Y-45821600D01*
X157032873Y-45910539D01*
X156653816Y-46163816D01*
X156653814Y-46163819D01*
X156488033Y-46329600D01*
X151937085Y-46329600D01*
X151787966Y-46227712D01*
X151526000Y-46174662D01*
X151482293Y-46174662D01*
X151576853Y-46135494D01*
X151629038Y-45894722D01*
X150876000Y-45141684D01*
X150122962Y-45894722D01*
X150175147Y-46135494D01*
X150280529Y-46174662D01*
X150226000Y-46174662D01*
X149981270Y-46220711D01*
X149812052Y-46329600D01*
X144571085Y-46329600D01*
X144421966Y-46227712D01*
X144160000Y-46174662D01*
X144116293Y-46174662D01*
X144210853Y-46135494D01*
X144263038Y-45894722D01*
X143510000Y-45141684D01*
X142756962Y-45894722D01*
X142809147Y-46135494D01*
X142914529Y-46174662D01*
X142860000Y-46174662D01*
X142615270Y-46220711D01*
X142390501Y-46365346D01*
X142239712Y-46586034D01*
X142186662Y-46848000D01*
X139649076Y-46848000D01*
X140090366Y-46407480D01*
X140343601Y-45797621D01*
X140344177Y-45137276D01*
X140198950Y-44785797D01*
X142190887Y-44785797D01*
X142210092Y-45306752D01*
X142372506Y-45698853D01*
X142613278Y-45751038D01*
X143366316Y-44998000D01*
X143653684Y-44998000D01*
X144406722Y-45751038D01*
X144647494Y-45698853D01*
X144829113Y-45210203D01*
X144813468Y-44785797D01*
X149556887Y-44785797D01*
X149576092Y-45306752D01*
X149738506Y-45698853D01*
X149979278Y-45751038D01*
X150732316Y-44998000D01*
X151019684Y-44998000D01*
X151772722Y-45751038D01*
X152013494Y-45698853D01*
X152195113Y-45210203D01*
X152175908Y-44689248D01*
X152013494Y-44297147D01*
X151772722Y-44244962D01*
X151019684Y-44998000D01*
X150732316Y-44998000D01*
X149979278Y-44244962D01*
X149738506Y-44297147D01*
X149556887Y-44785797D01*
X144813468Y-44785797D01*
X144809908Y-44689248D01*
X144647494Y-44297147D01*
X144406722Y-44244962D01*
X143653684Y-44998000D01*
X143366316Y-44998000D01*
X142613278Y-44244962D01*
X142372506Y-44297147D01*
X142190887Y-44785797D01*
X140198950Y-44785797D01*
X140092007Y-44526976D01*
X139667052Y-44101278D01*
X142756962Y-44101278D01*
X143510000Y-44854316D01*
X144263038Y-44101278D01*
X150122962Y-44101278D01*
X150876000Y-44854316D01*
X151629038Y-44101278D01*
X151576853Y-43860506D01*
X151088203Y-43678887D01*
X150567248Y-43698092D01*
X150175147Y-43860506D01*
X150122962Y-44101278D01*
X144263038Y-44101278D01*
X144210853Y-43860506D01*
X143722203Y-43678887D01*
X143201248Y-43698092D01*
X142809147Y-43860506D01*
X142756962Y-44101278D01*
X139667052Y-44101278D01*
X139625480Y-44059634D01*
X139015621Y-43806399D01*
X138355276Y-43805823D01*
X137744976Y-44057993D01*
X137277634Y-44524520D01*
X137024399Y-45134379D01*
X137023823Y-45794724D01*
X136804400Y-45794724D01*
X136804400Y-42073031D01*
X136834062Y-42043420D01*
X142250264Y-42043420D01*
X142345217Y-42320437D01*
X142960421Y-42560398D01*
X143620623Y-42546663D01*
X144166783Y-42320437D01*
X144261736Y-42043420D01*
X143256000Y-41037684D01*
X142250264Y-42043420D01*
X136834062Y-42043420D01*
X137042366Y-41835480D01*
X137295601Y-41225621D01*
X137296148Y-40598421D01*
X141589602Y-40598421D01*
X141603337Y-41258623D01*
X141829563Y-41804783D01*
X142106580Y-41899736D01*
X143112316Y-40894000D01*
X143399684Y-40894000D01*
X144405420Y-41899736D01*
X144682437Y-41804783D01*
X144922398Y-41189579D01*
X144908663Y-40529377D01*
X144682437Y-39983217D01*
X144405420Y-39888264D01*
X143399684Y-40894000D01*
X143112316Y-40894000D01*
X142106580Y-39888264D01*
X141829563Y-39983217D01*
X141589602Y-40598421D01*
X137296148Y-40598421D01*
X137296177Y-40565276D01*
X137044007Y-39954976D01*
X136833979Y-39744580D01*
X142250264Y-39744580D01*
X143256000Y-40750316D01*
X144261736Y-39744580D01*
X144166783Y-39467563D01*
X143551579Y-39227602D01*
X142891377Y-39241337D01*
X142345217Y-39467563D01*
X142250264Y-39744580D01*
X136833979Y-39744580D01*
X136804400Y-39714950D01*
X136804400Y-38517031D01*
X137042366Y-38279480D01*
X137295601Y-37669621D01*
X137295603Y-37666724D01*
X141595823Y-37666724D01*
X141847993Y-38277024D01*
X142314520Y-38744366D01*
X142924379Y-38997601D01*
X143584724Y-38998177D01*
X143588245Y-38996722D01*
X147622962Y-38996722D01*
X147675147Y-39237494D01*
X148163797Y-39419113D01*
X148684752Y-39399908D01*
X149076853Y-39237494D01*
X149129038Y-38996722D01*
X148376000Y-38243684D01*
X147622962Y-38996722D01*
X143588245Y-38996722D01*
X144195024Y-38746007D01*
X144662366Y-38279480D01*
X144825006Y-37887797D01*
X147056887Y-37887797D01*
X147076092Y-38408752D01*
X147238506Y-38800853D01*
X147479278Y-38853038D01*
X148232316Y-38100000D01*
X147479278Y-37346962D01*
X147238506Y-37399147D01*
X147056887Y-37887797D01*
X144825006Y-37887797D01*
X144915601Y-37669621D01*
X144916177Y-37009276D01*
X144775330Y-36668400D01*
X148808032Y-36668400D01*
X149235973Y-37096340D01*
X149129037Y-37203276D01*
X149076853Y-36962506D01*
X148588203Y-36780887D01*
X148067248Y-36800092D01*
X147675147Y-36962506D01*
X147622962Y-37203278D01*
X148376000Y-37956316D01*
X148390143Y-37942174D01*
X148533827Y-38085858D01*
X148519684Y-38100000D01*
X149272722Y-38853038D01*
X149513494Y-38800853D01*
X149552662Y-38695471D01*
X149552662Y-38750000D01*
X149598711Y-38994730D01*
X149743346Y-39219499D01*
X149964034Y-39370288D01*
X150226000Y-39423338D01*
X151526000Y-39423338D01*
X151770730Y-39377289D01*
X151939948Y-39268400D01*
X154202032Y-39268400D01*
X154831600Y-39897967D01*
X154831600Y-40395365D01*
X154666901Y-40501346D01*
X154516112Y-40722034D01*
X154463062Y-40984000D01*
X154463062Y-43016000D01*
X154509111Y-43260730D01*
X154653746Y-43485499D01*
X154874434Y-43636288D01*
X155136400Y-43689338D01*
X156863600Y-43689338D01*
X157108330Y-43643289D01*
X157333099Y-43498654D01*
X157483888Y-43277966D01*
X157493386Y-43231064D01*
X157602125Y-43356848D01*
X158134439Y-43624074D01*
X158201775Y-43638395D01*
X158438400Y-43507497D01*
X158438400Y-42101600D01*
X158418400Y-42101600D01*
X158418400Y-41898400D01*
X158438400Y-41898400D01*
X158438400Y-40492503D01*
X158201775Y-40361605D01*
X158134439Y-40375926D01*
X157602125Y-40643152D01*
X157495920Y-40766006D01*
X157490889Y-40739270D01*
X157346254Y-40514501D01*
X157168400Y-40392979D01*
X157168400Y-39414005D01*
X157168401Y-39414000D01*
X157168400Y-39413995D01*
X157168400Y-39266700D01*
X167339600Y-39266700D01*
X167339600Y-40081361D01*
X167440140Y-40324086D01*
X167625913Y-40509860D01*
X167715377Y-40546917D01*
X167635565Y-40626590D01*
X167389880Y-41218266D01*
X167389321Y-41858923D01*
X167633973Y-42451027D01*
X167831600Y-42648999D01*
X167831600Y-45820969D01*
X167593634Y-46058520D01*
X167340399Y-46668379D01*
X167339823Y-47328724D01*
X167591993Y-47939024D01*
X168058520Y-48406366D01*
X168668379Y-48659601D01*
X169328724Y-48660177D01*
X169939024Y-48408007D01*
X170406366Y-47941480D01*
X170659601Y-47331621D01*
X170660177Y-46671276D01*
X170408007Y-46060976D01*
X170168400Y-45820950D01*
X170168400Y-42649103D01*
X170364435Y-42453410D01*
X170610120Y-41861734D01*
X170610679Y-41221077D01*
X170366027Y-40628973D01*
X170284263Y-40547066D01*
X170374087Y-40509860D01*
X170559860Y-40324086D01*
X170660400Y-40081361D01*
X170660400Y-39266700D01*
X170495300Y-39101600D01*
X169101600Y-39101600D01*
X169101600Y-39121600D01*
X168898400Y-39121600D01*
X168898400Y-39101600D01*
X167504700Y-39101600D01*
X167339600Y-39266700D01*
X157168400Y-39266700D01*
X157168400Y-37918639D01*
X167339600Y-37918639D01*
X167339600Y-38733300D01*
X167504700Y-38898400D01*
X168898400Y-38898400D01*
X168898400Y-37554700D01*
X169101600Y-37554700D01*
X169101600Y-38898400D01*
X170495300Y-38898400D01*
X170660400Y-38733300D01*
X170660400Y-37918639D01*
X170559860Y-37675914D01*
X170374087Y-37490140D01*
X170131362Y-37389600D01*
X169266700Y-37389600D01*
X169101600Y-37554700D01*
X168898400Y-37554700D01*
X168733300Y-37389600D01*
X167868638Y-37389600D01*
X167625913Y-37490140D01*
X167440140Y-37675914D01*
X167339600Y-37918639D01*
X157168400Y-37918639D01*
X157168400Y-37160662D01*
X157260730Y-37143289D01*
X157485499Y-36998654D01*
X157581266Y-36858494D01*
X157638641Y-36913467D01*
X158177886Y-37136823D01*
X158438400Y-37007881D01*
X158438400Y-35601600D01*
X158641600Y-35601600D01*
X158641600Y-37007881D01*
X158902114Y-37136823D01*
X159441359Y-36913467D01*
X159913658Y-36460938D01*
X160176830Y-35862115D01*
X160048225Y-35601600D01*
X158641600Y-35601600D01*
X158438400Y-35601600D01*
X158418400Y-35601600D01*
X158418400Y-35398400D01*
X158438400Y-35398400D01*
X158438400Y-33992119D01*
X158641600Y-33992119D01*
X158641600Y-35398400D01*
X160048225Y-35398400D01*
X160176830Y-35137885D01*
X159913658Y-34539062D01*
X159441359Y-34086533D01*
X158902114Y-33863177D01*
X158641600Y-33992119D01*
X158438400Y-33992119D01*
X158177886Y-33863177D01*
X157638641Y-34086533D01*
X157580718Y-34142032D01*
X157498654Y-34014501D01*
X157277966Y-33863712D01*
X157016000Y-33810662D01*
X154984000Y-33810662D01*
X154739270Y-33856711D01*
X154514501Y-34001346D01*
X154363712Y-34222034D01*
X154341524Y-34331600D01*
X149292005Y-34331600D01*
X149292000Y-34331599D01*
X149291995Y-34331600D01*
X143570005Y-34331600D01*
X143570000Y-34331599D01*
X143122872Y-34420539D01*
X142743816Y-34673816D01*
X142429816Y-34987816D01*
X142176539Y-35366872D01*
X142087599Y-35814000D01*
X142087600Y-35814005D01*
X142087600Y-36158969D01*
X141849634Y-36396520D01*
X141596399Y-37006379D01*
X141595823Y-37666724D01*
X137295603Y-37666724D01*
X137296177Y-37009276D01*
X137044007Y-36398976D01*
X136577480Y-35931634D01*
X135967621Y-35678399D01*
X135307276Y-35677823D01*
X134696976Y-35929993D01*
X134229634Y-36396520D01*
X133976399Y-37006379D01*
X133975823Y-37666724D01*
X134227993Y-38277024D01*
X134467600Y-38517050D01*
X134467600Y-39714969D01*
X134229634Y-39952520D01*
X133976399Y-40562379D01*
X133975823Y-41222724D01*
X134227993Y-41833024D01*
X134467600Y-42073050D01*
X134467600Y-60697813D01*
X134430184Y-60641816D01*
X134430181Y-60641814D01*
X131978400Y-58190032D01*
X131978400Y-48768005D01*
X131978401Y-48768000D01*
X131889461Y-48320872D01*
X131636184Y-47941816D01*
X130820045Y-47125677D01*
X131392724Y-47126177D01*
X132003024Y-46874007D01*
X132470366Y-46407480D01*
X132723601Y-45797621D01*
X132724177Y-45137276D01*
X132472007Y-44526976D01*
X132005480Y-44059634D01*
X131395621Y-43806399D01*
X130735276Y-43805823D01*
X130124976Y-44057993D01*
X129657634Y-44524520D01*
X129404399Y-45134379D01*
X129403839Y-45775950D01*
X129225128Y-45656539D01*
X128778000Y-45567599D01*
X128777995Y-45567600D01*
X127417031Y-45567600D01*
X127179480Y-45329634D01*
X126569621Y-45076399D01*
X125909276Y-45075823D01*
X125298976Y-45327993D01*
X124831634Y-45794520D01*
X124578399Y-46404379D01*
X124577823Y-47064724D01*
X124829993Y-47675024D01*
X125296520Y-48142366D01*
X125906379Y-48395601D01*
X126566724Y-48396177D01*
X127177024Y-48144007D01*
X127417050Y-47904400D01*
X128294032Y-47904400D01*
X129641600Y-49251968D01*
X129641600Y-50549111D01*
X129276723Y-50183596D01*
X128789135Y-49981131D01*
X128261182Y-49980671D01*
X127773241Y-50182284D01*
X127399596Y-50555277D01*
X127197131Y-51042865D01*
X127196671Y-51570818D01*
X127355600Y-51955456D01*
X127355600Y-59689995D01*
X127355599Y-59690000D01*
X127444539Y-60137128D01*
X127697816Y-60516184D01*
X129895600Y-62713967D01*
X129895600Y-65788667D01*
X129784723Y-65677596D01*
X129297135Y-65475131D01*
X128769182Y-65474671D01*
X128281241Y-65676284D01*
X127907596Y-66049277D01*
X127705131Y-66536865D01*
X127704671Y-67064818D01*
X127863600Y-67449456D01*
X127863600Y-74929995D01*
X127863599Y-74930000D01*
X127952539Y-75377128D01*
X128205816Y-75756184D01*
X129475814Y-77026181D01*
X129475816Y-77026184D01*
X129668795Y-77155128D01*
X129854872Y-77279461D01*
X130302000Y-77368400D01*
X135889995Y-77368400D01*
X135890000Y-77368401D01*
X136337128Y-77279461D01*
X136716184Y-77026184D01*
X137478181Y-76264186D01*
X137478184Y-76264184D01*
X137731461Y-75885127D01*
X137732120Y-75881816D01*
X137770562Y-75688555D01*
X137776404Y-75682723D01*
X137978869Y-75195135D01*
X137979329Y-74667182D01*
X137777716Y-74179241D01*
X137404723Y-73805596D01*
X136917135Y-73603131D01*
X136454929Y-73602728D01*
X136455329Y-73143182D01*
X136253716Y-72655241D01*
X135880723Y-72281596D01*
X135393135Y-72079131D01*
X134865182Y-72078671D01*
X134713938Y-72141164D01*
X134728404Y-72126723D01*
X134930869Y-71639135D01*
X134931329Y-71111182D01*
X134772400Y-70726544D01*
X134772400Y-68080187D01*
X134809816Y-68136184D01*
X136079814Y-69406181D01*
X136079816Y-69406184D01*
X136278786Y-69539131D01*
X136458872Y-69659461D01*
X136906000Y-69748400D01*
X155451111Y-69748400D01*
X155085596Y-70113277D01*
X154925995Y-70497637D01*
X154875816Y-70547816D01*
X154622539Y-70926872D01*
X154533599Y-71374000D01*
X154533600Y-71374005D01*
X154533600Y-76224032D01*
X154202032Y-76555600D01*
X140716000Y-76555600D01*
X140268873Y-76644539D01*
X139889816Y-76897816D01*
X139889814Y-76897819D01*
X138365816Y-78421816D01*
X138112539Y-78800872D01*
X138023599Y-79248000D01*
X138023600Y-79248005D01*
X138023600Y-82905600D01*
X133094892Y-82905600D01*
X132849798Y-82803828D01*
X132328489Y-82803373D01*
X131984273Y-82945600D01*
X128738005Y-82945600D01*
X128738000Y-82945599D01*
X128290873Y-83034539D01*
X127911816Y-83287816D01*
X127911814Y-83287819D01*
X126681816Y-84517816D01*
X126428539Y-84896872D01*
X126339599Y-85344000D01*
X126339600Y-85344005D01*
X126339600Y-89440308D01*
X126149337Y-89898512D01*
X126148865Y-90439116D01*
X126339600Y-90900730D01*
X126339600Y-97060308D01*
X126149337Y-97518512D01*
X126148865Y-98059116D01*
X126339600Y-98520730D01*
X126339600Y-98805995D01*
X126339599Y-98806000D01*
X126428539Y-99253128D01*
X126681816Y-99632184D01*
X127697816Y-100648184D01*
X128076872Y-100901461D01*
X128524000Y-100990401D01*
X128524005Y-100990400D01*
X137250969Y-100990400D01*
X137488520Y-101228366D01*
X137575781Y-101264600D01*
X122735400Y-101264600D01*
X122735400Y-63500000D01*
X123258757Y-63500000D01*
X123374765Y-64083210D01*
X123705126Y-64577631D01*
X123993027Y-64770000D01*
X123705126Y-64962369D01*
X123374765Y-65456790D01*
X123258757Y-66040000D01*
X123374765Y-66623210D01*
X123705126Y-67117631D01*
X123993027Y-67310000D01*
X123705126Y-67502369D01*
X123374765Y-67996790D01*
X123258757Y-68580000D01*
X123374765Y-69163210D01*
X123705126Y-69657631D01*
X123993027Y-69850000D01*
X123705126Y-70042369D01*
X123374765Y-70536790D01*
X123258757Y-71120000D01*
X123374765Y-71703210D01*
X123705126Y-72197631D01*
X123993027Y-72390000D01*
X123705126Y-72582369D01*
X123374765Y-73076790D01*
X123258757Y-73660000D01*
X123374765Y-74243210D01*
X123705126Y-74737631D01*
X124199547Y-75067992D01*
X124782757Y-75184000D01*
X125153243Y-75184000D01*
X125736453Y-75067992D01*
X126230874Y-74737631D01*
X126561235Y-74243210D01*
X126677243Y-73660000D01*
X126561235Y-73076790D01*
X126230874Y-72582369D01*
X125942973Y-72390000D01*
X126230874Y-72197631D01*
X126561235Y-71703210D01*
X126677243Y-71120000D01*
X126561235Y-70536790D01*
X126230874Y-70042369D01*
X125942973Y-69850000D01*
X126230874Y-69657631D01*
X126561235Y-69163210D01*
X126677243Y-68580000D01*
X126561235Y-67996790D01*
X126230874Y-67502369D01*
X125942973Y-67310000D01*
X126230874Y-67117631D01*
X126561235Y-66623210D01*
X126677243Y-66040000D01*
X126561235Y-65456790D01*
X126230874Y-64962369D01*
X125942973Y-64770000D01*
X126230874Y-64577631D01*
X126561235Y-64083210D01*
X126677243Y-63500000D01*
X126561235Y-62916790D01*
X126243556Y-62441349D01*
X126453499Y-62306254D01*
X126604288Y-62085566D01*
X126657338Y-61823600D01*
X126657338Y-60096400D01*
X126611289Y-59851670D01*
X126466654Y-59626901D01*
X126245966Y-59476112D01*
X125984000Y-59423062D01*
X123952000Y-59423062D01*
X123707270Y-59469111D01*
X123482501Y-59613746D01*
X123331712Y-59834434D01*
X123278662Y-60096400D01*
X123278662Y-61823600D01*
X123324711Y-62068330D01*
X123469346Y-62293099D01*
X123690034Y-62443888D01*
X123690662Y-62444015D01*
X123374765Y-62916790D01*
X123258757Y-63500000D01*
X122735400Y-63500000D01*
X122735400Y-56286400D01*
X123177062Y-56286400D01*
X123177062Y-58521600D01*
X123223111Y-58766330D01*
X123367746Y-58991099D01*
X123588434Y-59141888D01*
X123850400Y-59194938D01*
X126085600Y-59194938D01*
X126330330Y-59148889D01*
X126555099Y-59004254D01*
X126705888Y-58783566D01*
X126758938Y-58521600D01*
X126758938Y-56286400D01*
X126712889Y-56041670D01*
X126568254Y-55816901D01*
X126347566Y-55666112D01*
X126085600Y-55613062D01*
X123850400Y-55613062D01*
X123605670Y-55659111D01*
X123380901Y-55803746D01*
X123230112Y-56024434D01*
X123177062Y-56286400D01*
X122735400Y-56286400D01*
X122735400Y-50190400D01*
X123177062Y-50190400D01*
X123177062Y-52425600D01*
X123223111Y-52670330D01*
X123367746Y-52895099D01*
X123588434Y-53045888D01*
X123850400Y-53098938D01*
X126085600Y-53098938D01*
X126330330Y-53052889D01*
X126555099Y-52908254D01*
X126705888Y-52687566D01*
X126758938Y-52425600D01*
X126758938Y-50190400D01*
X126712889Y-49945670D01*
X126568254Y-49720901D01*
X126347566Y-49570112D01*
X126085600Y-49517062D01*
X123850400Y-49517062D01*
X123605670Y-49563111D01*
X123380901Y-49707746D01*
X123230112Y-49928434D01*
X123177062Y-50190400D01*
X122735400Y-50190400D01*
X122735400Y-39444724D01*
X124577823Y-39444724D01*
X124829993Y-40055024D01*
X125296520Y-40522366D01*
X125906379Y-40775601D01*
X126566724Y-40776177D01*
X127177024Y-40524007D01*
X127644366Y-40057480D01*
X127897601Y-39447621D01*
X127898177Y-38787276D01*
X127646007Y-38176976D01*
X127179480Y-37709634D01*
X126569621Y-37456399D01*
X125909276Y-37455823D01*
X125298976Y-37707993D01*
X124831634Y-38174520D01*
X124578399Y-38784379D01*
X124577823Y-39444724D01*
X122735400Y-39444724D01*
X122735400Y-35374757D01*
X124714000Y-35374757D01*
X124714000Y-35745243D01*
X124830008Y-36328453D01*
X125160369Y-36822874D01*
X125654790Y-37153235D01*
X126238000Y-37269243D01*
X126821210Y-37153235D01*
X127315631Y-36822874D01*
X127508000Y-36534973D01*
X127700369Y-36822874D01*
X128194790Y-37153235D01*
X128778000Y-37269243D01*
X129361210Y-37153235D01*
X129836651Y-36835556D01*
X129971746Y-37045499D01*
X130192434Y-37196288D01*
X130454400Y-37249338D01*
X132181600Y-37249338D01*
X132426330Y-37203289D01*
X132651099Y-37058654D01*
X132801888Y-36837966D01*
X132854938Y-36576000D01*
X132854938Y-34544000D01*
X132808889Y-34299270D01*
X132664254Y-34074501D01*
X132443566Y-33923712D01*
X132181600Y-33870662D01*
X130454400Y-33870662D01*
X130209670Y-33916711D01*
X129984901Y-34061346D01*
X129834112Y-34282034D01*
X129833985Y-34282662D01*
X129361210Y-33966765D01*
X128778000Y-33850757D01*
X128194790Y-33966765D01*
X127700369Y-34297126D01*
X127508000Y-34585027D01*
X127315631Y-34297126D01*
X126821210Y-33966765D01*
X126238000Y-33850757D01*
X125654790Y-33966765D01*
X125160369Y-34297126D01*
X124830008Y-34791547D01*
X124714000Y-35374757D01*
X122735400Y-35374757D01*
X122735400Y-33735400D01*
X177264600Y-33735400D01*
X177264600Y-90308743D01*
X177264600Y-90308743D01*
G37*
X177264600Y-90308743D02*
X171137600Y-90308743D01*
X171137600Y-101264600D01*
X139285302Y-101264600D01*
X139369024Y-101230007D01*
X139836366Y-100763480D01*
X140089601Y-100153621D01*
X140090177Y-99493276D01*
X139838007Y-98882976D01*
X139371480Y-98415634D01*
X139088186Y-98298000D01*
X142836662Y-98298000D01*
X142836662Y-100330000D01*
X142882711Y-100574730D01*
X143027346Y-100799499D01*
X143248034Y-100950288D01*
X143510000Y-101003338D01*
X145542000Y-101003338D01*
X145786730Y-100957289D01*
X146011499Y-100812654D01*
X146107266Y-100672494D01*
X146164641Y-100727467D01*
X146703886Y-100950823D01*
X146964400Y-100821881D01*
X146964400Y-99415600D01*
X147167600Y-99415600D01*
X147167600Y-100821881D01*
X147428114Y-100950823D01*
X147967359Y-100727467D01*
X148439658Y-100274938D01*
X148702830Y-99676115D01*
X148574225Y-99415600D01*
X147167600Y-99415600D01*
X146964400Y-99415600D01*
X146944400Y-99415600D01*
X146944400Y-99212400D01*
X146964400Y-99212400D01*
X146964400Y-97806119D01*
X147167600Y-97806119D01*
X147167600Y-99212400D01*
X148574225Y-99212400D01*
X148702830Y-98951885D01*
X148439658Y-98353062D01*
X148382191Y-98298000D01*
X155943062Y-98298000D01*
X155943062Y-100330000D01*
X155989111Y-100574730D01*
X156133746Y-100799499D01*
X156354434Y-100950288D01*
X156616400Y-101003338D01*
X158343600Y-101003338D01*
X158588330Y-100957289D01*
X158813099Y-100812654D01*
X158963888Y-100591966D01*
X158964015Y-100591338D01*
X159436790Y-100907235D01*
X160020000Y-101023243D01*
X160603210Y-100907235D01*
X161097631Y-100576874D01*
X161290000Y-100288973D01*
X161482369Y-100576874D01*
X161976790Y-100907235D01*
X162560000Y-101023243D01*
X163143210Y-100907235D01*
X163637631Y-100576874D01*
X163967992Y-100082453D01*
X164084000Y-99499243D01*
X164084000Y-99128757D01*
X163967992Y-98545547D01*
X163637631Y-98051126D01*
X163143210Y-97720765D01*
X162560000Y-97604757D01*
X161976790Y-97720765D01*
X161482369Y-98051126D01*
X161290000Y-98339027D01*
X161097631Y-98051126D01*
X160603210Y-97720765D01*
X160020000Y-97604757D01*
X159436790Y-97720765D01*
X158961349Y-98038444D01*
X158826254Y-97828501D01*
X158605566Y-97677712D01*
X158343600Y-97624662D01*
X156616400Y-97624662D01*
X156371670Y-97670711D01*
X156146901Y-97815346D01*
X155996112Y-98036034D01*
X155943062Y-98298000D01*
X148382191Y-98298000D01*
X147967359Y-97900533D01*
X147428114Y-97677177D01*
X147167600Y-97806119D01*
X146964400Y-97806119D01*
X146703886Y-97677177D01*
X146164641Y-97900533D01*
X146106718Y-97956032D01*
X146024654Y-97828501D01*
X145803966Y-97677712D01*
X145542000Y-97624662D01*
X143510000Y-97624662D01*
X143265270Y-97670711D01*
X143040501Y-97815346D01*
X142889712Y-98036034D01*
X142836662Y-98298000D01*
X139088186Y-98298000D01*
X138761621Y-98162399D01*
X138101276Y-98161823D01*
X137490976Y-98413993D01*
X137250950Y-98653600D01*
X133595287Y-98653600D01*
X133519817Y-98578130D01*
X133765612Y-98520001D01*
X133955331Y-98013779D01*
X133936885Y-97473491D01*
X133765612Y-97059999D01*
X133519815Y-97001869D01*
X132731684Y-97790000D01*
X132745827Y-97804143D01*
X132602143Y-97947827D01*
X132588000Y-97933684D01*
X132573858Y-97947827D01*
X132430174Y-97804143D01*
X132444316Y-97790000D01*
X131656185Y-97001869D01*
X131410388Y-97059999D01*
X131220669Y-97566221D01*
X131239115Y-98106509D01*
X131410388Y-98520001D01*
X131656183Y-98578130D01*
X131580713Y-98653600D01*
X129007968Y-98653600D01*
X128734394Y-98380026D01*
X128866663Y-98061488D01*
X128867135Y-97520884D01*
X128676400Y-97059270D01*
X128676400Y-96858185D01*
X131799869Y-96858185D01*
X132588000Y-97646316D01*
X133376131Y-96858185D01*
X133318001Y-96612388D01*
X132811779Y-96422669D01*
X132271491Y-96441115D01*
X131857999Y-96612388D01*
X131799869Y-96858185D01*
X128676400Y-96858185D01*
X128676400Y-95832724D01*
X142865823Y-95832724D01*
X143117993Y-96443024D01*
X143584520Y-96910366D01*
X144194379Y-97163601D01*
X144854724Y-97164177D01*
X145465024Y-96912007D01*
X145932366Y-96445480D01*
X146185601Y-95835621D01*
X146186177Y-95175276D01*
X145934007Y-94564976D01*
X145467480Y-94097634D01*
X144882735Y-93854827D01*
X144890623Y-93854663D01*
X145436783Y-93628437D01*
X145531736Y-93351420D01*
X144526000Y-92345684D01*
X143520264Y-93351420D01*
X143615217Y-93628437D01*
X144182776Y-93849814D01*
X143586976Y-94095993D01*
X143119634Y-94562520D01*
X142866399Y-95172379D01*
X142865823Y-95832724D01*
X128676400Y-95832724D01*
X128676400Y-91101815D01*
X131799869Y-91101815D01*
X131857999Y-91347612D01*
X132364221Y-91537331D01*
X132904509Y-91518885D01*
X133318001Y-91347612D01*
X133376131Y-91101815D01*
X132588000Y-90313684D01*
X131799869Y-91101815D01*
X128676400Y-91101815D01*
X128676400Y-90899692D01*
X128866663Y-90441488D01*
X128867095Y-89946221D01*
X131220669Y-89946221D01*
X131239115Y-90486509D01*
X131410388Y-90900001D01*
X131656185Y-90958131D01*
X132444316Y-90170000D01*
X132731684Y-90170000D01*
X133519815Y-90958131D01*
X133765612Y-90900001D01*
X133955331Y-90393779D01*
X133936885Y-89853491D01*
X133765612Y-89439999D01*
X133519815Y-89381869D01*
X132731684Y-90170000D01*
X132444316Y-90170000D01*
X131656185Y-89381869D01*
X131410388Y-89439999D01*
X131220669Y-89946221D01*
X128867095Y-89946221D01*
X128867135Y-89900884D01*
X128676400Y-89439270D01*
X128676400Y-89238185D01*
X131799869Y-89238185D01*
X132588000Y-90026316D01*
X133376131Y-89238185D01*
X133318001Y-88992388D01*
X132811779Y-88802669D01*
X132271491Y-88821115D01*
X131857999Y-88992388D01*
X131799869Y-89238185D01*
X128676400Y-89238185D01*
X128676400Y-86880700D01*
X131277600Y-86880700D01*
X131277600Y-87395362D01*
X131378140Y-87638087D01*
X131563914Y-87823860D01*
X131806639Y-87924400D01*
X132321300Y-87924400D01*
X132486400Y-87759300D01*
X132486400Y-86715600D01*
X132689600Y-86715600D01*
X132689600Y-87759300D01*
X132854700Y-87924400D01*
X133369361Y-87924400D01*
X133612086Y-87823860D01*
X133797860Y-87638087D01*
X133898400Y-87395362D01*
X133898400Y-86952226D01*
X137705998Y-86952226D01*
X137948547Y-87495148D01*
X138380400Y-87903923D01*
X138853775Y-88099995D01*
X139090400Y-87969097D01*
X139090400Y-86715600D01*
X137836483Y-86715600D01*
X137705998Y-86952226D01*
X133898400Y-86952226D01*
X133898400Y-86880700D01*
X133733300Y-86715600D01*
X132689600Y-86715600D01*
X132486400Y-86715600D01*
X131442700Y-86715600D01*
X131277600Y-86880700D01*
X128676400Y-86880700D01*
X128676400Y-85827968D01*
X129221967Y-85282400D01*
X131984778Y-85282400D01*
X132035833Y-85303600D01*
X131806639Y-85303600D01*
X131563914Y-85404140D01*
X131378140Y-85589913D01*
X131277600Y-85832638D01*
X131277600Y-86347300D01*
X131442700Y-86512400D01*
X132486400Y-86512400D01*
X132486400Y-86492400D01*
X132689600Y-86492400D01*
X132689600Y-86512400D01*
X133733300Y-86512400D01*
X133898400Y-86347300D01*
X133898400Y-85832638D01*
X133797860Y-85589913D01*
X133612086Y-85404140D01*
X133369361Y-85303600D01*
X133140419Y-85303600D01*
X133288534Y-85242400D01*
X138205530Y-85242400D01*
X138358621Y-85344692D01*
X137948547Y-85732852D01*
X137705998Y-86275774D01*
X137836483Y-86512400D01*
X139090400Y-86512400D01*
X139090400Y-86492400D01*
X139293600Y-86492400D01*
X139293600Y-86512400D01*
X139313600Y-86512400D01*
X139313600Y-86715600D01*
X139293600Y-86715600D01*
X139293600Y-87969097D01*
X139530225Y-88099995D01*
X140003600Y-87903923D01*
X140435453Y-87495148D01*
X140462572Y-87434444D01*
X140563600Y-87585642D01*
X140563600Y-88162032D01*
X140232032Y-88493600D01*
X137552769Y-88493600D01*
X137171135Y-88335131D01*
X136643182Y-88334671D01*
X136155241Y-88536284D01*
X135781596Y-88909277D01*
X135579131Y-89396865D01*
X135578671Y-89924818D01*
X135780284Y-90412759D01*
X136153277Y-90786404D01*
X136640865Y-90988869D01*
X137168818Y-90989329D01*
X137384623Y-90900160D01*
X137023634Y-91260520D01*
X136770399Y-91870379D01*
X136769823Y-92530724D01*
X137021993Y-93141024D01*
X137488520Y-93608366D01*
X138098379Y-93861601D01*
X138758724Y-93862177D01*
X139369024Y-93610007D01*
X139609050Y-93370400D01*
X140969995Y-93370400D01*
X140970000Y-93370401D01*
X141417128Y-93281461D01*
X141796184Y-93028184D01*
X142860791Y-91963577D01*
X142873337Y-92566623D01*
X143099563Y-93112783D01*
X143376580Y-93207736D01*
X144382316Y-92202000D01*
X144669684Y-92202000D01*
X145675420Y-93207736D01*
X145952437Y-93112783D01*
X146179469Y-92530724D01*
X150485823Y-92530724D01*
X150737993Y-93141024D01*
X151204520Y-93608366D01*
X151794364Y-93853290D01*
X151206976Y-94095993D01*
X150739634Y-94562520D01*
X150486399Y-95172379D01*
X150485823Y-95832724D01*
X150737993Y-96443024D01*
X151204520Y-96910366D01*
X151814379Y-97163601D01*
X152474724Y-97164177D01*
X153085024Y-96912007D01*
X153552366Y-96445480D01*
X153805601Y-95835621D01*
X153806177Y-95175276D01*
X153658027Y-94816724D01*
X156835823Y-94816724D01*
X157087993Y-95427024D01*
X157554520Y-95894366D01*
X158164379Y-96147601D01*
X158824724Y-96148177D01*
X159435024Y-95896007D01*
X159902366Y-95429480D01*
X160155601Y-94819621D01*
X160155603Y-94816724D01*
X164455823Y-94816724D01*
X164707993Y-95427024D01*
X165174520Y-95894366D01*
X165784379Y-96147601D01*
X166444724Y-96148177D01*
X167055024Y-95896007D01*
X167522366Y-95429480D01*
X167775601Y-94819621D01*
X167776177Y-94159276D01*
X167524007Y-93548976D01*
X167057480Y-93081634D01*
X166447621Y-92828399D01*
X165787276Y-92827823D01*
X165176976Y-93079993D01*
X164709634Y-93546520D01*
X164456399Y-94156379D01*
X164455823Y-94816724D01*
X160155603Y-94816724D01*
X160156177Y-94159276D01*
X159904007Y-93548976D01*
X159437480Y-93081634D01*
X158827621Y-92828399D01*
X158167276Y-92827823D01*
X157556976Y-93079993D01*
X157089634Y-93546520D01*
X156836399Y-94156379D01*
X156835823Y-94816724D01*
X153658027Y-94816724D01*
X153554007Y-94564976D01*
X153087480Y-94097634D01*
X152497636Y-93852710D01*
X153085024Y-93610007D01*
X153552366Y-93143480D01*
X153805601Y-92533621D01*
X153806177Y-91873276D01*
X153554007Y-91262976D01*
X153087480Y-90795634D01*
X152477621Y-90542399D01*
X151817276Y-90541823D01*
X151206976Y-90793993D01*
X150739634Y-91260520D01*
X150486399Y-91870379D01*
X150485823Y-92530724D01*
X146179469Y-92530724D01*
X146192398Y-92497579D01*
X146178663Y-91837377D01*
X145952437Y-91291217D01*
X145675420Y-91196264D01*
X144669684Y-92202000D01*
X144382316Y-92202000D01*
X144368174Y-92187858D01*
X144511858Y-92044174D01*
X144526000Y-92058316D01*
X145531736Y-91052580D01*
X145436783Y-90775563D01*
X144821579Y-90535602D01*
X144277445Y-90546922D01*
X145098181Y-89726186D01*
X145098184Y-89726184D01*
X145315297Y-89401251D01*
X145351461Y-89347128D01*
X145440400Y-88900000D01*
X145440400Y-87782400D01*
X146151600Y-87782400D01*
X146151600Y-88137995D01*
X146151599Y-88138000D01*
X146240539Y-88585128D01*
X146493816Y-88964184D01*
X147001814Y-89472181D01*
X147001816Y-89472184D01*
X147380873Y-89725461D01*
X147828000Y-89814400D01*
X155193995Y-89814400D01*
X155194000Y-89814401D01*
X155561237Y-89741352D01*
X155311634Y-89990520D01*
X155058399Y-90600379D01*
X155057823Y-91260724D01*
X155309993Y-91871024D01*
X155776520Y-92338366D01*
X156386379Y-92591601D01*
X157046724Y-92592177D01*
X157657024Y-92340007D01*
X158124366Y-91873480D01*
X158377601Y-91263621D01*
X158377603Y-91260724D01*
X162677823Y-91260724D01*
X162929993Y-91871024D01*
X163396520Y-92338366D01*
X164006379Y-92591601D01*
X164666724Y-92592177D01*
X165277024Y-92340007D01*
X165744366Y-91873480D01*
X165997601Y-91263621D01*
X165998177Y-90603276D01*
X165746007Y-89992976D01*
X165279480Y-89525634D01*
X164669621Y-89272399D01*
X164009276Y-89271823D01*
X163398976Y-89523993D01*
X162931634Y-89990520D01*
X162678399Y-90600379D01*
X162677823Y-91260724D01*
X158377603Y-91260724D01*
X158378177Y-90603276D01*
X158126007Y-89992976D01*
X157659480Y-89525634D01*
X157049621Y-89272399D01*
X156389276Y-89271823D01*
X156101736Y-89390632D01*
X157692552Y-87799815D01*
X161263869Y-87799815D01*
X161321999Y-88045612D01*
X161828221Y-88235331D01*
X162368509Y-88216885D01*
X162782001Y-88045612D01*
X162840131Y-87799815D01*
X168883869Y-87799815D01*
X168941999Y-88045612D01*
X169448221Y-88235331D01*
X169988509Y-88216885D01*
X170402001Y-88045612D01*
X170460131Y-87799815D01*
X169672000Y-87011684D01*
X168883869Y-87799815D01*
X162840131Y-87799815D01*
X162052000Y-87011684D01*
X161263869Y-87799815D01*
X157692552Y-87799815D01*
X157798181Y-87694186D01*
X157798184Y-87694184D01*
X158051461Y-87315127D01*
X158065710Y-87243494D01*
X158140401Y-86868000D01*
X158140400Y-86867995D01*
X158140400Y-86644221D01*
X160684669Y-86644221D01*
X160703115Y-87184509D01*
X160874388Y-87598001D01*
X161120185Y-87656131D01*
X161908316Y-86868000D01*
X162195684Y-86868000D01*
X162983815Y-87656131D01*
X163229612Y-87598001D01*
X163419331Y-87091779D01*
X163404051Y-86644221D01*
X168304669Y-86644221D01*
X168323115Y-87184509D01*
X168494388Y-87598001D01*
X168740185Y-87656131D01*
X169528316Y-86868000D01*
X169815684Y-86868000D01*
X170603815Y-87656131D01*
X170849612Y-87598001D01*
X171039331Y-87091779D01*
X171020885Y-86551491D01*
X170849612Y-86137999D01*
X170603815Y-86079869D01*
X169815684Y-86868000D01*
X169528316Y-86868000D01*
X168740185Y-86079869D01*
X168494388Y-86137999D01*
X168304669Y-86644221D01*
X163404051Y-86644221D01*
X163400885Y-86551491D01*
X163229612Y-86137999D01*
X162983815Y-86079869D01*
X162195684Y-86868000D01*
X161908316Y-86868000D01*
X161120185Y-86079869D01*
X160874388Y-86137999D01*
X160684669Y-86644221D01*
X158140400Y-86644221D01*
X158140400Y-85936185D01*
X161263869Y-85936185D01*
X162052000Y-86724316D01*
X162840131Y-85936185D01*
X168883869Y-85936185D01*
X169672000Y-86724316D01*
X170460131Y-85936185D01*
X170402001Y-85690388D01*
X169895779Y-85500669D01*
X169355491Y-85519115D01*
X168941999Y-85690388D01*
X168883869Y-85936185D01*
X162840131Y-85936185D01*
X162782001Y-85690388D01*
X162275779Y-85500669D01*
X161735491Y-85519115D01*
X161321999Y-85690388D01*
X161263869Y-85936185D01*
X158140400Y-85936185D01*
X158140400Y-85643085D01*
X158242288Y-85493966D01*
X158245375Y-85478722D01*
X158718962Y-85478722D01*
X158771147Y-85719494D01*
X159259797Y-85901113D01*
X159780752Y-85881908D01*
X160172853Y-85719494D01*
X160225038Y-85478722D01*
X159472000Y-84725684D01*
X158718962Y-85478722D01*
X158245375Y-85478722D01*
X158295338Y-85232000D01*
X158295338Y-85188293D01*
X158334506Y-85282853D01*
X158575278Y-85335038D01*
X159328316Y-84582000D01*
X159615684Y-84582000D01*
X160368722Y-85335038D01*
X160609494Y-85282853D01*
X160791113Y-84794203D01*
X160771908Y-84273248D01*
X160609494Y-83881147D01*
X160368722Y-83828962D01*
X159615684Y-84582000D01*
X159328316Y-84582000D01*
X158575278Y-83828962D01*
X158334506Y-83881147D01*
X158295338Y-83986529D01*
X158295338Y-83932000D01*
X158249289Y-83687270D01*
X158248008Y-83685278D01*
X158718962Y-83685278D01*
X159472000Y-84438316D01*
X160225038Y-83685278D01*
X160172853Y-83444506D01*
X159684203Y-83262887D01*
X159163248Y-83282092D01*
X158771147Y-83444506D01*
X158718962Y-83685278D01*
X158248008Y-83685278D01*
X158104654Y-83462501D01*
X157883966Y-83311712D01*
X157622000Y-83258662D01*
X156322000Y-83258662D01*
X156077270Y-83304711D01*
X155852501Y-83449346D01*
X155701712Y-83670034D01*
X155648662Y-83932000D01*
X155648662Y-85232000D01*
X155694711Y-85476730D01*
X155803600Y-85645948D01*
X155803600Y-86384033D01*
X154710032Y-87477600D01*
X148488400Y-87477600D01*
X148488400Y-87260769D01*
X148591018Y-87013639D01*
X148727346Y-87225499D01*
X148948034Y-87376288D01*
X149210000Y-87429338D01*
X150510000Y-87429338D01*
X150754730Y-87383289D01*
X150979499Y-87238654D01*
X151130288Y-87017966D01*
X151133375Y-87002722D01*
X151606962Y-87002722D01*
X151659147Y-87243494D01*
X152147797Y-87425113D01*
X152668752Y-87405908D01*
X153060853Y-87243494D01*
X153113038Y-87002722D01*
X152360000Y-86249684D01*
X151606962Y-87002722D01*
X151133375Y-87002722D01*
X151183338Y-86756000D01*
X151183338Y-86712293D01*
X151222506Y-86806853D01*
X151463278Y-86859038D01*
X152216316Y-86106000D01*
X152503684Y-86106000D01*
X153256722Y-86859038D01*
X153497494Y-86806853D01*
X153679113Y-86318203D01*
X153659908Y-85797248D01*
X153497494Y-85405147D01*
X153256722Y-85352962D01*
X152503684Y-86106000D01*
X152216316Y-86106000D01*
X151463278Y-85352962D01*
X151222506Y-85405147D01*
X151183338Y-85510529D01*
X151183338Y-85456000D01*
X151137289Y-85211270D01*
X151136008Y-85209278D01*
X151606962Y-85209278D01*
X152360000Y-85962316D01*
X153113038Y-85209278D01*
X153060853Y-84968506D01*
X152572203Y-84786887D01*
X152051248Y-84806092D01*
X151659147Y-84968506D01*
X151606962Y-85209278D01*
X151136008Y-85209278D01*
X150992654Y-84986501D01*
X150771966Y-84835712D01*
X150510000Y-84782662D01*
X149210000Y-84782662D01*
X148965270Y-84828711D01*
X148740501Y-84973346D01*
X148589712Y-85194034D01*
X148536662Y-85456000D01*
X148536662Y-86083347D01*
X148445716Y-85863241D01*
X148072723Y-85489596D01*
X147585135Y-85287131D01*
X147057182Y-85286671D01*
X146672544Y-85445600D01*
X145565710Y-85445600D01*
X145605099Y-85420254D01*
X145755888Y-85199566D01*
X145808938Y-84937600D01*
X145808938Y-83210400D01*
X145762889Y-82965670D01*
X145618254Y-82740901D01*
X145440400Y-82619379D01*
X145440400Y-82042005D01*
X145440401Y-82042000D01*
X145351461Y-81594872D01*
X145098184Y-81215816D01*
X144539517Y-80657149D01*
X144381716Y-80275241D01*
X144008723Y-79901596D01*
X143521135Y-79699131D01*
X143058929Y-79698728D01*
X143059329Y-79239182D01*
X142979012Y-79044800D01*
X149495869Y-79044800D01*
X149287816Y-79183816D01*
X149287814Y-79183819D01*
X148017816Y-80453816D01*
X147764539Y-80832872D01*
X147675599Y-81280000D01*
X147675600Y-81280005D01*
X147675600Y-81903231D01*
X147517131Y-82284865D01*
X147516671Y-82812818D01*
X147718284Y-83300759D01*
X148091277Y-83674404D01*
X148578865Y-83876869D01*
X149106818Y-83877329D01*
X149594759Y-83675716D01*
X149968404Y-83302723D01*
X150170869Y-82815135D01*
X150171329Y-82287182D01*
X150012400Y-81902544D01*
X150012400Y-81763968D01*
X150597967Y-81178400D01*
X155955995Y-81178400D01*
X155956000Y-81178401D01*
X156403128Y-81089461D01*
X156782184Y-80836184D01*
X158814184Y-78804184D01*
X158851600Y-78748187D01*
X158851600Y-81025995D01*
X158851599Y-81026000D01*
X158940539Y-81473128D01*
X159193816Y-81852184D01*
X159955814Y-82614181D01*
X159955816Y-82614184D01*
X160334873Y-82867461D01*
X160782000Y-82956401D01*
X160782005Y-82956400D01*
X161322308Y-82956400D01*
X161780512Y-83146663D01*
X162321116Y-83147135D01*
X162782730Y-82956400D01*
X168942308Y-82956400D01*
X169400512Y-83146663D01*
X169941116Y-83147135D01*
X170440749Y-82940691D01*
X170823347Y-82558760D01*
X171030663Y-82059488D01*
X171031135Y-81518884D01*
X170824691Y-81019251D01*
X170442760Y-80636653D01*
X169943488Y-80429337D01*
X169402884Y-80428865D01*
X168941270Y-80619600D01*
X162781692Y-80619600D01*
X162323488Y-80429337D01*
X161782884Y-80428865D01*
X161321270Y-80619600D01*
X161265967Y-80619600D01*
X161188400Y-80542032D01*
X161188400Y-71628000D01*
X172788757Y-71628000D01*
X172904765Y-72211210D01*
X173235126Y-72705631D01*
X173523027Y-72898000D01*
X173235126Y-73090369D01*
X172904765Y-73584790D01*
X172788757Y-74168000D01*
X172904765Y-74751210D01*
X173235126Y-75245631D01*
X173523027Y-75438000D01*
X173235126Y-75630369D01*
X172904765Y-76124790D01*
X172788757Y-76708000D01*
X172904765Y-77291210D01*
X173235126Y-77785631D01*
X173523027Y-77978000D01*
X173235126Y-78170369D01*
X172904765Y-78664790D01*
X172788757Y-79248000D01*
X172904765Y-79831210D01*
X173222444Y-80306651D01*
X173012501Y-80441746D01*
X172861712Y-80662434D01*
X172808662Y-80924400D01*
X172808662Y-82651600D01*
X172854711Y-82896330D01*
X172999346Y-83121099D01*
X173220034Y-83271888D01*
X173482000Y-83324938D01*
X175514000Y-83324938D01*
X175758730Y-83278889D01*
X175983499Y-83134254D01*
X176134288Y-82913566D01*
X176187338Y-82651600D01*
X176187338Y-80924400D01*
X176141289Y-80679670D01*
X175996654Y-80454901D01*
X175775966Y-80304112D01*
X175775338Y-80303985D01*
X176091235Y-79831210D01*
X176207243Y-79248000D01*
X176091235Y-78664790D01*
X175760874Y-78170369D01*
X175472973Y-77978000D01*
X175760874Y-77785631D01*
X176091235Y-77291210D01*
X176207243Y-76708000D01*
X176091235Y-76124790D01*
X175760874Y-75630369D01*
X175472973Y-75438000D01*
X175760874Y-75245631D01*
X176091235Y-74751210D01*
X176207243Y-74168000D01*
X176091235Y-73584790D01*
X175760874Y-73090369D01*
X175472973Y-72898000D01*
X175760874Y-72705631D01*
X176091235Y-72211210D01*
X176207243Y-71628000D01*
X176091235Y-71044790D01*
X175760874Y-70550369D01*
X175471669Y-70357129D01*
X175854848Y-70025875D01*
X176122074Y-69493561D01*
X176136395Y-69426225D01*
X176005497Y-69189600D01*
X174599600Y-69189600D01*
X174599600Y-69209600D01*
X174396400Y-69209600D01*
X174396400Y-69189600D01*
X172990503Y-69189600D01*
X172859605Y-69426225D01*
X172873926Y-69493561D01*
X173141152Y-70025875D01*
X173524331Y-70357129D01*
X173235126Y-70550369D01*
X172904765Y-71044790D01*
X172788757Y-71628000D01*
X161188400Y-71628000D01*
X161188400Y-69088000D01*
X161121123Y-68749775D01*
X172859605Y-68749775D01*
X172990503Y-68986400D01*
X174396400Y-68986400D01*
X174396400Y-67727411D01*
X174599600Y-67727411D01*
X174599600Y-68986400D01*
X176005497Y-68986400D01*
X176136395Y-68749775D01*
X176122074Y-68682439D01*
X175854848Y-68150125D01*
X175404256Y-67760594D01*
X174838896Y-67573148D01*
X174599600Y-67727411D01*
X174396400Y-67727411D01*
X174157104Y-67573148D01*
X173591744Y-67760594D01*
X173141152Y-68150125D01*
X172873926Y-68682439D01*
X172859605Y-68749775D01*
X161121123Y-68749775D01*
X161099461Y-68640873D01*
X160846184Y-68261816D01*
X160846181Y-68261814D01*
X160438858Y-67854491D01*
X160750001Y-67725612D01*
X160808131Y-67479815D01*
X166851869Y-67479815D01*
X166909999Y-67725612D01*
X167416221Y-67915331D01*
X167956509Y-67896885D01*
X168370001Y-67725612D01*
X168428131Y-67479815D01*
X167640000Y-66691684D01*
X166851869Y-67479815D01*
X160808131Y-67479815D01*
X160020000Y-66691684D01*
X160005858Y-66705827D01*
X159862174Y-66562143D01*
X159876316Y-66548000D01*
X160163684Y-66548000D01*
X160951815Y-67336131D01*
X161197612Y-67278001D01*
X161387331Y-66771779D01*
X161372051Y-66324221D01*
X166272669Y-66324221D01*
X166291115Y-66864509D01*
X166462388Y-67278001D01*
X166708185Y-67336131D01*
X167496316Y-66548000D01*
X167783684Y-66548000D01*
X168571815Y-67336131D01*
X168817612Y-67278001D01*
X169007331Y-66771779D01*
X168988885Y-66231491D01*
X168817612Y-65817999D01*
X168571815Y-65759869D01*
X167783684Y-66548000D01*
X167496316Y-66548000D01*
X166708185Y-65759869D01*
X166462388Y-65817999D01*
X166272669Y-66324221D01*
X161372051Y-66324221D01*
X161368885Y-66231491D01*
X161197612Y-65817999D01*
X160951815Y-65759869D01*
X160163684Y-66548000D01*
X159876316Y-66548000D01*
X159088185Y-65759869D01*
X158842388Y-65817999D01*
X158722435Y-66138067D01*
X158306184Y-65721816D01*
X158148096Y-65616185D01*
X159231869Y-65616185D01*
X160020000Y-66404316D01*
X160808131Y-65616185D01*
X166851869Y-65616185D01*
X167640000Y-66404316D01*
X168428131Y-65616185D01*
X168370001Y-65370388D01*
X167863779Y-65180669D01*
X167323491Y-65199115D01*
X166909999Y-65370388D01*
X166851869Y-65616185D01*
X160808131Y-65616185D01*
X160750001Y-65370388D01*
X160243779Y-65180669D01*
X159703491Y-65199115D01*
X159289999Y-65370388D01*
X159231869Y-65616185D01*
X158148096Y-65616185D01*
X157927128Y-65468539D01*
X157480000Y-65379599D01*
X157479995Y-65379600D01*
X153808769Y-65379600D01*
X153427135Y-65221131D01*
X152899182Y-65220671D01*
X152411241Y-65422284D01*
X152037596Y-65795277D01*
X151835131Y-66282865D01*
X151834671Y-66810818D01*
X152036284Y-67298759D01*
X152148928Y-67411600D01*
X137389967Y-67411600D01*
X136804400Y-66826032D01*
X136804400Y-66048818D01*
X141928671Y-66048818D01*
X142130284Y-66536759D01*
X142503277Y-66910404D01*
X142990865Y-67112869D01*
X143518818Y-67113329D01*
X144006759Y-66911716D01*
X144380404Y-66538723D01*
X144582869Y-66051135D01*
X144583329Y-65523182D01*
X144424400Y-65138544D01*
X144424400Y-62205968D01*
X144938022Y-61692346D01*
X144881599Y-61976000D01*
X144881600Y-61976005D01*
X144881600Y-64377231D01*
X144723131Y-64758865D01*
X144722671Y-65286818D01*
X144924284Y-65774759D01*
X145297277Y-66148404D01*
X145784865Y-66350869D01*
X146312818Y-66351329D01*
X146800759Y-66149716D01*
X147174404Y-65776723D01*
X147376869Y-65289135D01*
X147377329Y-64761182D01*
X147218400Y-64376544D01*
X147218400Y-62492818D01*
X150056671Y-62492818D01*
X150258284Y-62980759D01*
X150631277Y-63354404D01*
X151118865Y-63556869D01*
X151646818Y-63557329D01*
X152134759Y-63355716D01*
X152508404Y-62982723D01*
X152652210Y-62636400D01*
X159290308Y-62636400D01*
X159748512Y-62826663D01*
X160289116Y-62827135D01*
X160750730Y-62636400D01*
X166910308Y-62636400D01*
X167368512Y-62826663D01*
X167909116Y-62827135D01*
X168408749Y-62620691D01*
X168791347Y-62238760D01*
X168794984Y-62230000D01*
X172788757Y-62230000D01*
X172904765Y-62813210D01*
X173235126Y-63307631D01*
X173729547Y-63637992D01*
X174312757Y-63754000D01*
X174683243Y-63754000D01*
X175266453Y-63637992D01*
X175760874Y-63307631D01*
X176091235Y-62813210D01*
X176207243Y-62230000D01*
X176091235Y-61646790D01*
X175760874Y-61152369D01*
X175471669Y-60959129D01*
X175854848Y-60627875D01*
X176122074Y-60095561D01*
X176136395Y-60028225D01*
X176005497Y-59791600D01*
X174599600Y-59791600D01*
X174599600Y-59811600D01*
X174396400Y-59811600D01*
X174396400Y-59791600D01*
X172990503Y-59791600D01*
X172859605Y-60028225D01*
X172873926Y-60095561D01*
X173141152Y-60627875D01*
X173524331Y-60959129D01*
X173235126Y-61152369D01*
X172904765Y-61646790D01*
X172788757Y-62230000D01*
X168794984Y-62230000D01*
X168998663Y-61739488D01*
X168999135Y-61198884D01*
X168792691Y-60699251D01*
X168410760Y-60316653D01*
X167911488Y-60109337D01*
X167370884Y-60108865D01*
X166909270Y-60299600D01*
X160749692Y-60299600D01*
X160291488Y-60109337D01*
X159750884Y-60108865D01*
X159289270Y-60299600D01*
X152146005Y-60299600D01*
X152146000Y-60299599D01*
X151698873Y-60388539D01*
X151319816Y-60641816D01*
X151319814Y-60641819D01*
X151015150Y-60946482D01*
X150633241Y-61104284D01*
X150259596Y-61477277D01*
X150057131Y-61964865D01*
X150056671Y-62492818D01*
X147218400Y-62492818D01*
X147218400Y-62459968D01*
X147803967Y-61874400D01*
X149097995Y-61874400D01*
X149098000Y-61874401D01*
X149545128Y-61785461D01*
X149924184Y-61532184D01*
X150333121Y-61123246D01*
X150333124Y-61123244D01*
X150586401Y-60744187D01*
X150675340Y-60297060D01*
X150675340Y-60138884D01*
X150680659Y-60135330D01*
X151040478Y-59596823D01*
X151166830Y-58961611D01*
X151166830Y-58386389D01*
X151040478Y-57751177D01*
X150988693Y-57673675D01*
X151702181Y-56960186D01*
X151702184Y-56960184D01*
X151891484Y-56676876D01*
X151955461Y-56581128D01*
X152044400Y-56134000D01*
X152044400Y-54909085D01*
X152146288Y-54759966D01*
X152199338Y-54498000D01*
X152199338Y-53198000D01*
X152153289Y-52953270D01*
X152008654Y-52728501D01*
X151787966Y-52577712D01*
X151526000Y-52524662D01*
X151482293Y-52524662D01*
X151576853Y-52485494D01*
X151629038Y-52244722D01*
X150876000Y-51491684D01*
X150122962Y-52244722D01*
X150175147Y-52485494D01*
X150280529Y-52524662D01*
X150226000Y-52524662D01*
X149981270Y-52570711D01*
X149756501Y-52715346D01*
X149605712Y-52936034D01*
X149552662Y-53198000D01*
X149552662Y-54498000D01*
X149598711Y-54742730D01*
X149707600Y-54911948D01*
X149707600Y-55650033D01*
X148680756Y-56676876D01*
X148427479Y-57055932D01*
X148405971Y-57164060D01*
X148333221Y-57212670D01*
X147973402Y-57751177D01*
X147847050Y-58386389D01*
X147847050Y-58961611D01*
X147961622Y-59537600D01*
X147320000Y-59537600D01*
X146872872Y-59626539D01*
X146753409Y-59706362D01*
X146493816Y-59879816D01*
X146493814Y-59879819D01*
X145737038Y-60636595D01*
X145793460Y-60352940D01*
X145793460Y-60138884D01*
X145798779Y-60135330D01*
X146158598Y-59596823D01*
X146284950Y-58961611D01*
X146284950Y-58386389D01*
X146158598Y-57751177D01*
X145798779Y-57212670D01*
X145726029Y-57164060D01*
X145704521Y-57055932D01*
X145451244Y-56676876D01*
X144678400Y-55904032D01*
X144678400Y-54909085D01*
X144780288Y-54759966D01*
X144833338Y-54498000D01*
X144833338Y-53198000D01*
X144787289Y-52953270D01*
X144642654Y-52728501D01*
X144421966Y-52577712D01*
X144160000Y-52524662D01*
X144116293Y-52524662D01*
X144210853Y-52485494D01*
X144263038Y-52244722D01*
X143510000Y-51491684D01*
X142756962Y-52244722D01*
X142809147Y-52485494D01*
X142914529Y-52524662D01*
X142860000Y-52524662D01*
X142615270Y-52570711D01*
X142390501Y-52715346D01*
X142239712Y-52936034D01*
X142186662Y-53198000D01*
X142186662Y-54498000D01*
X142232711Y-54742730D01*
X142341600Y-54911948D01*
X142341600Y-56387995D01*
X142341599Y-56388000D01*
X142430539Y-56835128D01*
X142683816Y-57214184D01*
X143143307Y-57673675D01*
X143091522Y-57751177D01*
X142965170Y-58386389D01*
X142965170Y-58961611D01*
X143091522Y-59596823D01*
X143346784Y-59978849D01*
X142429816Y-60895816D01*
X142176539Y-61274872D01*
X142087599Y-61722000D01*
X142087600Y-61722005D01*
X142087600Y-65139231D01*
X141929131Y-65520865D01*
X141928671Y-66048818D01*
X136804400Y-66048818D01*
X136804400Y-51135797D01*
X142190887Y-51135797D01*
X142210092Y-51656752D01*
X142372506Y-52048853D01*
X142613278Y-52101038D01*
X143366316Y-51348000D01*
X143653684Y-51348000D01*
X144406722Y-52101038D01*
X144647494Y-52048853D01*
X144829113Y-51560203D01*
X144813468Y-51135797D01*
X149556887Y-51135797D01*
X149576092Y-51656752D01*
X149738506Y-52048853D01*
X149979278Y-52101038D01*
X150732316Y-51348000D01*
X151019684Y-51348000D01*
X151772722Y-52101038D01*
X152013494Y-52048853D01*
X152050450Y-51949420D01*
X158252264Y-51949420D01*
X158347217Y-52226437D01*
X158962421Y-52466398D01*
X159622623Y-52452663D01*
X160168783Y-52226437D01*
X160263736Y-51949420D01*
X159258000Y-50943684D01*
X158252264Y-51949420D01*
X152050450Y-51949420D01*
X152195113Y-51560203D01*
X152175908Y-51039248D01*
X152013494Y-50647147D01*
X151772722Y-50594962D01*
X151019684Y-51348000D01*
X150732316Y-51348000D01*
X149979278Y-50594962D01*
X149738506Y-50647147D01*
X149556887Y-51135797D01*
X144813468Y-51135797D01*
X144809908Y-51039248D01*
X144647494Y-50647147D01*
X144406722Y-50594962D01*
X143653684Y-51348000D01*
X143366316Y-51348000D01*
X142613278Y-50594962D01*
X142372506Y-50647147D01*
X142190887Y-51135797D01*
X136804400Y-51135797D01*
X136804400Y-50451278D01*
X142756962Y-50451278D01*
X143510000Y-51204316D01*
X144263038Y-50451278D01*
X150122962Y-50451278D01*
X150876000Y-51204316D01*
X151575895Y-50504421D01*
X157591602Y-50504421D01*
X157605337Y-51164623D01*
X157831563Y-51710783D01*
X158108580Y-51805736D01*
X159114316Y-50800000D01*
X159401684Y-50800000D01*
X160407420Y-51805736D01*
X160684437Y-51710783D01*
X160924398Y-51095579D01*
X160910663Y-50435377D01*
X160684437Y-49889217D01*
X160407420Y-49794264D01*
X159401684Y-50800000D01*
X159114316Y-50800000D01*
X158108580Y-49794264D01*
X157831563Y-49889217D01*
X157591602Y-50504421D01*
X151575895Y-50504421D01*
X151629038Y-50451278D01*
X151576853Y-50210506D01*
X151088203Y-50028887D01*
X150567248Y-50048092D01*
X150175147Y-50210506D01*
X150122962Y-50451278D01*
X144263038Y-50451278D01*
X144210853Y-50210506D01*
X143722203Y-50028887D01*
X143201248Y-50048092D01*
X142809147Y-50210506D01*
X142756962Y-50451278D01*
X136804400Y-50451278D01*
X136804400Y-49650580D01*
X158252264Y-49650580D01*
X159258000Y-50656316D01*
X160263736Y-49650580D01*
X160168783Y-49373563D01*
X159553579Y-49133602D01*
X158893377Y-49147337D01*
X158347217Y-49373563D01*
X158252264Y-49650580D01*
X136804400Y-49650580D01*
X136804400Y-45794724D01*
X137023823Y-45794724D01*
X137275993Y-46405024D01*
X137742520Y-46872366D01*
X138352379Y-47125601D01*
X139012724Y-47126177D01*
X139623024Y-46874007D01*
X139649076Y-46848000D01*
X142186662Y-46848000D01*
X142186662Y-48148000D01*
X142232711Y-48392730D01*
X142377346Y-48617499D01*
X142598034Y-48768288D01*
X142860000Y-48821338D01*
X144160000Y-48821338D01*
X144404730Y-48775289D01*
X144573948Y-48666400D01*
X149814915Y-48666400D01*
X149964034Y-48768288D01*
X150226000Y-48821338D01*
X151526000Y-48821338D01*
X151770730Y-48775289D01*
X151939948Y-48666400D01*
X156971995Y-48666400D01*
X156972000Y-48666401D01*
X157419128Y-48577461D01*
X157798184Y-48324184D01*
X157963968Y-48158400D01*
X160190986Y-48158400D01*
X160438520Y-48406366D01*
X161048379Y-48659601D01*
X161708724Y-48660177D01*
X162319024Y-48408007D01*
X162559050Y-48168400D01*
X162594032Y-48168400D01*
X162661600Y-48235967D01*
X162661600Y-53500194D01*
X162409480Y-53247634D01*
X161799621Y-52994399D01*
X161139276Y-52993823D01*
X160528976Y-53245993D01*
X160061634Y-53712520D01*
X159808399Y-54322379D01*
X159807823Y-54982724D01*
X160059993Y-55593024D01*
X160526520Y-56060366D01*
X161136379Y-56313601D01*
X161796724Y-56314177D01*
X162407024Y-56062007D01*
X162661600Y-55807875D01*
X162661600Y-56895995D01*
X162661599Y-56896000D01*
X162750539Y-57343128D01*
X163003816Y-57722184D01*
X165035816Y-59754184D01*
X165414872Y-60007461D01*
X165862000Y-60096401D01*
X165862005Y-60096400D01*
X171057231Y-60096400D01*
X171438865Y-60254869D01*
X171966818Y-60255329D01*
X172454759Y-60053716D01*
X172828404Y-59680723D01*
X172919807Y-59460602D01*
X172990503Y-59588400D01*
X174396400Y-59588400D01*
X174396400Y-59568400D01*
X174599600Y-59568400D01*
X174599600Y-59588400D01*
X176005497Y-59588400D01*
X176136395Y-59351775D01*
X176122074Y-59284439D01*
X175854848Y-58752125D01*
X175471669Y-58420871D01*
X175760874Y-58227631D01*
X176091235Y-57733210D01*
X176207243Y-57150000D01*
X176091235Y-56566790D01*
X175773556Y-56091349D01*
X175983499Y-55956254D01*
X176134288Y-55735566D01*
X176187338Y-55473600D01*
X176187338Y-53746400D01*
X176141289Y-53501670D01*
X175996654Y-53276901D01*
X175775966Y-53126112D01*
X175514000Y-53073062D01*
X173482000Y-53073062D01*
X173237270Y-53119111D01*
X173012501Y-53263746D01*
X172861712Y-53484434D01*
X172808662Y-53746400D01*
X172808662Y-55473600D01*
X172854711Y-55718330D01*
X172999346Y-55943099D01*
X173220034Y-56093888D01*
X173220662Y-56094015D01*
X172904765Y-56566790D01*
X172788757Y-57150000D01*
X172904765Y-57733210D01*
X173235126Y-58227631D01*
X173524331Y-58420871D01*
X173141152Y-58752125D01*
X173031062Y-58971424D01*
X173031329Y-58665182D01*
X172829716Y-58177241D01*
X172456723Y-57803596D01*
X171969135Y-57601131D01*
X171441182Y-57600671D01*
X171056544Y-57759600D01*
X166345968Y-57759600D01*
X164998400Y-56412032D01*
X164998400Y-54982724D01*
X167427823Y-54982724D01*
X167679993Y-55593024D01*
X168146520Y-56060366D01*
X168756379Y-56313601D01*
X169416724Y-56314177D01*
X170027024Y-56062007D01*
X170494366Y-55595480D01*
X170747601Y-54985621D01*
X170748177Y-54325276D01*
X170496007Y-53714976D01*
X170029480Y-53247634D01*
X169419621Y-52994399D01*
X168759276Y-52993823D01*
X168148976Y-53245993D01*
X167681634Y-53712520D01*
X167428399Y-54322379D01*
X167427823Y-54982724D01*
X164998400Y-54982724D01*
X164998400Y-51128724D01*
X165217823Y-51128724D01*
X165469993Y-51739024D01*
X165936520Y-52206366D01*
X166546379Y-52459601D01*
X167206724Y-52460177D01*
X167817024Y-52208007D01*
X168284366Y-51741480D01*
X168537601Y-51131621D01*
X168538177Y-50471276D01*
X168286007Y-49860976D01*
X167819480Y-49393634D01*
X167209621Y-49140399D01*
X166549276Y-49139823D01*
X165938976Y-49391993D01*
X165471634Y-49858520D01*
X165218399Y-50468379D01*
X165217823Y-51128724D01*
X164998400Y-51128724D01*
X164998400Y-47752005D01*
X164998401Y-47752000D01*
X164909461Y-47304873D01*
X164804059Y-47147127D01*
X164656184Y-46925816D01*
X164656181Y-46925814D01*
X163904184Y-46173816D01*
X163525128Y-45920539D01*
X163078000Y-45831599D01*
X163077995Y-45831600D01*
X162559031Y-45831600D01*
X162321480Y-45593634D01*
X162248400Y-45563289D01*
X162248400Y-43127028D01*
X162487992Y-42768453D01*
X162604000Y-42185243D01*
X162604000Y-41814757D01*
X162487992Y-41231547D01*
X162157631Y-40737126D01*
X161663210Y-40406765D01*
X161080000Y-40290757D01*
X160496790Y-40406765D01*
X160002369Y-40737126D01*
X159809129Y-41026331D01*
X159477875Y-40643152D01*
X158945561Y-40375926D01*
X158878225Y-40361605D01*
X158641600Y-40492503D01*
X158641600Y-41898400D01*
X158661600Y-41898400D01*
X158661600Y-42101600D01*
X158641600Y-42101600D01*
X158641600Y-43507497D01*
X158878225Y-43638395D01*
X158945561Y-43624074D01*
X159477875Y-43356848D01*
X159809129Y-42973669D01*
X159911600Y-43127028D01*
X159911600Y-45821600D01*
X157480000Y-45821600D01*
X157032873Y-45910539D01*
X156653816Y-46163816D01*
X156653814Y-46163819D01*
X156488033Y-46329600D01*
X151937085Y-46329600D01*
X151787966Y-46227712D01*
X151526000Y-46174662D01*
X151482293Y-46174662D01*
X151576853Y-46135494D01*
X151629038Y-45894722D01*
X150876000Y-45141684D01*
X150122962Y-45894722D01*
X150175147Y-46135494D01*
X150280529Y-46174662D01*
X150226000Y-46174662D01*
X149981270Y-46220711D01*
X149812052Y-46329600D01*
X144571085Y-46329600D01*
X144421966Y-46227712D01*
X144160000Y-46174662D01*
X144116293Y-46174662D01*
X144210853Y-46135494D01*
X144263038Y-45894722D01*
X143510000Y-45141684D01*
X142756962Y-45894722D01*
X142809147Y-46135494D01*
X142914529Y-46174662D01*
X142860000Y-46174662D01*
X142615270Y-46220711D01*
X142390501Y-46365346D01*
X142239712Y-46586034D01*
X142186662Y-46848000D01*
X139649076Y-46848000D01*
X140090366Y-46407480D01*
X140343601Y-45797621D01*
X140344177Y-45137276D01*
X140198950Y-44785797D01*
X142190887Y-44785797D01*
X142210092Y-45306752D01*
X142372506Y-45698853D01*
X142613278Y-45751038D01*
X143366316Y-44998000D01*
X143653684Y-44998000D01*
X144406722Y-45751038D01*
X144647494Y-45698853D01*
X144829113Y-45210203D01*
X144813468Y-44785797D01*
X149556887Y-44785797D01*
X149576092Y-45306752D01*
X149738506Y-45698853D01*
X149979278Y-45751038D01*
X150732316Y-44998000D01*
X151019684Y-44998000D01*
X151772722Y-45751038D01*
X152013494Y-45698853D01*
X152195113Y-45210203D01*
X152175908Y-44689248D01*
X152013494Y-44297147D01*
X151772722Y-44244962D01*
X151019684Y-44998000D01*
X150732316Y-44998000D01*
X149979278Y-44244962D01*
X149738506Y-44297147D01*
X149556887Y-44785797D01*
X144813468Y-44785797D01*
X144809908Y-44689248D01*
X144647494Y-44297147D01*
X144406722Y-44244962D01*
X143653684Y-44998000D01*
X143366316Y-44998000D01*
X142613278Y-44244962D01*
X142372506Y-44297147D01*
X142190887Y-44785797D01*
X140198950Y-44785797D01*
X140092007Y-44526976D01*
X139667052Y-44101278D01*
X142756962Y-44101278D01*
X143510000Y-44854316D01*
X144263038Y-44101278D01*
X150122962Y-44101278D01*
X150876000Y-44854316D01*
X151629038Y-44101278D01*
X151576853Y-43860506D01*
X151088203Y-43678887D01*
X150567248Y-43698092D01*
X150175147Y-43860506D01*
X150122962Y-44101278D01*
X144263038Y-44101278D01*
X144210853Y-43860506D01*
X143722203Y-43678887D01*
X143201248Y-43698092D01*
X142809147Y-43860506D01*
X142756962Y-44101278D01*
X139667052Y-44101278D01*
X139625480Y-44059634D01*
X139015621Y-43806399D01*
X138355276Y-43805823D01*
X137744976Y-44057993D01*
X137277634Y-44524520D01*
X137024399Y-45134379D01*
X137023823Y-45794724D01*
X136804400Y-45794724D01*
X136804400Y-42073031D01*
X136834062Y-42043420D01*
X142250264Y-42043420D01*
X142345217Y-42320437D01*
X142960421Y-42560398D01*
X143620623Y-42546663D01*
X144166783Y-42320437D01*
X144261736Y-42043420D01*
X143256000Y-41037684D01*
X142250264Y-42043420D01*
X136834062Y-42043420D01*
X137042366Y-41835480D01*
X137295601Y-41225621D01*
X137296148Y-40598421D01*
X141589602Y-40598421D01*
X141603337Y-41258623D01*
X141829563Y-41804783D01*
X142106580Y-41899736D01*
X143112316Y-40894000D01*
X143399684Y-40894000D01*
X144405420Y-41899736D01*
X144682437Y-41804783D01*
X144922398Y-41189579D01*
X144908663Y-40529377D01*
X144682437Y-39983217D01*
X144405420Y-39888264D01*
X143399684Y-40894000D01*
X143112316Y-40894000D01*
X142106580Y-39888264D01*
X141829563Y-39983217D01*
X141589602Y-40598421D01*
X137296148Y-40598421D01*
X137296177Y-40565276D01*
X137044007Y-39954976D01*
X136833979Y-39744580D01*
X142250264Y-39744580D01*
X143256000Y-40750316D01*
X144261736Y-39744580D01*
X144166783Y-39467563D01*
X143551579Y-39227602D01*
X142891377Y-39241337D01*
X142345217Y-39467563D01*
X142250264Y-39744580D01*
X136833979Y-39744580D01*
X136804400Y-39714950D01*
X136804400Y-38517031D01*
X137042366Y-38279480D01*
X137295601Y-37669621D01*
X137295603Y-37666724D01*
X141595823Y-37666724D01*
X141847993Y-38277024D01*
X142314520Y-38744366D01*
X142924379Y-38997601D01*
X143584724Y-38998177D01*
X143588245Y-38996722D01*
X147622962Y-38996722D01*
X147675147Y-39237494D01*
X148163797Y-39419113D01*
X148684752Y-39399908D01*
X149076853Y-39237494D01*
X149129038Y-38996722D01*
X148376000Y-38243684D01*
X147622962Y-38996722D01*
X143588245Y-38996722D01*
X144195024Y-38746007D01*
X144662366Y-38279480D01*
X144825006Y-37887797D01*
X147056887Y-37887797D01*
X147076092Y-38408752D01*
X147238506Y-38800853D01*
X147479278Y-38853038D01*
X148232316Y-38100000D01*
X147479278Y-37346962D01*
X147238506Y-37399147D01*
X147056887Y-37887797D01*
X144825006Y-37887797D01*
X144915601Y-37669621D01*
X144916177Y-37009276D01*
X144775330Y-36668400D01*
X148808032Y-36668400D01*
X149235973Y-37096340D01*
X149129037Y-37203276D01*
X149076853Y-36962506D01*
X148588203Y-36780887D01*
X148067248Y-36800092D01*
X147675147Y-36962506D01*
X147622962Y-37203278D01*
X148376000Y-37956316D01*
X148390143Y-37942174D01*
X148533827Y-38085858D01*
X148519684Y-38100000D01*
X149272722Y-38853038D01*
X149513494Y-38800853D01*
X149552662Y-38695471D01*
X149552662Y-38750000D01*
X149598711Y-38994730D01*
X149743346Y-39219499D01*
X149964034Y-39370288D01*
X150226000Y-39423338D01*
X151526000Y-39423338D01*
X151770730Y-39377289D01*
X151939948Y-39268400D01*
X154202032Y-39268400D01*
X154831600Y-39897967D01*
X154831600Y-40395365D01*
X154666901Y-40501346D01*
X154516112Y-40722034D01*
X154463062Y-40984000D01*
X154463062Y-43016000D01*
X154509111Y-43260730D01*
X154653746Y-43485499D01*
X154874434Y-43636288D01*
X155136400Y-43689338D01*
X156863600Y-43689338D01*
X157108330Y-43643289D01*
X157333099Y-43498654D01*
X157483888Y-43277966D01*
X157493386Y-43231064D01*
X157602125Y-43356848D01*
X158134439Y-43624074D01*
X158201775Y-43638395D01*
X158438400Y-43507497D01*
X158438400Y-42101600D01*
X158418400Y-42101600D01*
X158418400Y-41898400D01*
X158438400Y-41898400D01*
X158438400Y-40492503D01*
X158201775Y-40361605D01*
X158134439Y-40375926D01*
X157602125Y-40643152D01*
X157495920Y-40766006D01*
X157490889Y-40739270D01*
X157346254Y-40514501D01*
X157168400Y-40392979D01*
X157168400Y-39414005D01*
X157168401Y-39414000D01*
X157168400Y-39413995D01*
X157168400Y-39266700D01*
X167339600Y-39266700D01*
X167339600Y-40081361D01*
X167440140Y-40324086D01*
X167625913Y-40509860D01*
X167715377Y-40546917D01*
X167635565Y-40626590D01*
X167389880Y-41218266D01*
X167389321Y-41858923D01*
X167633973Y-42451027D01*
X167831600Y-42648999D01*
X167831600Y-45820969D01*
X167593634Y-46058520D01*
X167340399Y-46668379D01*
X167339823Y-47328724D01*
X167591993Y-47939024D01*
X168058520Y-48406366D01*
X168668379Y-48659601D01*
X169328724Y-48660177D01*
X169939024Y-48408007D01*
X170406366Y-47941480D01*
X170659601Y-47331621D01*
X170660177Y-46671276D01*
X170408007Y-46060976D01*
X170168400Y-45820950D01*
X170168400Y-42649103D01*
X170364435Y-42453410D01*
X170610120Y-41861734D01*
X170610679Y-41221077D01*
X170366027Y-40628973D01*
X170284263Y-40547066D01*
X170374087Y-40509860D01*
X170559860Y-40324086D01*
X170660400Y-40081361D01*
X170660400Y-39266700D01*
X170495300Y-39101600D01*
X169101600Y-39101600D01*
X169101600Y-39121600D01*
X168898400Y-39121600D01*
X168898400Y-39101600D01*
X167504700Y-39101600D01*
X167339600Y-39266700D01*
X157168400Y-39266700D01*
X157168400Y-37918639D01*
X167339600Y-37918639D01*
X167339600Y-38733300D01*
X167504700Y-38898400D01*
X168898400Y-38898400D01*
X168898400Y-37554700D01*
X169101600Y-37554700D01*
X169101600Y-38898400D01*
X170495300Y-38898400D01*
X170660400Y-38733300D01*
X170660400Y-37918639D01*
X170559860Y-37675914D01*
X170374087Y-37490140D01*
X170131362Y-37389600D01*
X169266700Y-37389600D01*
X169101600Y-37554700D01*
X168898400Y-37554700D01*
X168733300Y-37389600D01*
X167868638Y-37389600D01*
X167625913Y-37490140D01*
X167440140Y-37675914D01*
X167339600Y-37918639D01*
X157168400Y-37918639D01*
X157168400Y-37160662D01*
X157260730Y-37143289D01*
X157485499Y-36998654D01*
X157581266Y-36858494D01*
X157638641Y-36913467D01*
X158177886Y-37136823D01*
X158438400Y-37007881D01*
X158438400Y-35601600D01*
X158641600Y-35601600D01*
X158641600Y-37007881D01*
X158902114Y-37136823D01*
X159441359Y-36913467D01*
X159913658Y-36460938D01*
X160176830Y-35862115D01*
X160048225Y-35601600D01*
X158641600Y-35601600D01*
X158438400Y-35601600D01*
X158418400Y-35601600D01*
X158418400Y-35398400D01*
X158438400Y-35398400D01*
X158438400Y-33992119D01*
X158641600Y-33992119D01*
X158641600Y-35398400D01*
X160048225Y-35398400D01*
X160176830Y-35137885D01*
X159913658Y-34539062D01*
X159441359Y-34086533D01*
X158902114Y-33863177D01*
X158641600Y-33992119D01*
X158438400Y-33992119D01*
X158177886Y-33863177D01*
X157638641Y-34086533D01*
X157580718Y-34142032D01*
X157498654Y-34014501D01*
X157277966Y-33863712D01*
X157016000Y-33810662D01*
X154984000Y-33810662D01*
X154739270Y-33856711D01*
X154514501Y-34001346D01*
X154363712Y-34222034D01*
X154341524Y-34331600D01*
X149292005Y-34331600D01*
X149292000Y-34331599D01*
X149291995Y-34331600D01*
X143570005Y-34331600D01*
X143570000Y-34331599D01*
X143122872Y-34420539D01*
X142743816Y-34673816D01*
X142429816Y-34987816D01*
X142176539Y-35366872D01*
X142087599Y-35814000D01*
X142087600Y-35814005D01*
X142087600Y-36158969D01*
X141849634Y-36396520D01*
X141596399Y-37006379D01*
X141595823Y-37666724D01*
X137295603Y-37666724D01*
X137296177Y-37009276D01*
X137044007Y-36398976D01*
X136577480Y-35931634D01*
X135967621Y-35678399D01*
X135307276Y-35677823D01*
X134696976Y-35929993D01*
X134229634Y-36396520D01*
X133976399Y-37006379D01*
X133975823Y-37666724D01*
X134227993Y-38277024D01*
X134467600Y-38517050D01*
X134467600Y-39714969D01*
X134229634Y-39952520D01*
X133976399Y-40562379D01*
X133975823Y-41222724D01*
X134227993Y-41833024D01*
X134467600Y-42073050D01*
X134467600Y-60697813D01*
X134430184Y-60641816D01*
X134430181Y-60641814D01*
X131978400Y-58190032D01*
X131978400Y-48768005D01*
X131978401Y-48768000D01*
X131889461Y-48320872D01*
X131636184Y-47941816D01*
X130820045Y-47125677D01*
X131392724Y-47126177D01*
X132003024Y-46874007D01*
X132470366Y-46407480D01*
X132723601Y-45797621D01*
X132724177Y-45137276D01*
X132472007Y-44526976D01*
X132005480Y-44059634D01*
X131395621Y-43806399D01*
X130735276Y-43805823D01*
X130124976Y-44057993D01*
X129657634Y-44524520D01*
X129404399Y-45134379D01*
X129403839Y-45775950D01*
X129225128Y-45656539D01*
X128778000Y-45567599D01*
X128777995Y-45567600D01*
X127417031Y-45567600D01*
X127179480Y-45329634D01*
X126569621Y-45076399D01*
X125909276Y-45075823D01*
X125298976Y-45327993D01*
X124831634Y-45794520D01*
X124578399Y-46404379D01*
X124577823Y-47064724D01*
X124829993Y-47675024D01*
X125296520Y-48142366D01*
X125906379Y-48395601D01*
X126566724Y-48396177D01*
X127177024Y-48144007D01*
X127417050Y-47904400D01*
X128294032Y-47904400D01*
X129641600Y-49251968D01*
X129641600Y-50549111D01*
X129276723Y-50183596D01*
X128789135Y-49981131D01*
X128261182Y-49980671D01*
X127773241Y-50182284D01*
X127399596Y-50555277D01*
X127197131Y-51042865D01*
X127196671Y-51570818D01*
X127355600Y-51955456D01*
X127355600Y-59689995D01*
X127355599Y-59690000D01*
X127444539Y-60137128D01*
X127697816Y-60516184D01*
X129895600Y-62713967D01*
X129895600Y-65788667D01*
X129784723Y-65677596D01*
X129297135Y-65475131D01*
X128769182Y-65474671D01*
X128281241Y-65676284D01*
X127907596Y-66049277D01*
X127705131Y-66536865D01*
X127704671Y-67064818D01*
X127863600Y-67449456D01*
X127863600Y-74929995D01*
X127863599Y-74930000D01*
X127952539Y-75377128D01*
X128205816Y-75756184D01*
X129475814Y-77026181D01*
X129475816Y-77026184D01*
X129668795Y-77155128D01*
X129854872Y-77279461D01*
X130302000Y-77368400D01*
X135889995Y-77368400D01*
X135890000Y-77368401D01*
X136337128Y-77279461D01*
X136716184Y-77026184D01*
X137478181Y-76264186D01*
X137478184Y-76264184D01*
X137731461Y-75885127D01*
X137732120Y-75881816D01*
X137770562Y-75688555D01*
X137776404Y-75682723D01*
X137978869Y-75195135D01*
X137979329Y-74667182D01*
X137777716Y-74179241D01*
X137404723Y-73805596D01*
X136917135Y-73603131D01*
X136454929Y-73602728D01*
X136455329Y-73143182D01*
X136253716Y-72655241D01*
X135880723Y-72281596D01*
X135393135Y-72079131D01*
X134865182Y-72078671D01*
X134713938Y-72141164D01*
X134728404Y-72126723D01*
X134930869Y-71639135D01*
X134931329Y-71111182D01*
X134772400Y-70726544D01*
X134772400Y-68080187D01*
X134809816Y-68136184D01*
X136079814Y-69406181D01*
X136079816Y-69406184D01*
X136278786Y-69539131D01*
X136458872Y-69659461D01*
X136906000Y-69748400D01*
X155451111Y-69748400D01*
X155085596Y-70113277D01*
X154925995Y-70497637D01*
X154875816Y-70547816D01*
X154622539Y-70926872D01*
X154533599Y-71374000D01*
X154533600Y-71374005D01*
X154533600Y-76224032D01*
X154202032Y-76555600D01*
X140716000Y-76555600D01*
X140268873Y-76644539D01*
X139889816Y-76897816D01*
X139889814Y-76897819D01*
X138365816Y-78421816D01*
X138112539Y-78800872D01*
X138023599Y-79248000D01*
X138023600Y-79248005D01*
X138023600Y-82905600D01*
X133094892Y-82905600D01*
X132849798Y-82803828D01*
X132328489Y-82803373D01*
X131984273Y-82945600D01*
X128738005Y-82945600D01*
X128738000Y-82945599D01*
X128290873Y-83034539D01*
X127911816Y-83287816D01*
X127911814Y-83287819D01*
X126681816Y-84517816D01*
X126428539Y-84896872D01*
X126339599Y-85344000D01*
X126339600Y-85344005D01*
X126339600Y-89440308D01*
X126149337Y-89898512D01*
X126148865Y-90439116D01*
X126339600Y-90900730D01*
X126339600Y-97060308D01*
X126149337Y-97518512D01*
X126148865Y-98059116D01*
X126339600Y-98520730D01*
X126339600Y-98805995D01*
X126339599Y-98806000D01*
X126428539Y-99253128D01*
X126681816Y-99632184D01*
X127697816Y-100648184D01*
X128076872Y-100901461D01*
X128524000Y-100990401D01*
X128524005Y-100990400D01*
X137250969Y-100990400D01*
X137488520Y-101228366D01*
X137575781Y-101264600D01*
X122735400Y-101264600D01*
X122735400Y-63500000D01*
X123258757Y-63500000D01*
X123374765Y-64083210D01*
X123705126Y-64577631D01*
X123993027Y-64770000D01*
X123705126Y-64962369D01*
X123374765Y-65456790D01*
X123258757Y-66040000D01*
X123374765Y-66623210D01*
X123705126Y-67117631D01*
X123993027Y-67310000D01*
X123705126Y-67502369D01*
X123374765Y-67996790D01*
X123258757Y-68580000D01*
X123374765Y-69163210D01*
X123705126Y-69657631D01*
X123993027Y-69850000D01*
X123705126Y-70042369D01*
X123374765Y-70536790D01*
X123258757Y-71120000D01*
X123374765Y-71703210D01*
X123705126Y-72197631D01*
X123993027Y-72390000D01*
X123705126Y-72582369D01*
X123374765Y-73076790D01*
X123258757Y-73660000D01*
X123374765Y-74243210D01*
X123705126Y-74737631D01*
X124199547Y-75067992D01*
X124782757Y-75184000D01*
X125153243Y-75184000D01*
X125736453Y-75067992D01*
X126230874Y-74737631D01*
X126561235Y-74243210D01*
X126677243Y-73660000D01*
X126561235Y-73076790D01*
X126230874Y-72582369D01*
X125942973Y-72390000D01*
X126230874Y-72197631D01*
X126561235Y-71703210D01*
X126677243Y-71120000D01*
X126561235Y-70536790D01*
X126230874Y-70042369D01*
X125942973Y-69850000D01*
X126230874Y-69657631D01*
X126561235Y-69163210D01*
X126677243Y-68580000D01*
X126561235Y-67996790D01*
X126230874Y-67502369D01*
X125942973Y-67310000D01*
X126230874Y-67117631D01*
X126561235Y-66623210D01*
X126677243Y-66040000D01*
X126561235Y-65456790D01*
X126230874Y-64962369D01*
X125942973Y-64770000D01*
X126230874Y-64577631D01*
X126561235Y-64083210D01*
X126677243Y-63500000D01*
X126561235Y-62916790D01*
X126243556Y-62441349D01*
X126453499Y-62306254D01*
X126604288Y-62085566D01*
X126657338Y-61823600D01*
X126657338Y-60096400D01*
X126611289Y-59851670D01*
X126466654Y-59626901D01*
X126245966Y-59476112D01*
X125984000Y-59423062D01*
X123952000Y-59423062D01*
X123707270Y-59469111D01*
X123482501Y-59613746D01*
X123331712Y-59834434D01*
X123278662Y-60096400D01*
X123278662Y-61823600D01*
X123324711Y-62068330D01*
X123469346Y-62293099D01*
X123690034Y-62443888D01*
X123690662Y-62444015D01*
X123374765Y-62916790D01*
X123258757Y-63500000D01*
X122735400Y-63500000D01*
X122735400Y-56286400D01*
X123177062Y-56286400D01*
X123177062Y-58521600D01*
X123223111Y-58766330D01*
X123367746Y-58991099D01*
X123588434Y-59141888D01*
X123850400Y-59194938D01*
X126085600Y-59194938D01*
X126330330Y-59148889D01*
X126555099Y-59004254D01*
X126705888Y-58783566D01*
X126758938Y-58521600D01*
X126758938Y-56286400D01*
X126712889Y-56041670D01*
X126568254Y-55816901D01*
X126347566Y-55666112D01*
X126085600Y-55613062D01*
X123850400Y-55613062D01*
X123605670Y-55659111D01*
X123380901Y-55803746D01*
X123230112Y-56024434D01*
X123177062Y-56286400D01*
X122735400Y-56286400D01*
X122735400Y-50190400D01*
X123177062Y-50190400D01*
X123177062Y-52425600D01*
X123223111Y-52670330D01*
X123367746Y-52895099D01*
X123588434Y-53045888D01*
X123850400Y-53098938D01*
X126085600Y-53098938D01*
X126330330Y-53052889D01*
X126555099Y-52908254D01*
X126705888Y-52687566D01*
X126758938Y-52425600D01*
X126758938Y-50190400D01*
X126712889Y-49945670D01*
X126568254Y-49720901D01*
X126347566Y-49570112D01*
X126085600Y-49517062D01*
X123850400Y-49517062D01*
X123605670Y-49563111D01*
X123380901Y-49707746D01*
X123230112Y-49928434D01*
X123177062Y-50190400D01*
X122735400Y-50190400D01*
X122735400Y-39444724D01*
X124577823Y-39444724D01*
X124829993Y-40055024D01*
X125296520Y-40522366D01*
X125906379Y-40775601D01*
X126566724Y-40776177D01*
X127177024Y-40524007D01*
X127644366Y-40057480D01*
X127897601Y-39447621D01*
X127898177Y-38787276D01*
X127646007Y-38176976D01*
X127179480Y-37709634D01*
X126569621Y-37456399D01*
X125909276Y-37455823D01*
X125298976Y-37707993D01*
X124831634Y-38174520D01*
X124578399Y-38784379D01*
X124577823Y-39444724D01*
X122735400Y-39444724D01*
X122735400Y-35374757D01*
X124714000Y-35374757D01*
X124714000Y-35745243D01*
X124830008Y-36328453D01*
X125160369Y-36822874D01*
X125654790Y-37153235D01*
X126238000Y-37269243D01*
X126821210Y-37153235D01*
X127315631Y-36822874D01*
X127508000Y-36534973D01*
X127700369Y-36822874D01*
X128194790Y-37153235D01*
X128778000Y-37269243D01*
X129361210Y-37153235D01*
X129836651Y-36835556D01*
X129971746Y-37045499D01*
X130192434Y-37196288D01*
X130454400Y-37249338D01*
X132181600Y-37249338D01*
X132426330Y-37203289D01*
X132651099Y-37058654D01*
X132801888Y-36837966D01*
X132854938Y-36576000D01*
X132854938Y-34544000D01*
X132808889Y-34299270D01*
X132664254Y-34074501D01*
X132443566Y-33923712D01*
X132181600Y-33870662D01*
X130454400Y-33870662D01*
X130209670Y-33916711D01*
X129984901Y-34061346D01*
X129834112Y-34282034D01*
X129833985Y-34282662D01*
X129361210Y-33966765D01*
X128778000Y-33850757D01*
X128194790Y-33966765D01*
X127700369Y-34297126D01*
X127508000Y-34585027D01*
X127315631Y-34297126D01*
X126821210Y-33966765D01*
X126238000Y-33850757D01*
X125654790Y-33966765D01*
X125160369Y-34297126D01*
X124830008Y-34791547D01*
X124714000Y-35374757D01*
X122735400Y-35374757D01*
X122735400Y-33735400D01*
X177264600Y-33735400D01*
X177264600Y-90308743D01*
M02*
