G04 #@! TF.FileFunction,Copper,L1,Top,Signal*
%FSLAX46Y46*%
G04 Gerber Fmt 4.6, Leading zero omitted, Abs format (unit mm)*
G04 Created by KiCad (PCBNEW 4.0.2-stable) date 13/05/2016 13:41:56*
%MOMM*%
G01*
G04 APERTURE LIST*
%ADD10C,0.100000*%
%ADD11C,0.300000*%
%ADD12C,0.304800*%
%ADD13R,1.300000X1.300000*%
%ADD14C,1.300000*%
%ADD15R,2.000000X1.900000*%
%ADD16C,1.900000*%
%ADD17R,1.727200X1.727200*%
%ADD18O,1.727200X1.727200*%
%ADD19R,2.032000X1.727200*%
%ADD20O,2.032000X1.727200*%
%ADD21R,2.032000X2.032000*%
%ADD22O,2.032000X2.032000*%
%ADD23R,2.235200X2.235200*%
%ADD24C,1.397000*%
%ADD25O,1.998980X2.499360*%
%ADD26C,1.998980*%
%ADD27R,1.727200X2.032000*%
%ADD28O,1.727200X2.032000*%
%ADD29R,0.406400X1.600000*%
%ADD30R,1.600000X0.406400*%
%ADD31C,1.333400*%
%ADD32C,0.508000*%
%ADD33C,1.016000*%
G04 APERTURE END LIST*
D10*
D11*
X175914857Y-51518285D02*
X175986286Y-51303999D01*
X176057714Y-51232571D01*
X176200571Y-51161142D01*
X176414857Y-51161142D01*
X176557714Y-51232571D01*
X176629143Y-51303999D01*
X176700571Y-51446857D01*
X176700571Y-52018285D01*
X175200571Y-52018285D01*
X175200571Y-51518285D01*
X175272000Y-51375428D01*
X175343429Y-51303999D01*
X175486286Y-51232571D01*
X175629143Y-51232571D01*
X175772000Y-51303999D01*
X175843429Y-51375428D01*
X175914857Y-51518285D01*
X175914857Y-52018285D01*
X175200571Y-50732571D02*
X175200571Y-49875428D01*
X176700571Y-50303999D02*
X175200571Y-50303999D01*
X176700571Y-88256857D02*
X176700571Y-88971143D01*
X175200571Y-88971143D01*
X176700571Y-87756857D02*
X175200571Y-87756857D01*
X175200571Y-87399714D01*
X175272000Y-87185429D01*
X175414857Y-87042571D01*
X175557714Y-86971143D01*
X175843429Y-86899714D01*
X176057714Y-86899714D01*
X176343429Y-86971143D01*
X176486286Y-87042571D01*
X176629143Y-87185429D01*
X176700571Y-87399714D01*
X176700571Y-87756857D01*
X176700571Y-85399714D02*
X175986286Y-85899714D01*
X176700571Y-86256857D02*
X175200571Y-86256857D01*
X175200571Y-85685429D01*
X175272000Y-85542571D01*
X175343429Y-85471143D01*
X175486286Y-85399714D01*
X175700571Y-85399714D01*
X175843429Y-85471143D01*
X175914857Y-85542571D01*
X175986286Y-85685429D01*
X175986286Y-86256857D01*
X176629143Y-84828286D02*
X176700571Y-84685429D01*
X176700571Y-84399714D01*
X176629143Y-84256857D01*
X176486286Y-84185429D01*
X176414857Y-84185429D01*
X176272000Y-84256857D01*
X176200571Y-84399714D01*
X176200571Y-84614000D01*
X176129143Y-84756857D01*
X175986286Y-84828286D01*
X175914857Y-84828286D01*
X175772000Y-84756857D01*
X175700571Y-84614000D01*
X175700571Y-84399714D01*
X175772000Y-84256857D01*
X142156571Y-100897143D02*
X140656571Y-100897143D01*
X140656571Y-100325715D01*
X140728000Y-100182857D01*
X140799429Y-100111429D01*
X140942286Y-100040000D01*
X141156571Y-100040000D01*
X141299429Y-100111429D01*
X141370857Y-100182857D01*
X141442286Y-100325715D01*
X141442286Y-100897143D01*
X141728000Y-99468572D02*
X141728000Y-98754286D01*
X142156571Y-99611429D02*
X140656571Y-99111429D01*
X142156571Y-98611429D01*
X142156571Y-98111429D02*
X140656571Y-98111429D01*
X142156571Y-97254286D01*
X140656571Y-97254286D01*
X141370857Y-96540000D02*
X141370857Y-96040000D01*
X142156571Y-95825714D02*
X142156571Y-96540000D01*
X140656571Y-96540000D01*
X140656571Y-95825714D01*
X142156571Y-94468571D02*
X142156571Y-95182857D01*
X140656571Y-95182857D01*
X170132572Y-101008571D02*
X169418286Y-101008571D01*
X169418286Y-99508571D01*
X170632572Y-100222857D02*
X171132572Y-100222857D01*
X171346858Y-101008571D02*
X170632572Y-101008571D01*
X170632572Y-99508571D01*
X171346858Y-99508571D01*
X171989715Y-101008571D02*
X171989715Y-99508571D01*
X172346858Y-99508571D01*
X172561143Y-99580000D01*
X172704001Y-99722857D01*
X172775429Y-99865714D01*
X172846858Y-100151429D01*
X172846858Y-100365714D01*
X172775429Y-100651429D01*
X172704001Y-100794286D01*
X172561143Y-100937143D01*
X172346858Y-101008571D01*
X171989715Y-101008571D01*
X173418286Y-100937143D02*
X173561143Y-101008571D01*
X173846858Y-101008571D01*
X173989715Y-100937143D01*
X174061143Y-100794286D01*
X174061143Y-100722857D01*
X173989715Y-100580000D01*
X173846858Y-100508571D01*
X173632572Y-100508571D01*
X173489715Y-100437143D01*
X173418286Y-100294286D01*
X173418286Y-100222857D01*
X173489715Y-100080000D01*
X173632572Y-100008571D01*
X173846858Y-100008571D01*
X173989715Y-100080000D01*
X125392571Y-96158571D02*
X124678286Y-96658571D01*
X125392571Y-97015714D02*
X123892571Y-97015714D01*
X123892571Y-96444286D01*
X123964000Y-96301428D01*
X124035429Y-96230000D01*
X124178286Y-96158571D01*
X124392571Y-96158571D01*
X124535429Y-96230000D01*
X124606857Y-96301428D01*
X124678286Y-96444286D01*
X124678286Y-97015714D01*
X124606857Y-95515714D02*
X124606857Y-95015714D01*
X125392571Y-94801428D02*
X125392571Y-95515714D01*
X123892571Y-95515714D01*
X123892571Y-94801428D01*
X125321143Y-94230000D02*
X125392571Y-94015714D01*
X125392571Y-93658571D01*
X125321143Y-93515714D01*
X125249714Y-93444285D01*
X125106857Y-93372857D01*
X124964000Y-93372857D01*
X124821143Y-93444285D01*
X124749714Y-93515714D01*
X124678286Y-93658571D01*
X124606857Y-93944285D01*
X124535429Y-94087143D01*
X124464000Y-94158571D01*
X124321143Y-94230000D01*
X124178286Y-94230000D01*
X124035429Y-94158571D01*
X123964000Y-94087143D01*
X123892571Y-93944285D01*
X123892571Y-93587143D01*
X123964000Y-93372857D01*
X124606857Y-92730000D02*
X124606857Y-92230000D01*
X125392571Y-92015714D02*
X125392571Y-92730000D01*
X123892571Y-92730000D01*
X123892571Y-92015714D01*
X123892571Y-91587143D02*
X123892571Y-90730000D01*
X125392571Y-91158571D02*
X123892571Y-91158571D01*
X124376571Y-85557714D02*
X122876571Y-85557714D01*
X123948000Y-85057714D01*
X122876571Y-84557714D01*
X124376571Y-84557714D01*
X122876571Y-83557714D02*
X122876571Y-83272000D01*
X122948000Y-83129142D01*
X123090857Y-82986285D01*
X123376571Y-82914857D01*
X123876571Y-82914857D01*
X124162286Y-82986285D01*
X124305143Y-83129142D01*
X124376571Y-83272000D01*
X124376571Y-83557714D01*
X124305143Y-83700571D01*
X124162286Y-83843428D01*
X123876571Y-83914857D01*
X123376571Y-83914857D01*
X123090857Y-83843428D01*
X122948000Y-83700571D01*
X122876571Y-83557714D01*
X122876571Y-82486285D02*
X122876571Y-81629142D01*
X124376571Y-82057713D02*
X122876571Y-82057713D01*
X122876571Y-80843428D02*
X122876571Y-80557714D01*
X122948000Y-80414856D01*
X123090857Y-80271999D01*
X123376571Y-80200571D01*
X123876571Y-80200571D01*
X124162286Y-80271999D01*
X124305143Y-80414856D01*
X124376571Y-80557714D01*
X124376571Y-80843428D01*
X124305143Y-80986285D01*
X124162286Y-81129142D01*
X123876571Y-81200571D01*
X123376571Y-81200571D01*
X123090857Y-81129142D01*
X122948000Y-80986285D01*
X122876571Y-80843428D01*
X124376571Y-78700570D02*
X123662286Y-79200570D01*
X124376571Y-79557713D02*
X122876571Y-79557713D01*
X122876571Y-78986285D01*
X122948000Y-78843427D01*
X123019429Y-78771999D01*
X123162286Y-78700570D01*
X123376571Y-78700570D01*
X123519429Y-78771999D01*
X123590857Y-78843427D01*
X123662286Y-78986285D01*
X123662286Y-79557713D01*
X123590857Y-78057713D02*
X123590857Y-77557713D01*
X124376571Y-77343427D02*
X124376571Y-78057713D01*
X122876571Y-78057713D01*
X122876571Y-77343427D01*
X124305143Y-76771999D02*
X124376571Y-76557713D01*
X124376571Y-76200570D01*
X124305143Y-76057713D01*
X124233714Y-75986284D01*
X124090857Y-75914856D01*
X123948000Y-75914856D01*
X123805143Y-75986284D01*
X123733714Y-76057713D01*
X123662286Y-76200570D01*
X123590857Y-76486284D01*
X123519429Y-76629142D01*
X123448000Y-76700570D01*
X123305143Y-76771999D01*
X123162286Y-76771999D01*
X123019429Y-76700570D01*
X122948000Y-76629142D01*
X122876571Y-76486284D01*
X122876571Y-76129142D01*
X122948000Y-75914856D01*
X124376571Y-48533714D02*
X124376571Y-49248000D01*
X122876571Y-49248000D01*
X122876571Y-48033714D02*
X124090857Y-48033714D01*
X124233714Y-47962286D01*
X124305143Y-47890857D01*
X124376571Y-47748000D01*
X124376571Y-47462286D01*
X124305143Y-47319428D01*
X124233714Y-47248000D01*
X124090857Y-47176571D01*
X122876571Y-47176571D01*
X122876571Y-46605142D02*
X122876571Y-45605142D01*
X124376571Y-46605142D01*
X124376571Y-45605142D01*
X134318572Y-35222571D02*
X133604286Y-35222571D01*
X133604286Y-33722571D01*
X134818572Y-34436857D02*
X135318572Y-34436857D01*
X135532858Y-35222571D02*
X134818572Y-35222571D01*
X134818572Y-33722571D01*
X135532858Y-33722571D01*
X136175715Y-35222571D02*
X136175715Y-33722571D01*
X136532858Y-33722571D01*
X136747143Y-33794000D01*
X136890001Y-33936857D01*
X136961429Y-34079714D01*
X137032858Y-34365429D01*
X137032858Y-34579714D01*
X136961429Y-34865429D01*
X136890001Y-35008286D01*
X136747143Y-35151143D01*
X136532858Y-35222571D01*
X136175715Y-35222571D01*
X137604286Y-35151143D02*
X137747143Y-35222571D01*
X138032858Y-35222571D01*
X138175715Y-35151143D01*
X138247143Y-35008286D01*
X138247143Y-34936857D01*
X138175715Y-34794000D01*
X138032858Y-34722571D01*
X137818572Y-34722571D01*
X137675715Y-34651143D01*
X137604286Y-34508286D01*
X137604286Y-34436857D01*
X137675715Y-34294000D01*
X137818572Y-34222571D01*
X138032858Y-34222571D01*
X138175715Y-34294000D01*
D12*
X161135429Y-34944857D02*
X161349715Y-35016286D01*
X161421143Y-35087714D01*
X161492572Y-35230571D01*
X161492572Y-35444857D01*
X161421143Y-35587714D01*
X161349715Y-35659143D01*
X161206857Y-35730571D01*
X160635429Y-35730571D01*
X160635429Y-34230571D01*
X161135429Y-34230571D01*
X161278286Y-34302000D01*
X161349715Y-34373429D01*
X161421143Y-34516286D01*
X161421143Y-34659143D01*
X161349715Y-34802000D01*
X161278286Y-34873429D01*
X161135429Y-34944857D01*
X160635429Y-34944857D01*
X162064000Y-35302000D02*
X162778286Y-35302000D01*
X161921143Y-35730571D02*
X162421143Y-34230571D01*
X162921143Y-35730571D01*
X163206857Y-34230571D02*
X164064000Y-34230571D01*
X163635429Y-35730571D02*
X163635429Y-34230571D01*
X164349714Y-34230571D02*
X165206857Y-34230571D01*
X164778286Y-35730571D02*
X164778286Y-34230571D01*
D13*
X150876000Y-38100000D03*
D14*
X148376000Y-38100000D03*
D13*
X143510000Y-47498000D03*
D14*
X143510000Y-44998000D03*
D13*
X150876000Y-47498000D03*
D14*
X150876000Y-44998000D03*
D13*
X156972000Y-84582000D03*
D14*
X159472000Y-84582000D03*
D13*
X132588000Y-86614000D03*
D14*
X132588000Y-84114000D03*
D13*
X149860000Y-86106000D03*
D14*
X152360000Y-86106000D03*
D13*
X150876000Y-53848000D03*
D14*
X150876000Y-51348000D03*
D13*
X143510000Y-53848000D03*
D14*
X143510000Y-51348000D03*
D15*
X169000000Y-39000000D03*
D16*
X169000000Y-41540000D03*
D17*
X144272000Y-84074000D03*
D18*
X144272000Y-86614000D03*
X141732000Y-84074000D03*
X141732000Y-86614000D03*
X139192000Y-84074000D03*
X139192000Y-86614000D03*
D19*
X174498000Y-81788000D03*
D20*
X174498000Y-79248000D03*
X174498000Y-76708000D03*
X174498000Y-74168000D03*
X174498000Y-71628000D03*
X174498000Y-69088000D03*
D21*
X144526000Y-99314000D03*
D22*
X147066000Y-99314000D03*
D21*
X156000000Y-35500000D03*
D22*
X158540000Y-35500000D03*
D19*
X174498000Y-54610000D03*
D20*
X174498000Y-57150000D03*
X174498000Y-59690000D03*
X174498000Y-62230000D03*
D23*
X124968000Y-57404000D03*
D19*
X124968000Y-60960000D03*
D20*
X124968000Y-63500000D03*
X124968000Y-66040000D03*
X124968000Y-68580000D03*
X124968000Y-71120000D03*
X124968000Y-73660000D03*
D23*
X124968000Y-51308000D03*
D24*
X169672000Y-81788000D03*
X169672000Y-86868000D03*
X162052000Y-81788000D03*
X162052000Y-86868000D03*
X167640000Y-61468000D03*
X167640000Y-66548000D03*
X160020000Y-61468000D03*
X160020000Y-66548000D03*
X127508000Y-90170000D03*
X132588000Y-90170000D03*
X127508000Y-97790000D03*
X132588000Y-97790000D03*
D25*
X149506940Y-58674000D03*
X144625060Y-58674000D03*
D26*
X169000000Y-47000000D03*
X161380000Y-47000000D03*
X138430000Y-92202000D03*
X138430000Y-99822000D03*
X143256000Y-37338000D03*
X135636000Y-37338000D03*
X144526000Y-95504000D03*
X152146000Y-95504000D03*
X161468000Y-54654000D03*
X169088000Y-54654000D03*
X135636000Y-40894000D03*
X143256000Y-40894000D03*
X152146000Y-92202000D03*
X144526000Y-92202000D03*
X166878000Y-50800000D03*
X159258000Y-50800000D03*
X164338000Y-90932000D03*
X156718000Y-90932000D03*
X166116000Y-94488000D03*
X158496000Y-94488000D03*
X131064000Y-45466000D03*
X138684000Y-45466000D03*
X126238000Y-39116000D03*
X126238000Y-46736000D03*
D27*
X156000000Y-42000000D03*
D28*
X158540000Y-42000000D03*
X161080000Y-42000000D03*
D29*
X149612000Y-68140000D03*
X148812000Y-68140000D03*
X148012000Y-68140000D03*
X147212000Y-68140000D03*
X146412000Y-68140000D03*
X145612000Y-68140000D03*
X144812000Y-68140000D03*
X144012000Y-68140000D03*
D30*
X142562000Y-69590000D03*
X142562000Y-70390000D03*
X142562000Y-71190000D03*
X142562000Y-71990000D03*
X142562000Y-72790000D03*
X142562000Y-73590000D03*
X142562000Y-74390000D03*
X142562000Y-75190000D03*
D29*
X144012000Y-76640000D03*
X144812000Y-76640000D03*
X145612000Y-76640000D03*
X146412000Y-76640000D03*
X147212000Y-76640000D03*
X148012000Y-76640000D03*
X148812000Y-76640000D03*
X149612000Y-76640000D03*
D30*
X151062000Y-75190000D03*
X151062000Y-74390000D03*
X151062000Y-73590000D03*
X151062000Y-72790000D03*
X151062000Y-71990000D03*
X151062000Y-71190000D03*
X151062000Y-70390000D03*
X151062000Y-69590000D03*
D27*
X157480000Y-99314000D03*
D28*
X160020000Y-99314000D03*
X162560000Y-99314000D03*
D27*
X131318000Y-35560000D03*
D28*
X128778000Y-35560000D03*
X126238000Y-35560000D03*
D31*
X171704000Y-58928000D03*
X147320000Y-86614000D03*
X156210000Y-70866000D03*
X146050000Y-65024000D03*
X143256000Y-65786000D03*
X151384000Y-62230000D03*
X133604000Y-71374000D03*
X128524000Y-51308000D03*
X135128000Y-73406000D03*
X129032000Y-66802000D03*
X136652000Y-74930000D03*
X136906000Y-89662000D03*
X143256000Y-81026000D03*
X141732000Y-79502000D03*
X148844000Y-82550000D03*
X153162000Y-66548000D03*
D12*
X149860000Y-80264000D02*
X151638000Y-80264000D01*
X152360000Y-80986000D02*
X152360000Y-86106000D01*
X151638000Y-80264000D02*
X152360000Y-80986000D01*
X147828000Y-64770000D02*
X147828000Y-65786000D01*
X148012000Y-65970000D02*
X148012000Y-68140000D01*
X147828000Y-65786000D02*
X148012000Y-65970000D01*
X147212000Y-76640000D02*
X147212000Y-75076000D01*
X147212000Y-75076000D02*
X147066000Y-74930000D01*
X146412000Y-68140000D02*
X146412000Y-69450000D01*
X146412000Y-69450000D02*
X146558000Y-69596000D01*
X148012000Y-68140000D02*
X148012000Y-69780000D01*
X148012000Y-69780000D02*
X148082000Y-69850000D01*
X148082000Y-80010000D02*
X148336000Y-80264000D01*
X148336000Y-80264000D02*
X149860000Y-80264000D01*
X147212000Y-76640000D02*
X147212000Y-79140000D01*
X147212000Y-79140000D02*
X148082000Y-80010000D01*
D32*
X170688000Y-88392000D02*
X171704000Y-87376000D01*
X172466000Y-81788000D02*
X174498000Y-81788000D01*
X171704000Y-82550000D02*
X172466000Y-81788000D01*
X171704000Y-87376000D02*
X171704000Y-82550000D01*
D33*
X147320000Y-86614000D02*
X147320000Y-90424000D01*
X149606000Y-97790000D02*
X151130000Y-99314000D01*
X149606000Y-92710000D02*
X149606000Y-97790000D01*
X147320000Y-90424000D02*
X149606000Y-92710000D01*
X151130000Y-99314000D02*
X157480000Y-99314000D01*
X133350000Y-43180000D02*
X133350000Y-55880000D01*
X131826000Y-57404000D02*
X124968000Y-57404000D01*
X133350000Y-55880000D02*
X131826000Y-57404000D01*
X148590000Y-47498000D02*
X148082000Y-47498000D01*
X131318000Y-41148000D02*
X131318000Y-35560000D01*
X133350000Y-43180000D02*
X131318000Y-41148000D01*
X136652000Y-43180000D02*
X133350000Y-43180000D01*
X145288000Y-43180000D02*
X136652000Y-43180000D01*
X146304000Y-44196000D02*
X145288000Y-43180000D01*
X146304000Y-45720000D02*
X146304000Y-44196000D01*
X148082000Y-47498000D02*
X146304000Y-45720000D01*
X150876000Y-47498000D02*
X148590000Y-47498000D01*
X148590000Y-47498000D02*
X143510000Y-47498000D01*
X161380000Y-47000000D02*
X157470000Y-47000000D01*
X157470000Y-47000000D02*
X156972000Y-47498000D01*
X156972000Y-47498000D02*
X150876000Y-47498000D01*
D32*
X160274000Y-95504000D02*
X160274000Y-89662000D01*
X160274000Y-89662000D02*
X160782000Y-89154000D01*
X159258000Y-96520000D02*
X160274000Y-95504000D01*
X157480000Y-99314000D02*
X157480000Y-97536000D01*
X157480000Y-97536000D02*
X158496000Y-96520000D01*
X151130000Y-99314000D02*
X157480000Y-99314000D01*
X164846000Y-88392000D02*
X170688000Y-88392000D01*
X158496000Y-96520000D02*
X159258000Y-96520000D01*
X160782000Y-89154000D02*
X161544000Y-88392000D01*
X161544000Y-88392000D02*
X164846000Y-88392000D01*
X174498000Y-62230000D02*
X172720000Y-62230000D01*
X171704000Y-61214000D02*
X171704000Y-58928000D01*
X172720000Y-62230000D02*
X171704000Y-61214000D01*
X176530000Y-68834000D02*
X176530000Y-63246000D01*
X176530000Y-63246000D02*
X175514000Y-62230000D01*
X174498000Y-81788000D02*
X176022000Y-81788000D01*
X176530000Y-81280000D02*
X176530000Y-68834000D01*
X176022000Y-81788000D02*
X176530000Y-81280000D01*
X175514000Y-62230000D02*
X174498000Y-62230000D01*
D12*
X147212000Y-68140000D02*
X147212000Y-66694000D01*
X145612000Y-66732000D02*
X145612000Y-68140000D01*
X146050000Y-66294000D02*
X145612000Y-66732000D01*
X146812000Y-66294000D02*
X146050000Y-66294000D01*
X147212000Y-66694000D02*
X146812000Y-66294000D01*
X145612000Y-68140000D02*
X145612000Y-73336000D01*
X144812000Y-74136000D02*
X144812000Y-76640000D01*
X145612000Y-73336000D02*
X144812000Y-74136000D01*
X144780000Y-78740000D02*
X144780000Y-80518000D01*
X144780000Y-80518000D02*
X146177000Y-81915000D01*
X146177000Y-81915000D02*
X147320000Y-83058000D01*
X147320000Y-86614000D02*
X147320000Y-83058000D01*
X144780000Y-78740000D02*
X144780000Y-76672000D01*
X144780000Y-76672000D02*
X144812000Y-76640000D01*
X156210000Y-70866000D02*
X155194000Y-71882000D01*
X155702000Y-71374000D02*
X155194000Y-71882000D01*
X155086000Y-71990000D02*
X151062000Y-71990000D01*
X155194000Y-71882000D02*
X155086000Y-71990000D01*
X149352000Y-81026000D02*
X150114000Y-81788000D01*
X150114000Y-81788000D02*
X150114000Y-85090000D01*
X149098000Y-81026000D02*
X149352000Y-81026000D01*
X146412000Y-79356000D02*
X148082000Y-81026000D01*
X148082000Y-81026000D02*
X149098000Y-81026000D01*
X146412000Y-76640000D02*
X146412000Y-79356000D01*
X149860000Y-85344000D02*
X149860000Y-86106000D01*
X150114000Y-85090000D02*
X149860000Y-85344000D01*
X146050000Y-65024000D02*
X145288000Y-65024000D01*
X144812000Y-65500000D02*
X144812000Y-68140000D01*
X145288000Y-65024000D02*
X144812000Y-65500000D01*
X144012000Y-68140000D02*
X144012000Y-66542000D01*
X143256000Y-65786000D02*
X144012000Y-66542000D01*
X144012000Y-68140000D02*
X144012000Y-66548000D01*
X149612000Y-68140000D02*
X149612000Y-64002000D01*
X149612000Y-64002000D02*
X151384000Y-62230000D01*
X148812000Y-68140000D02*
X148812000Y-63214000D01*
X148082000Y-62484000D02*
X147320000Y-62484000D01*
X148812000Y-63214000D02*
X148082000Y-62484000D01*
D32*
X138684000Y-46990000D02*
X138684000Y-61722000D01*
X139446000Y-62484000D02*
X139954000Y-62484000D01*
X138684000Y-61722000D02*
X139446000Y-62484000D01*
X141986000Y-62484000D02*
X139954000Y-62484000D01*
X147320000Y-62484000D02*
X141986000Y-62484000D01*
X138684000Y-46990000D02*
X138684000Y-45466000D01*
X126238000Y-68580000D02*
X126492000Y-68580000D01*
X126492000Y-63500000D02*
X124968000Y-63500000D01*
X127254000Y-64262000D02*
X126492000Y-63500000D01*
X127254000Y-67818000D02*
X127254000Y-64262000D01*
X126492000Y-68580000D02*
X127254000Y-67818000D01*
X139192000Y-68580000D02*
X126238000Y-68580000D01*
X126238000Y-68580000D02*
X124968000Y-68580000D01*
D12*
X139446000Y-68580000D02*
X139192000Y-68580000D01*
X139446000Y-68580000D02*
X140456000Y-69590000D01*
X142562000Y-69590000D02*
X140456000Y-69590000D01*
X124968000Y-66040000D02*
X124206000Y-66040000D01*
X124206000Y-66040000D02*
X123444000Y-66802000D01*
X123444000Y-66802000D02*
X123444000Y-70358000D01*
X123444000Y-70358000D02*
X124206000Y-71120000D01*
X124206000Y-71120000D02*
X124968000Y-71120000D01*
D32*
X138176000Y-69596000D02*
X129032000Y-69596000D01*
X129032000Y-69596000D02*
X127508000Y-71120000D01*
X127508000Y-71120000D02*
X124968000Y-71120000D01*
D12*
X138398000Y-69882000D02*
X138398000Y-69818000D01*
X129032000Y-69596000D02*
X128746000Y-69882000D01*
X128746000Y-69882000D02*
X128778000Y-69850000D01*
X128016000Y-70612000D02*
X128778000Y-69850000D01*
X127508000Y-71120000D02*
X128016000Y-70612000D01*
X138398000Y-69818000D02*
X138176000Y-69596000D01*
X127508000Y-71120000D02*
X124968000Y-71120000D01*
X138366000Y-69850000D02*
X138398000Y-69882000D01*
X138398000Y-69882000D02*
X138906000Y-70390000D01*
X138906000Y-70390000D02*
X142562000Y-70390000D01*
X133788000Y-71190000D02*
X133604000Y-71374000D01*
X142562000Y-71190000D02*
X133788000Y-71190000D01*
D33*
X128524000Y-51308000D02*
X124968000Y-51308000D01*
D12*
X136906000Y-71990000D02*
X142562000Y-71990000D01*
X136544000Y-71990000D02*
X135128000Y-73406000D01*
X136906000Y-71990000D02*
X136544000Y-71990000D01*
X142562000Y-72790000D02*
X138176000Y-72790000D01*
X137776000Y-72790000D02*
X136652000Y-73914000D01*
X136652000Y-73914000D02*
X136652000Y-74930000D01*
X138176000Y-72790000D02*
X137776000Y-72790000D01*
D33*
X124968000Y-60960000D02*
X128016000Y-60960000D01*
X128016000Y-60960000D02*
X129032000Y-61976000D01*
X129032000Y-61976000D02*
X129032000Y-66802000D01*
D32*
X129032000Y-61976000D02*
X129032000Y-66802000D01*
X128016000Y-60960000D02*
X129032000Y-61976000D01*
D12*
X128016000Y-60960000D02*
X129032000Y-61976000D01*
D32*
X135636000Y-76454000D02*
X134620000Y-76454000D01*
X131826000Y-73660000D02*
X124968000Y-73660000D01*
X134620000Y-76454000D02*
X131826000Y-73660000D01*
X137414000Y-76454000D02*
X138176000Y-75692000D01*
X138176000Y-75692000D02*
X138176000Y-74422000D01*
X137414000Y-76454000D02*
X135636000Y-76454000D01*
D12*
X139008000Y-73590000D02*
X138176000Y-74422000D01*
X138176000Y-74422000D02*
X138176000Y-75692000D01*
X139192000Y-73590000D02*
X139008000Y-73590000D01*
X142562000Y-73590000D02*
X139192000Y-73590000D01*
X142492000Y-73660000D02*
X142562000Y-73590000D01*
D32*
X136906000Y-89662000D02*
X136906000Y-78994000D01*
X136906000Y-78994000D02*
X139446000Y-76454000D01*
D12*
X139446000Y-76454000D02*
X139446000Y-74676000D01*
X139732000Y-74390000D02*
X142562000Y-74390000D01*
X139446000Y-74676000D02*
X139732000Y-74390000D01*
X141478000Y-75190000D02*
X140976000Y-75190000D01*
X140462000Y-75692000D02*
X140462000Y-76200000D01*
X140970000Y-75184000D02*
X140462000Y-75692000D01*
X140976000Y-75190000D02*
X140970000Y-75184000D01*
X140462000Y-80264000D02*
X140462000Y-76200000D01*
X143256000Y-81026000D02*
X141224000Y-81026000D01*
X141224000Y-81026000D02*
X140462000Y-80264000D01*
X141478000Y-75190000D02*
X142562000Y-75190000D01*
X144012000Y-76640000D02*
X144012000Y-77984000D01*
X142494000Y-79502000D02*
X141732000Y-79502000D01*
X144012000Y-77984000D02*
X142494000Y-79502000D01*
X145612000Y-79826000D02*
X148336000Y-82550000D01*
X148336000Y-82550000D02*
X148844000Y-82550000D01*
X145612000Y-76640000D02*
X145612000Y-79826000D01*
D33*
X152146000Y-92202000D02*
X152146000Y-95504000D01*
D12*
X148336000Y-79248000D02*
X148844000Y-79756000D01*
X153670000Y-79756000D02*
X153924000Y-80010000D01*
X148844000Y-79756000D02*
X153670000Y-79756000D01*
X152146000Y-92202000D02*
X153416000Y-92202000D01*
X153924000Y-83312000D02*
X153924000Y-90678000D01*
X153924000Y-80010000D02*
X153924000Y-83312000D01*
X148012000Y-78162000D02*
X148012000Y-78924000D01*
X148012000Y-78924000D02*
X148336000Y-79248000D01*
X148012000Y-77724000D02*
X148012000Y-78162000D01*
X148012000Y-77724000D02*
X148012000Y-76640000D01*
X153924000Y-91694000D02*
X153924000Y-90678000D01*
X153416000Y-92202000D02*
X153924000Y-91694000D01*
X156718000Y-90932000D02*
X155194000Y-90932000D01*
X148812000Y-78454000D02*
X148812000Y-76640000D01*
X154178000Y-78994000D02*
X154686000Y-79502000D01*
X149352000Y-78994000D02*
X154178000Y-78994000D01*
X148812000Y-78454000D02*
X149352000Y-78994000D01*
X154686000Y-90424000D02*
X155194000Y-90932000D01*
X154686000Y-79502000D02*
X154686000Y-90424000D01*
X155321000Y-78867000D02*
X155702000Y-79248000D01*
X155702000Y-88392000D02*
X156210000Y-88900000D01*
X155702000Y-79248000D02*
X155702000Y-88392000D01*
X156210000Y-88900000D02*
X156972000Y-88900000D01*
X158496000Y-89662000D02*
X158496000Y-94488000D01*
X156972000Y-88900000D02*
X157734000Y-88900000D01*
X157734000Y-88900000D02*
X158496000Y-89662000D01*
X149612000Y-76640000D02*
X149612000Y-77984000D01*
X154686000Y-78232000D02*
X155321000Y-78867000D01*
X149860000Y-78232000D02*
X154686000Y-78232000D01*
X149612000Y-77984000D02*
X149860000Y-78232000D01*
D32*
X159512000Y-79248000D02*
X174498000Y-79248000D01*
D12*
X155448000Y-75190000D02*
X155454000Y-75190000D01*
X155454000Y-75190000D02*
X159512000Y-79248000D01*
X151062000Y-75190000D02*
X155448000Y-75190000D01*
D32*
X158496000Y-76708000D02*
X174498000Y-76708000D01*
D12*
X156210000Y-74390000D02*
X156210000Y-74422000D01*
X156210000Y-74422000D02*
X158496000Y-76708000D01*
X151062000Y-74390000D02*
X156210000Y-74390000D01*
D32*
X157226000Y-74168000D02*
X174498000Y-74168000D01*
D12*
X153346000Y-73590000D02*
X156648000Y-73590000D01*
X156648000Y-73590000D02*
X157226000Y-74168000D01*
X151062000Y-73590000D02*
X153346000Y-73590000D01*
D32*
X174498000Y-71628000D02*
X157988000Y-71628000D01*
D12*
X156718000Y-72898000D02*
X157988000Y-71628000D01*
X156718000Y-72898000D02*
X155956000Y-72898000D01*
X153162000Y-72898000D02*
X155956000Y-72898000D01*
X151062000Y-72790000D02*
X153054000Y-72790000D01*
X153054000Y-72790000D02*
X153162000Y-72898000D01*
D32*
X155702000Y-69596000D02*
X155702000Y-58420000D01*
X155702000Y-58420000D02*
X156972000Y-57150000D01*
X156972000Y-57150000D02*
X174498000Y-57150000D01*
D12*
X153346000Y-71190000D02*
X154108000Y-71190000D01*
X154108000Y-71190000D02*
X155702000Y-69596000D01*
X155702000Y-58420000D02*
X156972000Y-57150000D01*
X153346000Y-71190000D02*
X151062000Y-71190000D01*
X174498000Y-57150000D02*
X156972000Y-57150000D01*
D32*
X154686000Y-68834000D02*
X154686000Y-57150000D01*
X154686000Y-57150000D02*
X157182000Y-54654000D01*
X157182000Y-54654000D02*
X161468000Y-54654000D01*
D12*
X151062000Y-70390000D02*
X153384000Y-70390000D01*
X154686000Y-69088000D02*
X154686000Y-68834000D01*
X154686000Y-68834000D02*
X154686000Y-67564000D01*
X153384000Y-70390000D02*
X154686000Y-69088000D01*
X154686000Y-57150000D02*
X157226000Y-54610000D01*
X161424000Y-54610000D02*
X157226000Y-54610000D01*
X154686000Y-67564000D02*
X154686000Y-57150000D01*
X161468000Y-54654000D02*
X161424000Y-54610000D01*
X151062000Y-69590000D02*
X152406000Y-69590000D01*
X153162000Y-68834000D02*
X153162000Y-66548000D01*
X152406000Y-69590000D02*
X153162000Y-68834000D01*
D33*
X144526000Y-95504000D02*
X144526000Y-99314000D01*
X169088000Y-54654000D02*
X174454000Y-54654000D01*
X174454000Y-54654000D02*
X174498000Y-54610000D01*
X166878000Y-50800000D02*
X166878000Y-53340000D01*
X166878000Y-53340000D02*
X168192000Y-54654000D01*
X168192000Y-54654000D02*
X169088000Y-54654000D01*
D32*
X174454000Y-54654000D02*
X174498000Y-54610000D01*
X166878000Y-53340000D02*
X168192000Y-54654000D01*
X168192000Y-54654000D02*
X169088000Y-54654000D01*
D33*
X164338000Y-90932000D02*
X162814000Y-90932000D01*
X161798000Y-96520000D02*
X160020000Y-98298000D01*
X161798000Y-91948000D02*
X161798000Y-96520000D01*
X162814000Y-90932000D02*
X161798000Y-91948000D01*
X160020000Y-98298000D02*
X160020000Y-99314000D01*
D32*
X160274000Y-99060000D02*
X160020000Y-99314000D01*
D33*
X131064000Y-45466000D02*
X129794000Y-45466000D01*
X128778000Y-44450000D02*
X128778000Y-35560000D01*
X129794000Y-45466000D02*
X128778000Y-44450000D01*
D32*
X131064000Y-45466000D02*
X131064000Y-44704000D01*
D33*
X166116000Y-94488000D02*
X166116000Y-98298000D01*
X165100000Y-99314000D02*
X162560000Y-99314000D01*
X166116000Y-98298000D02*
X165100000Y-99314000D01*
X126238000Y-39116000D02*
X126238000Y-35560000D01*
D12*
G36*
X139649200Y-80264000D02*
X139687173Y-80454901D01*
X139711071Y-80575045D01*
X139887264Y-80838736D01*
X140649264Y-81600737D01*
X140853496Y-81737200D01*
X140912955Y-81776929D01*
X141224000Y-81838800D01*
X142192217Y-81838800D01*
X142503277Y-82150404D01*
X142990865Y-82352869D01*
X143518818Y-82353329D01*
X144006759Y-82151716D01*
X144380404Y-81778723D01*
X144530289Y-81417761D01*
X145602263Y-82489736D01*
X145602266Y-82489738D01*
X146507200Y-83394672D01*
X146507200Y-85550217D01*
X146195596Y-85861277D01*
X145993131Y-86348865D01*
X145992671Y-86876818D01*
X146151600Y-87261456D01*
X146151600Y-90423995D01*
X146151599Y-90424000D01*
X146240539Y-90871128D01*
X146493816Y-91250184D01*
X148437600Y-93193967D01*
X148437600Y-97789995D01*
X148437599Y-97790000D01*
X148526539Y-98237128D01*
X148779816Y-98616184D01*
X150303814Y-100140181D01*
X150303816Y-100140184D01*
X150682873Y-100393461D01*
X151130000Y-100482400D01*
X155971738Y-100482400D01*
X155989111Y-100574730D01*
X156133746Y-100799499D01*
X156354434Y-100950288D01*
X156616400Y-101003338D01*
X158343600Y-101003338D01*
X158588330Y-100957289D01*
X158813099Y-100812654D01*
X158963888Y-100591966D01*
X158964015Y-100591338D01*
X159436790Y-100907235D01*
X160020000Y-101023243D01*
X160603210Y-100907235D01*
X161097631Y-100576874D01*
X161290000Y-100288973D01*
X161482369Y-100576874D01*
X161976790Y-100907235D01*
X162560000Y-101023243D01*
X163143210Y-100907235D01*
X163637631Y-100576874D01*
X163700756Y-100482400D01*
X165099995Y-100482400D01*
X165100000Y-100482401D01*
X165547128Y-100393461D01*
X165926184Y-100140184D01*
X166942184Y-99124184D01*
X167195461Y-98745128D01*
X167284401Y-98298000D01*
X167284400Y-98297995D01*
X167284400Y-95667031D01*
X167522366Y-95429480D01*
X167775601Y-94819621D01*
X167776177Y-94159276D01*
X167524007Y-93548976D01*
X167057480Y-93081634D01*
X166447621Y-92828399D01*
X165787276Y-92827823D01*
X165176976Y-93079993D01*
X164709634Y-93546520D01*
X164456399Y-94156379D01*
X164455823Y-94816724D01*
X164707993Y-95427024D01*
X164947600Y-95667050D01*
X164947600Y-97814032D01*
X164616032Y-98145600D01*
X163700756Y-98145600D01*
X163637631Y-98051126D01*
X163143210Y-97720765D01*
X162560000Y-97604757D01*
X162317342Y-97653025D01*
X162624181Y-97346186D01*
X162624184Y-97346184D01*
X162877461Y-96967127D01*
X162888425Y-96912007D01*
X162966401Y-96520000D01*
X162966400Y-96519995D01*
X162966400Y-92431968D01*
X163228408Y-92169960D01*
X163396520Y-92338366D01*
X164006379Y-92591601D01*
X164666724Y-92592177D01*
X165277024Y-92340007D01*
X165744366Y-91873480D01*
X165997601Y-91263621D01*
X165998177Y-90603276D01*
X165746007Y-89992976D01*
X165279480Y-89525634D01*
X164751505Y-89306400D01*
X170688000Y-89306400D01*
X171037926Y-89236795D01*
X171334578Y-89038578D01*
X172350578Y-88022578D01*
X172405174Y-87940869D01*
X172548795Y-87725926D01*
X172618400Y-87376000D01*
X172618400Y-82928756D01*
X172822423Y-82724734D01*
X172854711Y-82896330D01*
X172999346Y-83121099D01*
X173220034Y-83271888D01*
X173482000Y-83324938D01*
X173861600Y-83324938D01*
X173861600Y-90138686D01*
X177264600Y-90138686D01*
X177264600Y-101264600D01*
X175157258Y-101264600D01*
X175157258Y-98169600D01*
X168250743Y-98169600D01*
X168250743Y-101264600D01*
X143338400Y-101264600D01*
X143338400Y-100968588D01*
X143510000Y-101003338D01*
X145542000Y-101003338D01*
X145786730Y-100957289D01*
X146011499Y-100812654D01*
X146107266Y-100672494D01*
X146164641Y-100727467D01*
X146703886Y-100950823D01*
X146964400Y-100821881D01*
X146964400Y-99415600D01*
X147167600Y-99415600D01*
X147167600Y-100821881D01*
X147428114Y-100950823D01*
X147967359Y-100727467D01*
X148439658Y-100274938D01*
X148702830Y-99676115D01*
X148574225Y-99415600D01*
X147167600Y-99415600D01*
X146964400Y-99415600D01*
X146944400Y-99415600D01*
X146944400Y-99212400D01*
X146964400Y-99212400D01*
X146964400Y-97806119D01*
X147167600Y-97806119D01*
X147167600Y-99212400D01*
X148574225Y-99212400D01*
X148702830Y-98951885D01*
X148439658Y-98353062D01*
X147967359Y-97900533D01*
X147428114Y-97677177D01*
X147167600Y-97806119D01*
X146964400Y-97806119D01*
X146703886Y-97677177D01*
X146164641Y-97900533D01*
X146106718Y-97956032D01*
X146024654Y-97828501D01*
X145803966Y-97677712D01*
X145694400Y-97655524D01*
X145694400Y-96683031D01*
X145932366Y-96445480D01*
X146185601Y-95835621D01*
X146186177Y-95175276D01*
X145934007Y-94564976D01*
X145467480Y-94097634D01*
X144882735Y-93854827D01*
X144890623Y-93854663D01*
X145436783Y-93628437D01*
X145531736Y-93351420D01*
X144526000Y-92345684D01*
X143520264Y-93351420D01*
X143615217Y-93628437D01*
X144182776Y-93849814D01*
X143586976Y-94095993D01*
X143338400Y-94344136D01*
X143338400Y-93515314D01*
X139463882Y-93515314D01*
X139836366Y-93143480D01*
X140089601Y-92533621D01*
X140090148Y-91906421D01*
X142859602Y-91906421D01*
X142873337Y-92566623D01*
X143099563Y-93112783D01*
X143376580Y-93207736D01*
X144382316Y-92202000D01*
X144669684Y-92202000D01*
X145675420Y-93207736D01*
X145952437Y-93112783D01*
X146192398Y-92497579D01*
X146178663Y-91837377D01*
X145952437Y-91291217D01*
X145675420Y-91196264D01*
X144669684Y-92202000D01*
X144382316Y-92202000D01*
X143376580Y-91196264D01*
X143099563Y-91291217D01*
X142859602Y-91906421D01*
X140090148Y-91906421D01*
X140090177Y-91873276D01*
X139838007Y-91262976D01*
X139627978Y-91052580D01*
X143520264Y-91052580D01*
X144526000Y-92058316D01*
X145531736Y-91052580D01*
X145436783Y-90775563D01*
X144821579Y-90535602D01*
X144161377Y-90549337D01*
X143615217Y-90775563D01*
X143520264Y-91052580D01*
X139627978Y-91052580D01*
X139371480Y-90795634D01*
X138761621Y-90542399D01*
X138101276Y-90541823D01*
X137763111Y-90681549D01*
X138030404Y-90414723D01*
X138232869Y-89927135D01*
X138233329Y-89399182D01*
X138031716Y-88911241D01*
X137820400Y-88699556D01*
X137820400Y-87208304D01*
X137948547Y-87495148D01*
X138380400Y-87903923D01*
X138853775Y-88099995D01*
X139090400Y-87969097D01*
X139090400Y-86715600D01*
X139070400Y-86715600D01*
X139070400Y-86512400D01*
X139090400Y-86512400D01*
X139090400Y-86492400D01*
X139293600Y-86492400D01*
X139293600Y-86512400D01*
X139313600Y-86512400D01*
X139313600Y-86715600D01*
X139293600Y-86715600D01*
X139293600Y-87969097D01*
X139530225Y-88099995D01*
X140003600Y-87903923D01*
X140435453Y-87495148D01*
X140462572Y-87434444D01*
X140654369Y-87721488D01*
X141148790Y-88051849D01*
X141732000Y-88167857D01*
X142315210Y-88051849D01*
X142809631Y-87721488D01*
X143002000Y-87433587D01*
X143194369Y-87721488D01*
X143688790Y-88051849D01*
X144272000Y-88167857D01*
X144855210Y-88051849D01*
X145349631Y-87721488D01*
X145679992Y-87227067D01*
X145796000Y-86643857D01*
X145796000Y-86584143D01*
X145679992Y-86000933D01*
X145386139Y-85561151D01*
X145605099Y-85420254D01*
X145755888Y-85199566D01*
X145808938Y-84937600D01*
X145808938Y-83210400D01*
X145762889Y-82965670D01*
X145618254Y-82740901D01*
X145397566Y-82590112D01*
X145135600Y-82537062D01*
X143408400Y-82537062D01*
X143163670Y-82583111D01*
X142938901Y-82727746D01*
X142788112Y-82948434D01*
X142787452Y-82951693D01*
X142315210Y-82636151D01*
X141732000Y-82520143D01*
X141148790Y-82636151D01*
X140654369Y-82966512D01*
X140462000Y-83254413D01*
X140269631Y-82966512D01*
X139775210Y-82636151D01*
X139192000Y-82520143D01*
X138608790Y-82636151D01*
X138114369Y-82966512D01*
X137820400Y-83406468D01*
X137820400Y-79372756D01*
X139649200Y-77543957D01*
X139649200Y-80264000D01*
X139649200Y-80264000D01*
G37*
X139649200Y-80264000D02*
X139687173Y-80454901D01*
X139711071Y-80575045D01*
X139887264Y-80838736D01*
X140649264Y-81600737D01*
X140853496Y-81737200D01*
X140912955Y-81776929D01*
X141224000Y-81838800D01*
X142192217Y-81838800D01*
X142503277Y-82150404D01*
X142990865Y-82352869D01*
X143518818Y-82353329D01*
X144006759Y-82151716D01*
X144380404Y-81778723D01*
X144530289Y-81417761D01*
X145602263Y-82489736D01*
X145602266Y-82489738D01*
X146507200Y-83394672D01*
X146507200Y-85550217D01*
X146195596Y-85861277D01*
X145993131Y-86348865D01*
X145992671Y-86876818D01*
X146151600Y-87261456D01*
X146151600Y-90423995D01*
X146151599Y-90424000D01*
X146240539Y-90871128D01*
X146493816Y-91250184D01*
X148437600Y-93193967D01*
X148437600Y-97789995D01*
X148437599Y-97790000D01*
X148526539Y-98237128D01*
X148779816Y-98616184D01*
X150303814Y-100140181D01*
X150303816Y-100140184D01*
X150682873Y-100393461D01*
X151130000Y-100482400D01*
X155971738Y-100482400D01*
X155989111Y-100574730D01*
X156133746Y-100799499D01*
X156354434Y-100950288D01*
X156616400Y-101003338D01*
X158343600Y-101003338D01*
X158588330Y-100957289D01*
X158813099Y-100812654D01*
X158963888Y-100591966D01*
X158964015Y-100591338D01*
X159436790Y-100907235D01*
X160020000Y-101023243D01*
X160603210Y-100907235D01*
X161097631Y-100576874D01*
X161290000Y-100288973D01*
X161482369Y-100576874D01*
X161976790Y-100907235D01*
X162560000Y-101023243D01*
X163143210Y-100907235D01*
X163637631Y-100576874D01*
X163700756Y-100482400D01*
X165099995Y-100482400D01*
X165100000Y-100482401D01*
X165547128Y-100393461D01*
X165926184Y-100140184D01*
X166942184Y-99124184D01*
X167195461Y-98745128D01*
X167284401Y-98298000D01*
X167284400Y-98297995D01*
X167284400Y-95667031D01*
X167522366Y-95429480D01*
X167775601Y-94819621D01*
X167776177Y-94159276D01*
X167524007Y-93548976D01*
X167057480Y-93081634D01*
X166447621Y-92828399D01*
X165787276Y-92827823D01*
X165176976Y-93079993D01*
X164709634Y-93546520D01*
X164456399Y-94156379D01*
X164455823Y-94816724D01*
X164707993Y-95427024D01*
X164947600Y-95667050D01*
X164947600Y-97814032D01*
X164616032Y-98145600D01*
X163700756Y-98145600D01*
X163637631Y-98051126D01*
X163143210Y-97720765D01*
X162560000Y-97604757D01*
X162317342Y-97653025D01*
X162624181Y-97346186D01*
X162624184Y-97346184D01*
X162877461Y-96967127D01*
X162888425Y-96912007D01*
X162966401Y-96520000D01*
X162966400Y-96519995D01*
X162966400Y-92431968D01*
X163228408Y-92169960D01*
X163396520Y-92338366D01*
X164006379Y-92591601D01*
X164666724Y-92592177D01*
X165277024Y-92340007D01*
X165744366Y-91873480D01*
X165997601Y-91263621D01*
X165998177Y-90603276D01*
X165746007Y-89992976D01*
X165279480Y-89525634D01*
X164751505Y-89306400D01*
X170688000Y-89306400D01*
X171037926Y-89236795D01*
X171334578Y-89038578D01*
X172350578Y-88022578D01*
X172405174Y-87940869D01*
X172548795Y-87725926D01*
X172618400Y-87376000D01*
X172618400Y-82928756D01*
X172822423Y-82724734D01*
X172854711Y-82896330D01*
X172999346Y-83121099D01*
X173220034Y-83271888D01*
X173482000Y-83324938D01*
X173861600Y-83324938D01*
X173861600Y-90138686D01*
X177264600Y-90138686D01*
X177264600Y-101264600D01*
X175157258Y-101264600D01*
X175157258Y-98169600D01*
X168250743Y-98169600D01*
X168250743Y-101264600D01*
X143338400Y-101264600D01*
X143338400Y-100968588D01*
X143510000Y-101003338D01*
X145542000Y-101003338D01*
X145786730Y-100957289D01*
X146011499Y-100812654D01*
X146107266Y-100672494D01*
X146164641Y-100727467D01*
X146703886Y-100950823D01*
X146964400Y-100821881D01*
X146964400Y-99415600D01*
X147167600Y-99415600D01*
X147167600Y-100821881D01*
X147428114Y-100950823D01*
X147967359Y-100727467D01*
X148439658Y-100274938D01*
X148702830Y-99676115D01*
X148574225Y-99415600D01*
X147167600Y-99415600D01*
X146964400Y-99415600D01*
X146944400Y-99415600D01*
X146944400Y-99212400D01*
X146964400Y-99212400D01*
X146964400Y-97806119D01*
X147167600Y-97806119D01*
X147167600Y-99212400D01*
X148574225Y-99212400D01*
X148702830Y-98951885D01*
X148439658Y-98353062D01*
X147967359Y-97900533D01*
X147428114Y-97677177D01*
X147167600Y-97806119D01*
X146964400Y-97806119D01*
X146703886Y-97677177D01*
X146164641Y-97900533D01*
X146106718Y-97956032D01*
X146024654Y-97828501D01*
X145803966Y-97677712D01*
X145694400Y-97655524D01*
X145694400Y-96683031D01*
X145932366Y-96445480D01*
X146185601Y-95835621D01*
X146186177Y-95175276D01*
X145934007Y-94564976D01*
X145467480Y-94097634D01*
X144882735Y-93854827D01*
X144890623Y-93854663D01*
X145436783Y-93628437D01*
X145531736Y-93351420D01*
X144526000Y-92345684D01*
X143520264Y-93351420D01*
X143615217Y-93628437D01*
X144182776Y-93849814D01*
X143586976Y-94095993D01*
X143338400Y-94344136D01*
X143338400Y-93515314D01*
X139463882Y-93515314D01*
X139836366Y-93143480D01*
X140089601Y-92533621D01*
X140090148Y-91906421D01*
X142859602Y-91906421D01*
X142873337Y-92566623D01*
X143099563Y-93112783D01*
X143376580Y-93207736D01*
X144382316Y-92202000D01*
X144669684Y-92202000D01*
X145675420Y-93207736D01*
X145952437Y-93112783D01*
X146192398Y-92497579D01*
X146178663Y-91837377D01*
X145952437Y-91291217D01*
X145675420Y-91196264D01*
X144669684Y-92202000D01*
X144382316Y-92202000D01*
X143376580Y-91196264D01*
X143099563Y-91291217D01*
X142859602Y-91906421D01*
X140090148Y-91906421D01*
X140090177Y-91873276D01*
X139838007Y-91262976D01*
X139627978Y-91052580D01*
X143520264Y-91052580D01*
X144526000Y-92058316D01*
X145531736Y-91052580D01*
X145436783Y-90775563D01*
X144821579Y-90535602D01*
X144161377Y-90549337D01*
X143615217Y-90775563D01*
X143520264Y-91052580D01*
X139627978Y-91052580D01*
X139371480Y-90795634D01*
X138761621Y-90542399D01*
X138101276Y-90541823D01*
X137763111Y-90681549D01*
X138030404Y-90414723D01*
X138232869Y-89927135D01*
X138233329Y-89399182D01*
X138031716Y-88911241D01*
X137820400Y-88699556D01*
X137820400Y-87208304D01*
X137948547Y-87495148D01*
X138380400Y-87903923D01*
X138853775Y-88099995D01*
X139090400Y-87969097D01*
X139090400Y-86715600D01*
X139070400Y-86715600D01*
X139070400Y-86512400D01*
X139090400Y-86512400D01*
X139090400Y-86492400D01*
X139293600Y-86492400D01*
X139293600Y-86512400D01*
X139313600Y-86512400D01*
X139313600Y-86715600D01*
X139293600Y-86715600D01*
X139293600Y-87969097D01*
X139530225Y-88099995D01*
X140003600Y-87903923D01*
X140435453Y-87495148D01*
X140462572Y-87434444D01*
X140654369Y-87721488D01*
X141148790Y-88051849D01*
X141732000Y-88167857D01*
X142315210Y-88051849D01*
X142809631Y-87721488D01*
X143002000Y-87433587D01*
X143194369Y-87721488D01*
X143688790Y-88051849D01*
X144272000Y-88167857D01*
X144855210Y-88051849D01*
X145349631Y-87721488D01*
X145679992Y-87227067D01*
X145796000Y-86643857D01*
X145796000Y-86584143D01*
X145679992Y-86000933D01*
X145386139Y-85561151D01*
X145605099Y-85420254D01*
X145755888Y-85199566D01*
X145808938Y-84937600D01*
X145808938Y-83210400D01*
X145762889Y-82965670D01*
X145618254Y-82740901D01*
X145397566Y-82590112D01*
X145135600Y-82537062D01*
X143408400Y-82537062D01*
X143163670Y-82583111D01*
X142938901Y-82727746D01*
X142788112Y-82948434D01*
X142787452Y-82951693D01*
X142315210Y-82636151D01*
X141732000Y-82520143D01*
X141148790Y-82636151D01*
X140654369Y-82966512D01*
X140462000Y-83254413D01*
X140269631Y-82966512D01*
X139775210Y-82636151D01*
X139192000Y-82520143D01*
X138608790Y-82636151D01*
X138114369Y-82966512D01*
X137820400Y-83406468D01*
X137820400Y-79372756D01*
X139649200Y-77543957D01*
X139649200Y-80264000D01*
G36*
X133973422Y-77100579D02*
X134270075Y-77298796D01*
X134620000Y-77368400D01*
X137238444Y-77368400D01*
X136259422Y-78347422D01*
X136061205Y-78644074D01*
X135991600Y-78994000D01*
X135991600Y-88699639D01*
X135781596Y-88909277D01*
X135579131Y-89396865D01*
X135578671Y-89924818D01*
X135780284Y-90412759D01*
X136153277Y-90786404D01*
X136640865Y-90988869D01*
X137168818Y-90989329D01*
X137384623Y-90900160D01*
X137023634Y-91260520D01*
X136770399Y-91870379D01*
X136769823Y-92530724D01*
X137021993Y-93141024D01*
X137488520Y-93608366D01*
X138098379Y-93861601D01*
X138758724Y-93862177D01*
X139317600Y-93631255D01*
X139317600Y-98393261D01*
X138761621Y-98162399D01*
X138101276Y-98161823D01*
X137490976Y-98413993D01*
X137023634Y-98880520D01*
X136770399Y-99490379D01*
X136769823Y-100150724D01*
X137021993Y-100761024D01*
X137488520Y-101228366D01*
X137575781Y-101264600D01*
X122735400Y-101264600D01*
X122735400Y-98183257D01*
X126200159Y-98183257D01*
X126355309Y-98558749D01*
X126737240Y-98941347D01*
X127236512Y-99148663D01*
X127777116Y-99149135D01*
X128276749Y-98942691D01*
X128498010Y-98721815D01*
X131799869Y-98721815D01*
X131857999Y-98967612D01*
X132364221Y-99157331D01*
X132904509Y-99138885D01*
X133318001Y-98967612D01*
X133376131Y-98721815D01*
X132588000Y-97933684D01*
X131799869Y-98721815D01*
X128498010Y-98721815D01*
X128659347Y-98560760D01*
X128866663Y-98061488D01*
X128867095Y-97566221D01*
X131220669Y-97566221D01*
X131239115Y-98106509D01*
X131410388Y-98520001D01*
X131656185Y-98578131D01*
X132444316Y-97790000D01*
X132731684Y-97790000D01*
X133519815Y-98578131D01*
X133765612Y-98520001D01*
X133955331Y-98013779D01*
X133936885Y-97473491D01*
X133765612Y-97059999D01*
X133519815Y-97001869D01*
X132731684Y-97790000D01*
X132444316Y-97790000D01*
X131656185Y-97001869D01*
X131410388Y-97059999D01*
X131220669Y-97566221D01*
X128867095Y-97566221D01*
X128867135Y-97520884D01*
X128660691Y-97021251D01*
X128497910Y-96858185D01*
X131799869Y-96858185D01*
X132588000Y-97646316D01*
X133376131Y-96858185D01*
X133318001Y-96612388D01*
X132811779Y-96422669D01*
X132271491Y-96441115D01*
X131857999Y-96612388D01*
X131799869Y-96858185D01*
X128497910Y-96858185D01*
X128278760Y-96638653D01*
X127779488Y-96431337D01*
X127238884Y-96430865D01*
X126739251Y-96637309D01*
X126574400Y-96801873D01*
X126574400Y-91158223D01*
X126737240Y-91321347D01*
X127236512Y-91528663D01*
X127777116Y-91529135D01*
X128276749Y-91322691D01*
X128498010Y-91101815D01*
X131799869Y-91101815D01*
X131857999Y-91347612D01*
X132364221Y-91537331D01*
X132904509Y-91518885D01*
X133318001Y-91347612D01*
X133376131Y-91101815D01*
X132588000Y-90313684D01*
X131799869Y-91101815D01*
X128498010Y-91101815D01*
X128659347Y-90940760D01*
X128866663Y-90441488D01*
X128867095Y-89946221D01*
X131220669Y-89946221D01*
X131239115Y-90486509D01*
X131410388Y-90900001D01*
X131656185Y-90958131D01*
X132444316Y-90170000D01*
X132731684Y-90170000D01*
X133519815Y-90958131D01*
X133765612Y-90900001D01*
X133955331Y-90393779D01*
X133936885Y-89853491D01*
X133765612Y-89439999D01*
X133519815Y-89381869D01*
X132731684Y-90170000D01*
X132444316Y-90170000D01*
X131656185Y-89381869D01*
X131410388Y-89439999D01*
X131220669Y-89946221D01*
X128867095Y-89946221D01*
X128867135Y-89900884D01*
X128660691Y-89401251D01*
X128497910Y-89238185D01*
X131799869Y-89238185D01*
X132588000Y-90026316D01*
X133376131Y-89238185D01*
X133318001Y-88992388D01*
X132811779Y-88802669D01*
X132271491Y-88821115D01*
X131857999Y-88992388D01*
X131799869Y-89238185D01*
X128497910Y-89238185D01*
X128278760Y-89018653D01*
X127779488Y-88811337D01*
X127238884Y-88810865D01*
X126739251Y-89017309D01*
X126356653Y-89399240D01*
X126199900Y-89776743D01*
X122735400Y-89776743D01*
X122735400Y-86880700D01*
X131277600Y-86880700D01*
X131277600Y-87395362D01*
X131378140Y-87638087D01*
X131563914Y-87823860D01*
X131806639Y-87924400D01*
X132321300Y-87924400D01*
X132486400Y-87759300D01*
X132486400Y-86715600D01*
X132689600Y-86715600D01*
X132689600Y-87759300D01*
X132854700Y-87924400D01*
X133369361Y-87924400D01*
X133612086Y-87823860D01*
X133797860Y-87638087D01*
X133898400Y-87395362D01*
X133898400Y-86880700D01*
X133733300Y-86715600D01*
X132689600Y-86715600D01*
X132486400Y-86715600D01*
X131442700Y-86715600D01*
X131277600Y-86880700D01*
X122735400Y-86880700D01*
X122735400Y-86725257D01*
X125558400Y-86725257D01*
X125558400Y-84373511D01*
X131277373Y-84373511D01*
X131476449Y-84855312D01*
X131844749Y-85224255D01*
X132035833Y-85303600D01*
X131806639Y-85303600D01*
X131563914Y-85404140D01*
X131378140Y-85589913D01*
X131277600Y-85832638D01*
X131277600Y-86347300D01*
X131442700Y-86512400D01*
X132486400Y-86512400D01*
X132486400Y-86492400D01*
X132689600Y-86492400D01*
X132689600Y-86512400D01*
X133733300Y-86512400D01*
X133898400Y-86347300D01*
X133898400Y-85832638D01*
X133797860Y-85589913D01*
X133612086Y-85404140D01*
X133369361Y-85303600D01*
X133140419Y-85303600D01*
X133329312Y-85225551D01*
X133698255Y-84857251D01*
X133898172Y-84375798D01*
X133898627Y-83854489D01*
X133699551Y-83372688D01*
X133331251Y-83003745D01*
X132849798Y-82803828D01*
X132328489Y-82803373D01*
X131846688Y-83002449D01*
X131477745Y-83370749D01*
X131277828Y-83852202D01*
X131277373Y-84373511D01*
X125558400Y-84373511D01*
X125558400Y-75103409D01*
X125736453Y-75067992D01*
X126230874Y-74737631D01*
X126339941Y-74574400D01*
X131447244Y-74574400D01*
X133973422Y-77100579D01*
X133973422Y-77100579D01*
G37*
X133973422Y-77100579D02*
X134270075Y-77298796D01*
X134620000Y-77368400D01*
X137238444Y-77368400D01*
X136259422Y-78347422D01*
X136061205Y-78644074D01*
X135991600Y-78994000D01*
X135991600Y-88699639D01*
X135781596Y-88909277D01*
X135579131Y-89396865D01*
X135578671Y-89924818D01*
X135780284Y-90412759D01*
X136153277Y-90786404D01*
X136640865Y-90988869D01*
X137168818Y-90989329D01*
X137384623Y-90900160D01*
X137023634Y-91260520D01*
X136770399Y-91870379D01*
X136769823Y-92530724D01*
X137021993Y-93141024D01*
X137488520Y-93608366D01*
X138098379Y-93861601D01*
X138758724Y-93862177D01*
X139317600Y-93631255D01*
X139317600Y-98393261D01*
X138761621Y-98162399D01*
X138101276Y-98161823D01*
X137490976Y-98413993D01*
X137023634Y-98880520D01*
X136770399Y-99490379D01*
X136769823Y-100150724D01*
X137021993Y-100761024D01*
X137488520Y-101228366D01*
X137575781Y-101264600D01*
X122735400Y-101264600D01*
X122735400Y-98183257D01*
X126200159Y-98183257D01*
X126355309Y-98558749D01*
X126737240Y-98941347D01*
X127236512Y-99148663D01*
X127777116Y-99149135D01*
X128276749Y-98942691D01*
X128498010Y-98721815D01*
X131799869Y-98721815D01*
X131857999Y-98967612D01*
X132364221Y-99157331D01*
X132904509Y-99138885D01*
X133318001Y-98967612D01*
X133376131Y-98721815D01*
X132588000Y-97933684D01*
X131799869Y-98721815D01*
X128498010Y-98721815D01*
X128659347Y-98560760D01*
X128866663Y-98061488D01*
X128867095Y-97566221D01*
X131220669Y-97566221D01*
X131239115Y-98106509D01*
X131410388Y-98520001D01*
X131656185Y-98578131D01*
X132444316Y-97790000D01*
X132731684Y-97790000D01*
X133519815Y-98578131D01*
X133765612Y-98520001D01*
X133955331Y-98013779D01*
X133936885Y-97473491D01*
X133765612Y-97059999D01*
X133519815Y-97001869D01*
X132731684Y-97790000D01*
X132444316Y-97790000D01*
X131656185Y-97001869D01*
X131410388Y-97059999D01*
X131220669Y-97566221D01*
X128867095Y-97566221D01*
X128867135Y-97520884D01*
X128660691Y-97021251D01*
X128497910Y-96858185D01*
X131799869Y-96858185D01*
X132588000Y-97646316D01*
X133376131Y-96858185D01*
X133318001Y-96612388D01*
X132811779Y-96422669D01*
X132271491Y-96441115D01*
X131857999Y-96612388D01*
X131799869Y-96858185D01*
X128497910Y-96858185D01*
X128278760Y-96638653D01*
X127779488Y-96431337D01*
X127238884Y-96430865D01*
X126739251Y-96637309D01*
X126574400Y-96801873D01*
X126574400Y-91158223D01*
X126737240Y-91321347D01*
X127236512Y-91528663D01*
X127777116Y-91529135D01*
X128276749Y-91322691D01*
X128498010Y-91101815D01*
X131799869Y-91101815D01*
X131857999Y-91347612D01*
X132364221Y-91537331D01*
X132904509Y-91518885D01*
X133318001Y-91347612D01*
X133376131Y-91101815D01*
X132588000Y-90313684D01*
X131799869Y-91101815D01*
X128498010Y-91101815D01*
X128659347Y-90940760D01*
X128866663Y-90441488D01*
X128867095Y-89946221D01*
X131220669Y-89946221D01*
X131239115Y-90486509D01*
X131410388Y-90900001D01*
X131656185Y-90958131D01*
X132444316Y-90170000D01*
X132731684Y-90170000D01*
X133519815Y-90958131D01*
X133765612Y-90900001D01*
X133955331Y-90393779D01*
X133936885Y-89853491D01*
X133765612Y-89439999D01*
X133519815Y-89381869D01*
X132731684Y-90170000D01*
X132444316Y-90170000D01*
X131656185Y-89381869D01*
X131410388Y-89439999D01*
X131220669Y-89946221D01*
X128867095Y-89946221D01*
X128867135Y-89900884D01*
X128660691Y-89401251D01*
X128497910Y-89238185D01*
X131799869Y-89238185D01*
X132588000Y-90026316D01*
X133376131Y-89238185D01*
X133318001Y-88992388D01*
X132811779Y-88802669D01*
X132271491Y-88821115D01*
X131857999Y-88992388D01*
X131799869Y-89238185D01*
X128497910Y-89238185D01*
X128278760Y-89018653D01*
X127779488Y-88811337D01*
X127238884Y-88810865D01*
X126739251Y-89017309D01*
X126356653Y-89399240D01*
X126199900Y-89776743D01*
X122735400Y-89776743D01*
X122735400Y-86880700D01*
X131277600Y-86880700D01*
X131277600Y-87395362D01*
X131378140Y-87638087D01*
X131563914Y-87823860D01*
X131806639Y-87924400D01*
X132321300Y-87924400D01*
X132486400Y-87759300D01*
X132486400Y-86715600D01*
X132689600Y-86715600D01*
X132689600Y-87759300D01*
X132854700Y-87924400D01*
X133369361Y-87924400D01*
X133612086Y-87823860D01*
X133797860Y-87638087D01*
X133898400Y-87395362D01*
X133898400Y-86880700D01*
X133733300Y-86715600D01*
X132689600Y-86715600D01*
X132486400Y-86715600D01*
X131442700Y-86715600D01*
X131277600Y-86880700D01*
X122735400Y-86880700D01*
X122735400Y-86725257D01*
X125558400Y-86725257D01*
X125558400Y-84373511D01*
X131277373Y-84373511D01*
X131476449Y-84855312D01*
X131844749Y-85224255D01*
X132035833Y-85303600D01*
X131806639Y-85303600D01*
X131563914Y-85404140D01*
X131378140Y-85589913D01*
X131277600Y-85832638D01*
X131277600Y-86347300D01*
X131442700Y-86512400D01*
X132486400Y-86512400D01*
X132486400Y-86492400D01*
X132689600Y-86492400D01*
X132689600Y-86512400D01*
X133733300Y-86512400D01*
X133898400Y-86347300D01*
X133898400Y-85832638D01*
X133797860Y-85589913D01*
X133612086Y-85404140D01*
X133369361Y-85303600D01*
X133140419Y-85303600D01*
X133329312Y-85225551D01*
X133698255Y-84857251D01*
X133898172Y-84375798D01*
X133898627Y-83854489D01*
X133699551Y-83372688D01*
X133331251Y-83003745D01*
X132849798Y-82803828D01*
X132328489Y-82803373D01*
X131846688Y-83002449D01*
X131477745Y-83370749D01*
X131277828Y-83852202D01*
X131277373Y-84373511D01*
X125558400Y-84373511D01*
X125558400Y-75103409D01*
X125736453Y-75067992D01*
X126230874Y-74737631D01*
X126339941Y-74574400D01*
X131447244Y-74574400D01*
X133973422Y-77100579D01*
G36*
X158655970Y-79541443D02*
X158667205Y-79597926D01*
X158865422Y-79894578D01*
X159162074Y-80092795D01*
X159512000Y-80162400D01*
X173126059Y-80162400D01*
X173222444Y-80306651D01*
X173012501Y-80441746D01*
X172861712Y-80662434D01*
X172818949Y-80873600D01*
X172466000Y-80873600D01*
X172116075Y-80943204D01*
X171819422Y-81141421D01*
X171057422Y-81903422D01*
X171030764Y-81943318D01*
X171031135Y-81518884D01*
X170824691Y-81019251D01*
X170442760Y-80636653D01*
X169943488Y-80429337D01*
X169402884Y-80428865D01*
X168903251Y-80635309D01*
X168520653Y-81017240D01*
X168313337Y-81516512D01*
X168312865Y-82057116D01*
X168519309Y-82556749D01*
X168901240Y-82939347D01*
X169400512Y-83146663D01*
X169941116Y-83147135D01*
X170440749Y-82940691D01*
X170789600Y-82592448D01*
X170789600Y-86123806D01*
X170603815Y-86079869D01*
X169815684Y-86868000D01*
X169829827Y-86882143D01*
X169686143Y-87025827D01*
X169672000Y-87011684D01*
X169657858Y-87025827D01*
X169514174Y-86882143D01*
X169528316Y-86868000D01*
X168740185Y-86079869D01*
X168494388Y-86137999D01*
X168304669Y-86644221D01*
X168323115Y-87184509D01*
X168444517Y-87477600D01*
X163274735Y-87477600D01*
X163419331Y-87091779D01*
X163400885Y-86551491D01*
X163229612Y-86137999D01*
X162983815Y-86079869D01*
X162195684Y-86868000D01*
X162209827Y-86882143D01*
X162066143Y-87025827D01*
X162052000Y-87011684D01*
X162037858Y-87025827D01*
X161894174Y-86882143D01*
X161908316Y-86868000D01*
X161120185Y-86079869D01*
X160874388Y-86137999D01*
X160684669Y-86644221D01*
X160703115Y-87184509D01*
X160874388Y-87598001D01*
X161054354Y-87640562D01*
X160897422Y-87745421D01*
X160135424Y-88507420D01*
X160135421Y-88507422D01*
X159627422Y-89015422D01*
X159429205Y-89312074D01*
X159359600Y-89662000D01*
X159359600Y-93049295D01*
X159308800Y-93028202D01*
X159308800Y-89662000D01*
X159246929Y-89350955D01*
X159217158Y-89306399D01*
X159070737Y-89087264D01*
X158308736Y-88325264D01*
X158045045Y-88149071D01*
X157734000Y-88087200D01*
X156546673Y-88087200D01*
X156514800Y-88055328D01*
X156514800Y-85936185D01*
X161263869Y-85936185D01*
X162052000Y-86724316D01*
X162840131Y-85936185D01*
X168883869Y-85936185D01*
X169672000Y-86724316D01*
X170460131Y-85936185D01*
X170402001Y-85690388D01*
X169895779Y-85500669D01*
X169355491Y-85519115D01*
X168941999Y-85690388D01*
X168883869Y-85936185D01*
X162840131Y-85936185D01*
X162782001Y-85690388D01*
X162275779Y-85500669D01*
X161735491Y-85519115D01*
X161321999Y-85690388D01*
X161263869Y-85936185D01*
X156514800Y-85936185D01*
X156514800Y-85905338D01*
X157622000Y-85905338D01*
X157866730Y-85859289D01*
X158091499Y-85714654D01*
X158242288Y-85493966D01*
X158245375Y-85478722D01*
X158718962Y-85478722D01*
X158771147Y-85719494D01*
X159259797Y-85901113D01*
X159780752Y-85881908D01*
X160172853Y-85719494D01*
X160225038Y-85478722D01*
X159472000Y-84725684D01*
X158718962Y-85478722D01*
X158245375Y-85478722D01*
X158295338Y-85232000D01*
X158295338Y-85188293D01*
X158334506Y-85282853D01*
X158575278Y-85335038D01*
X159328316Y-84582000D01*
X159615684Y-84582000D01*
X160368722Y-85335038D01*
X160609494Y-85282853D01*
X160791113Y-84794203D01*
X160771908Y-84273248D01*
X160609494Y-83881147D01*
X160368722Y-83828962D01*
X159615684Y-84582000D01*
X159328316Y-84582000D01*
X158575278Y-83828962D01*
X158334506Y-83881147D01*
X158295338Y-83986529D01*
X158295338Y-83932000D01*
X158249289Y-83687270D01*
X158248008Y-83685278D01*
X158718962Y-83685278D01*
X159472000Y-84438316D01*
X160225038Y-83685278D01*
X160172853Y-83444506D01*
X159684203Y-83262887D01*
X159163248Y-83282092D01*
X158771147Y-83444506D01*
X158718962Y-83685278D01*
X158248008Y-83685278D01*
X158104654Y-83462501D01*
X157883966Y-83311712D01*
X157622000Y-83258662D01*
X156514800Y-83258662D01*
X156514800Y-82057116D01*
X160692865Y-82057116D01*
X160899309Y-82556749D01*
X161281240Y-82939347D01*
X161780512Y-83146663D01*
X162321116Y-83147135D01*
X162820749Y-82940691D01*
X163203347Y-82558760D01*
X163410663Y-82059488D01*
X163411135Y-81518884D01*
X163204691Y-81019251D01*
X162822760Y-80636653D01*
X162323488Y-80429337D01*
X161782884Y-80428865D01*
X161283251Y-80635309D01*
X160900653Y-81017240D01*
X160693337Y-81516512D01*
X160692865Y-82057116D01*
X156514800Y-82057116D01*
X156514800Y-79248000D01*
X156452929Y-78936955D01*
X156426950Y-78898074D01*
X156276736Y-78673263D01*
X155895739Y-78292267D01*
X155895737Y-78292264D01*
X155260736Y-77657264D01*
X154997045Y-77481071D01*
X154686000Y-77419200D01*
X150488538Y-77419200D01*
X150488538Y-76066538D01*
X151862000Y-76066538D01*
X152106730Y-76020489D01*
X152134219Y-76002800D01*
X155117328Y-76002800D01*
X158655970Y-79541443D01*
X158655970Y-79541443D01*
G37*
X158655970Y-79541443D02*
X158667205Y-79597926D01*
X158865422Y-79894578D01*
X159162074Y-80092795D01*
X159512000Y-80162400D01*
X173126059Y-80162400D01*
X173222444Y-80306651D01*
X173012501Y-80441746D01*
X172861712Y-80662434D01*
X172818949Y-80873600D01*
X172466000Y-80873600D01*
X172116075Y-80943204D01*
X171819422Y-81141421D01*
X171057422Y-81903422D01*
X171030764Y-81943318D01*
X171031135Y-81518884D01*
X170824691Y-81019251D01*
X170442760Y-80636653D01*
X169943488Y-80429337D01*
X169402884Y-80428865D01*
X168903251Y-80635309D01*
X168520653Y-81017240D01*
X168313337Y-81516512D01*
X168312865Y-82057116D01*
X168519309Y-82556749D01*
X168901240Y-82939347D01*
X169400512Y-83146663D01*
X169941116Y-83147135D01*
X170440749Y-82940691D01*
X170789600Y-82592448D01*
X170789600Y-86123806D01*
X170603815Y-86079869D01*
X169815684Y-86868000D01*
X169829827Y-86882143D01*
X169686143Y-87025827D01*
X169672000Y-87011684D01*
X169657858Y-87025827D01*
X169514174Y-86882143D01*
X169528316Y-86868000D01*
X168740185Y-86079869D01*
X168494388Y-86137999D01*
X168304669Y-86644221D01*
X168323115Y-87184509D01*
X168444517Y-87477600D01*
X163274735Y-87477600D01*
X163419331Y-87091779D01*
X163400885Y-86551491D01*
X163229612Y-86137999D01*
X162983815Y-86079869D01*
X162195684Y-86868000D01*
X162209827Y-86882143D01*
X162066143Y-87025827D01*
X162052000Y-87011684D01*
X162037858Y-87025827D01*
X161894174Y-86882143D01*
X161908316Y-86868000D01*
X161120185Y-86079869D01*
X160874388Y-86137999D01*
X160684669Y-86644221D01*
X160703115Y-87184509D01*
X160874388Y-87598001D01*
X161054354Y-87640562D01*
X160897422Y-87745421D01*
X160135424Y-88507420D01*
X160135421Y-88507422D01*
X159627422Y-89015422D01*
X159429205Y-89312074D01*
X159359600Y-89662000D01*
X159359600Y-93049295D01*
X159308800Y-93028202D01*
X159308800Y-89662000D01*
X159246929Y-89350955D01*
X159217158Y-89306399D01*
X159070737Y-89087264D01*
X158308736Y-88325264D01*
X158045045Y-88149071D01*
X157734000Y-88087200D01*
X156546673Y-88087200D01*
X156514800Y-88055328D01*
X156514800Y-85936185D01*
X161263869Y-85936185D01*
X162052000Y-86724316D01*
X162840131Y-85936185D01*
X168883869Y-85936185D01*
X169672000Y-86724316D01*
X170460131Y-85936185D01*
X170402001Y-85690388D01*
X169895779Y-85500669D01*
X169355491Y-85519115D01*
X168941999Y-85690388D01*
X168883869Y-85936185D01*
X162840131Y-85936185D01*
X162782001Y-85690388D01*
X162275779Y-85500669D01*
X161735491Y-85519115D01*
X161321999Y-85690388D01*
X161263869Y-85936185D01*
X156514800Y-85936185D01*
X156514800Y-85905338D01*
X157622000Y-85905338D01*
X157866730Y-85859289D01*
X158091499Y-85714654D01*
X158242288Y-85493966D01*
X158245375Y-85478722D01*
X158718962Y-85478722D01*
X158771147Y-85719494D01*
X159259797Y-85901113D01*
X159780752Y-85881908D01*
X160172853Y-85719494D01*
X160225038Y-85478722D01*
X159472000Y-84725684D01*
X158718962Y-85478722D01*
X158245375Y-85478722D01*
X158295338Y-85232000D01*
X158295338Y-85188293D01*
X158334506Y-85282853D01*
X158575278Y-85335038D01*
X159328316Y-84582000D01*
X159615684Y-84582000D01*
X160368722Y-85335038D01*
X160609494Y-85282853D01*
X160791113Y-84794203D01*
X160771908Y-84273248D01*
X160609494Y-83881147D01*
X160368722Y-83828962D01*
X159615684Y-84582000D01*
X159328316Y-84582000D01*
X158575278Y-83828962D01*
X158334506Y-83881147D01*
X158295338Y-83986529D01*
X158295338Y-83932000D01*
X158249289Y-83687270D01*
X158248008Y-83685278D01*
X158718962Y-83685278D01*
X159472000Y-84438316D01*
X160225038Y-83685278D01*
X160172853Y-83444506D01*
X159684203Y-83262887D01*
X159163248Y-83282092D01*
X158771147Y-83444506D01*
X158718962Y-83685278D01*
X158248008Y-83685278D01*
X158104654Y-83462501D01*
X157883966Y-83311712D01*
X157622000Y-83258662D01*
X156514800Y-83258662D01*
X156514800Y-82057116D01*
X160692865Y-82057116D01*
X160899309Y-82556749D01*
X161281240Y-82939347D01*
X161780512Y-83146663D01*
X162321116Y-83147135D01*
X162820749Y-82940691D01*
X163203347Y-82558760D01*
X163410663Y-82059488D01*
X163411135Y-81518884D01*
X163204691Y-81019251D01*
X162822760Y-80636653D01*
X162323488Y-80429337D01*
X161782884Y-80428865D01*
X161283251Y-80635309D01*
X160900653Y-81017240D01*
X160693337Y-81516512D01*
X160692865Y-82057116D01*
X156514800Y-82057116D01*
X156514800Y-79248000D01*
X156452929Y-78936955D01*
X156426950Y-78898074D01*
X156276736Y-78673263D01*
X155895739Y-78292267D01*
X155895737Y-78292264D01*
X155260736Y-77657264D01*
X154997045Y-77481071D01*
X154686000Y-77419200D01*
X150488538Y-77419200D01*
X150488538Y-76066538D01*
X151862000Y-76066538D01*
X152106730Y-76020489D01*
X152134219Y-76002800D01*
X155117328Y-76002800D01*
X158655970Y-79541443D01*
G36*
X153111200Y-85200798D02*
X153060853Y-84968506D01*
X152572203Y-84786887D01*
X152051248Y-84806092D01*
X151659147Y-84968506D01*
X151606962Y-85209278D01*
X152360000Y-85962316D01*
X152374143Y-85948174D01*
X152517827Y-86091858D01*
X152503684Y-86106000D01*
X152517827Y-86120143D01*
X152374143Y-86263827D01*
X152360000Y-86249684D01*
X151606962Y-87002722D01*
X151659147Y-87243494D01*
X152147797Y-87425113D01*
X152668752Y-87405908D01*
X153060853Y-87243494D01*
X153111200Y-87011202D01*
X153111200Y-90819395D01*
X153087480Y-90795634D01*
X152477621Y-90542399D01*
X151817276Y-90541823D01*
X151206976Y-90793993D01*
X150739634Y-91260520D01*
X150486399Y-91870379D01*
X150486317Y-91964832D01*
X150475070Y-91948000D01*
X150432184Y-91883816D01*
X150432181Y-91883814D01*
X148488400Y-89940032D01*
X148488400Y-87260769D01*
X148591018Y-87013639D01*
X148727346Y-87225499D01*
X148948034Y-87376288D01*
X149210000Y-87429338D01*
X150510000Y-87429338D01*
X150754730Y-87383289D01*
X150979499Y-87238654D01*
X151130288Y-87017966D01*
X151183338Y-86756000D01*
X151183338Y-86712293D01*
X151222506Y-86806853D01*
X151463278Y-86859038D01*
X152216316Y-86106000D01*
X151463278Y-85352962D01*
X151222506Y-85405147D01*
X151183338Y-85510529D01*
X151183338Y-85456000D01*
X151137289Y-85211270D01*
X150992654Y-84986501D01*
X150926800Y-84941505D01*
X150926800Y-81788000D01*
X150864929Y-81476955D01*
X150830612Y-81425596D01*
X150688737Y-81213264D01*
X150044272Y-80568800D01*
X153111200Y-80568800D01*
X153111200Y-85200798D01*
X153111200Y-85200798D01*
G37*
X153111200Y-85200798D02*
X153060853Y-84968506D01*
X152572203Y-84786887D01*
X152051248Y-84806092D01*
X151659147Y-84968506D01*
X151606962Y-85209278D01*
X152360000Y-85962316D01*
X152374143Y-85948174D01*
X152517827Y-86091858D01*
X152503684Y-86106000D01*
X152517827Y-86120143D01*
X152374143Y-86263827D01*
X152360000Y-86249684D01*
X151606962Y-87002722D01*
X151659147Y-87243494D01*
X152147797Y-87425113D01*
X152668752Y-87405908D01*
X153060853Y-87243494D01*
X153111200Y-87011202D01*
X153111200Y-90819395D01*
X153087480Y-90795634D01*
X152477621Y-90542399D01*
X151817276Y-90541823D01*
X151206976Y-90793993D01*
X150739634Y-91260520D01*
X150486399Y-91870379D01*
X150486317Y-91964832D01*
X150475070Y-91948000D01*
X150432184Y-91883816D01*
X150432181Y-91883814D01*
X148488400Y-89940032D01*
X148488400Y-87260769D01*
X148591018Y-87013639D01*
X148727346Y-87225499D01*
X148948034Y-87376288D01*
X149210000Y-87429338D01*
X150510000Y-87429338D01*
X150754730Y-87383289D01*
X150979499Y-87238654D01*
X151130288Y-87017966D01*
X151183338Y-86756000D01*
X151183338Y-86712293D01*
X151222506Y-86806853D01*
X151463278Y-86859038D01*
X152216316Y-86106000D01*
X151463278Y-85352962D01*
X151222506Y-85405147D01*
X151183338Y-85510529D01*
X151183338Y-85456000D01*
X151137289Y-85211270D01*
X150992654Y-84986501D01*
X150926800Y-84941505D01*
X150926800Y-81788000D01*
X150864929Y-81476955D01*
X150830612Y-81425596D01*
X150688737Y-81213264D01*
X150044272Y-80568800D01*
X153111200Y-80568800D01*
X153111200Y-85200798D01*
G36*
X148113600Y-69390002D02*
X148113600Y-69435300D01*
X148278700Y-69600400D01*
X148346561Y-69600400D01*
X148411691Y-69573422D01*
X148608800Y-69613338D01*
X149015200Y-69613338D01*
X149219226Y-69574948D01*
X149408800Y-69613338D01*
X149588662Y-69613338D01*
X149588662Y-69793200D01*
X149627052Y-69997226D01*
X149588662Y-70186800D01*
X149588662Y-70593200D01*
X149627052Y-70797226D01*
X149588662Y-70986800D01*
X149588662Y-71393200D01*
X149627052Y-71597226D01*
X149588662Y-71786800D01*
X149588662Y-72193200D01*
X149627052Y-72397226D01*
X149588662Y-72586800D01*
X149588662Y-72993200D01*
X149627052Y-73197226D01*
X149588662Y-73386800D01*
X149588662Y-73793200D01*
X149627052Y-73997226D01*
X149588662Y-74186800D01*
X149588662Y-74593200D01*
X149627052Y-74797226D01*
X149588662Y-74986800D01*
X149588662Y-75166662D01*
X149408800Y-75166662D01*
X149204774Y-75205052D01*
X149015200Y-75166662D01*
X148608800Y-75166662D01*
X148404774Y-75205052D01*
X148215200Y-75166662D01*
X147808800Y-75166662D01*
X147606998Y-75204634D01*
X147546561Y-75179600D01*
X147478700Y-75179600D01*
X147313600Y-75344700D01*
X147313600Y-75394961D01*
X147210598Y-75545710D01*
X147110400Y-75389998D01*
X147110400Y-75344700D01*
X146945300Y-75179600D01*
X146877439Y-75179600D01*
X146812309Y-75206578D01*
X146615200Y-75166662D01*
X146208800Y-75166662D01*
X146004774Y-75205052D01*
X145815200Y-75166662D01*
X145624800Y-75166662D01*
X145624800Y-74472672D01*
X146186736Y-73910736D01*
X146362929Y-73647045D01*
X146424800Y-73336000D01*
X146424800Y-69600400D01*
X146513602Y-69600400D01*
X146513602Y-69435302D01*
X146678700Y-69600400D01*
X146746561Y-69600400D01*
X146811691Y-69573422D01*
X147008800Y-69613338D01*
X147415200Y-69613338D01*
X147617002Y-69575366D01*
X147677439Y-69600400D01*
X147745300Y-69600400D01*
X147910400Y-69435300D01*
X147910400Y-69385039D01*
X148013402Y-69234290D01*
X148113600Y-69390002D01*
X148113600Y-69390002D01*
G37*
X148113600Y-69390002D02*
X148113600Y-69435300D01*
X148278700Y-69600400D01*
X148346561Y-69600400D01*
X148411691Y-69573422D01*
X148608800Y-69613338D01*
X149015200Y-69613338D01*
X149219226Y-69574948D01*
X149408800Y-69613338D01*
X149588662Y-69613338D01*
X149588662Y-69793200D01*
X149627052Y-69997226D01*
X149588662Y-70186800D01*
X149588662Y-70593200D01*
X149627052Y-70797226D01*
X149588662Y-70986800D01*
X149588662Y-71393200D01*
X149627052Y-71597226D01*
X149588662Y-71786800D01*
X149588662Y-72193200D01*
X149627052Y-72397226D01*
X149588662Y-72586800D01*
X149588662Y-72993200D01*
X149627052Y-73197226D01*
X149588662Y-73386800D01*
X149588662Y-73793200D01*
X149627052Y-73997226D01*
X149588662Y-74186800D01*
X149588662Y-74593200D01*
X149627052Y-74797226D01*
X149588662Y-74986800D01*
X149588662Y-75166662D01*
X149408800Y-75166662D01*
X149204774Y-75205052D01*
X149015200Y-75166662D01*
X148608800Y-75166662D01*
X148404774Y-75205052D01*
X148215200Y-75166662D01*
X147808800Y-75166662D01*
X147606998Y-75204634D01*
X147546561Y-75179600D01*
X147478700Y-75179600D01*
X147313600Y-75344700D01*
X147313600Y-75394961D01*
X147210598Y-75545710D01*
X147110400Y-75389998D01*
X147110400Y-75344700D01*
X146945300Y-75179600D01*
X146877439Y-75179600D01*
X146812309Y-75206578D01*
X146615200Y-75166662D01*
X146208800Y-75166662D01*
X146004774Y-75205052D01*
X145815200Y-75166662D01*
X145624800Y-75166662D01*
X145624800Y-74472672D01*
X146186736Y-73910736D01*
X146362929Y-73647045D01*
X146424800Y-73336000D01*
X146424800Y-69600400D01*
X146513602Y-69600400D01*
X146513602Y-69435302D01*
X146678700Y-69600400D01*
X146746561Y-69600400D01*
X146811691Y-69573422D01*
X147008800Y-69613338D01*
X147415200Y-69613338D01*
X147617002Y-69575366D01*
X147677439Y-69600400D01*
X147745300Y-69600400D01*
X147910400Y-69435300D01*
X147910400Y-69385039D01*
X148013402Y-69234290D01*
X148113600Y-69390002D01*
G36*
X170579596Y-58175277D02*
X170377131Y-58662865D01*
X170376671Y-59190818D01*
X170578284Y-59678759D01*
X170789600Y-59890444D01*
X170789600Y-61214000D01*
X170859205Y-61563926D01*
X171032714Y-61823600D01*
X171057422Y-61860578D01*
X172073422Y-62876578D01*
X172370074Y-63074795D01*
X172720000Y-63144400D01*
X173126059Y-63144400D01*
X173235126Y-63307631D01*
X173729547Y-63637992D01*
X174312757Y-63754000D01*
X174683243Y-63754000D01*
X175266453Y-63637992D01*
X175483686Y-63492842D01*
X175615600Y-63624756D01*
X175615600Y-67943298D01*
X175404256Y-67760594D01*
X174838896Y-67573148D01*
X174599600Y-67727411D01*
X174599600Y-68986400D01*
X174619600Y-68986400D01*
X174619600Y-69189600D01*
X174599600Y-69189600D01*
X174599600Y-69209600D01*
X174396400Y-69209600D01*
X174396400Y-69189600D01*
X172990503Y-69189600D01*
X172859605Y-69426225D01*
X172873926Y-69493561D01*
X173141152Y-70025875D01*
X173524331Y-70357129D01*
X173235126Y-70550369D01*
X173126059Y-70713600D01*
X157988000Y-70713600D01*
X157638074Y-70783205D01*
X157537113Y-70850665D01*
X157537329Y-70603182D01*
X157335716Y-70115241D01*
X156962723Y-69741596D01*
X156616071Y-69597653D01*
X156616400Y-69596000D01*
X156616400Y-68749775D01*
X172859605Y-68749775D01*
X172990503Y-68986400D01*
X174396400Y-68986400D01*
X174396400Y-67727411D01*
X174157104Y-67573148D01*
X173591744Y-67760594D01*
X173141152Y-68150125D01*
X172873926Y-68682439D01*
X172859605Y-68749775D01*
X156616400Y-68749775D01*
X156616400Y-67479815D01*
X159231869Y-67479815D01*
X159289999Y-67725612D01*
X159796221Y-67915331D01*
X160336509Y-67896885D01*
X160750001Y-67725612D01*
X160808131Y-67479815D01*
X166851869Y-67479815D01*
X166909999Y-67725612D01*
X167416221Y-67915331D01*
X167956509Y-67896885D01*
X168370001Y-67725612D01*
X168428131Y-67479815D01*
X167640000Y-66691684D01*
X166851869Y-67479815D01*
X160808131Y-67479815D01*
X160020000Y-66691684D01*
X159231869Y-67479815D01*
X156616400Y-67479815D01*
X156616400Y-66324221D01*
X158652669Y-66324221D01*
X158671115Y-66864509D01*
X158842388Y-67278001D01*
X159088185Y-67336131D01*
X159876316Y-66548000D01*
X160163684Y-66548000D01*
X160951815Y-67336131D01*
X161197612Y-67278001D01*
X161387331Y-66771779D01*
X161372051Y-66324221D01*
X166272669Y-66324221D01*
X166291115Y-66864509D01*
X166462388Y-67278001D01*
X166708185Y-67336131D01*
X167496316Y-66548000D01*
X167783684Y-66548000D01*
X168571815Y-67336131D01*
X168817612Y-67278001D01*
X169007331Y-66771779D01*
X168988885Y-66231491D01*
X168817612Y-65817999D01*
X168571815Y-65759869D01*
X167783684Y-66548000D01*
X167496316Y-66548000D01*
X166708185Y-65759869D01*
X166462388Y-65817999D01*
X166272669Y-66324221D01*
X161372051Y-66324221D01*
X161368885Y-66231491D01*
X161197612Y-65817999D01*
X160951815Y-65759869D01*
X160163684Y-66548000D01*
X159876316Y-66548000D01*
X159088185Y-65759869D01*
X158842388Y-65817999D01*
X158652669Y-66324221D01*
X156616400Y-66324221D01*
X156616400Y-65616185D01*
X159231869Y-65616185D01*
X160020000Y-66404316D01*
X160808131Y-65616185D01*
X166851869Y-65616185D01*
X167640000Y-66404316D01*
X168428131Y-65616185D01*
X168370001Y-65370388D01*
X167863779Y-65180669D01*
X167323491Y-65199115D01*
X166909999Y-65370388D01*
X166851869Y-65616185D01*
X160808131Y-65616185D01*
X160750001Y-65370388D01*
X160243779Y-65180669D01*
X159703491Y-65199115D01*
X159289999Y-65370388D01*
X159231869Y-65616185D01*
X156616400Y-65616185D01*
X156616400Y-61737116D01*
X158660865Y-61737116D01*
X158867309Y-62236749D01*
X159249240Y-62619347D01*
X159748512Y-62826663D01*
X160289116Y-62827135D01*
X160788749Y-62620691D01*
X161171347Y-62238760D01*
X161378663Y-61739488D01*
X161378665Y-61737116D01*
X166280865Y-61737116D01*
X166487309Y-62236749D01*
X166869240Y-62619347D01*
X167368512Y-62826663D01*
X167909116Y-62827135D01*
X168408749Y-62620691D01*
X168791347Y-62238760D01*
X168998663Y-61739488D01*
X168999135Y-61198884D01*
X168792691Y-60699251D01*
X168410760Y-60316653D01*
X167911488Y-60109337D01*
X167370884Y-60108865D01*
X166871251Y-60315309D01*
X166488653Y-60697240D01*
X166281337Y-61196512D01*
X166280865Y-61737116D01*
X161378665Y-61737116D01*
X161379135Y-61198884D01*
X161172691Y-60699251D01*
X160790760Y-60316653D01*
X160291488Y-60109337D01*
X159750884Y-60108865D01*
X159251251Y-60315309D01*
X158868653Y-60697240D01*
X158661337Y-61196512D01*
X158660865Y-61737116D01*
X156616400Y-61737116D01*
X156616400Y-58798756D01*
X157350757Y-58064400D01*
X170690667Y-58064400D01*
X170579596Y-58175277D01*
X170579596Y-58175277D01*
G37*
X170579596Y-58175277D02*
X170377131Y-58662865D01*
X170376671Y-59190818D01*
X170578284Y-59678759D01*
X170789600Y-59890444D01*
X170789600Y-61214000D01*
X170859205Y-61563926D01*
X171032714Y-61823600D01*
X171057422Y-61860578D01*
X172073422Y-62876578D01*
X172370074Y-63074795D01*
X172720000Y-63144400D01*
X173126059Y-63144400D01*
X173235126Y-63307631D01*
X173729547Y-63637992D01*
X174312757Y-63754000D01*
X174683243Y-63754000D01*
X175266453Y-63637992D01*
X175483686Y-63492842D01*
X175615600Y-63624756D01*
X175615600Y-67943298D01*
X175404256Y-67760594D01*
X174838896Y-67573148D01*
X174599600Y-67727411D01*
X174599600Y-68986400D01*
X174619600Y-68986400D01*
X174619600Y-69189600D01*
X174599600Y-69189600D01*
X174599600Y-69209600D01*
X174396400Y-69209600D01*
X174396400Y-69189600D01*
X172990503Y-69189600D01*
X172859605Y-69426225D01*
X172873926Y-69493561D01*
X173141152Y-70025875D01*
X173524331Y-70357129D01*
X173235126Y-70550369D01*
X173126059Y-70713600D01*
X157988000Y-70713600D01*
X157638074Y-70783205D01*
X157537113Y-70850665D01*
X157537329Y-70603182D01*
X157335716Y-70115241D01*
X156962723Y-69741596D01*
X156616071Y-69597653D01*
X156616400Y-69596000D01*
X156616400Y-68749775D01*
X172859605Y-68749775D01*
X172990503Y-68986400D01*
X174396400Y-68986400D01*
X174396400Y-67727411D01*
X174157104Y-67573148D01*
X173591744Y-67760594D01*
X173141152Y-68150125D01*
X172873926Y-68682439D01*
X172859605Y-68749775D01*
X156616400Y-68749775D01*
X156616400Y-67479815D01*
X159231869Y-67479815D01*
X159289999Y-67725612D01*
X159796221Y-67915331D01*
X160336509Y-67896885D01*
X160750001Y-67725612D01*
X160808131Y-67479815D01*
X166851869Y-67479815D01*
X166909999Y-67725612D01*
X167416221Y-67915331D01*
X167956509Y-67896885D01*
X168370001Y-67725612D01*
X168428131Y-67479815D01*
X167640000Y-66691684D01*
X166851869Y-67479815D01*
X160808131Y-67479815D01*
X160020000Y-66691684D01*
X159231869Y-67479815D01*
X156616400Y-67479815D01*
X156616400Y-66324221D01*
X158652669Y-66324221D01*
X158671115Y-66864509D01*
X158842388Y-67278001D01*
X159088185Y-67336131D01*
X159876316Y-66548000D01*
X160163684Y-66548000D01*
X160951815Y-67336131D01*
X161197612Y-67278001D01*
X161387331Y-66771779D01*
X161372051Y-66324221D01*
X166272669Y-66324221D01*
X166291115Y-66864509D01*
X166462388Y-67278001D01*
X166708185Y-67336131D01*
X167496316Y-66548000D01*
X167783684Y-66548000D01*
X168571815Y-67336131D01*
X168817612Y-67278001D01*
X169007331Y-66771779D01*
X168988885Y-66231491D01*
X168817612Y-65817999D01*
X168571815Y-65759869D01*
X167783684Y-66548000D01*
X167496316Y-66548000D01*
X166708185Y-65759869D01*
X166462388Y-65817999D01*
X166272669Y-66324221D01*
X161372051Y-66324221D01*
X161368885Y-66231491D01*
X161197612Y-65817999D01*
X160951815Y-65759869D01*
X160163684Y-66548000D01*
X159876316Y-66548000D01*
X159088185Y-65759869D01*
X158842388Y-65817999D01*
X158652669Y-66324221D01*
X156616400Y-66324221D01*
X156616400Y-65616185D01*
X159231869Y-65616185D01*
X160020000Y-66404316D01*
X160808131Y-65616185D01*
X166851869Y-65616185D01*
X167640000Y-66404316D01*
X168428131Y-65616185D01*
X168370001Y-65370388D01*
X167863779Y-65180669D01*
X167323491Y-65199115D01*
X166909999Y-65370388D01*
X166851869Y-65616185D01*
X160808131Y-65616185D01*
X160750001Y-65370388D01*
X160243779Y-65180669D01*
X159703491Y-65199115D01*
X159289999Y-65370388D01*
X159231869Y-65616185D01*
X156616400Y-65616185D01*
X156616400Y-61737116D01*
X158660865Y-61737116D01*
X158867309Y-62236749D01*
X159249240Y-62619347D01*
X159748512Y-62826663D01*
X160289116Y-62827135D01*
X160788749Y-62620691D01*
X161171347Y-62238760D01*
X161378663Y-61739488D01*
X161378665Y-61737116D01*
X166280865Y-61737116D01*
X166487309Y-62236749D01*
X166869240Y-62619347D01*
X167368512Y-62826663D01*
X167909116Y-62827135D01*
X168408749Y-62620691D01*
X168791347Y-62238760D01*
X168998663Y-61739488D01*
X168999135Y-61198884D01*
X168792691Y-60699251D01*
X168410760Y-60316653D01*
X167911488Y-60109337D01*
X167370884Y-60108865D01*
X166871251Y-60315309D01*
X166488653Y-60697240D01*
X166281337Y-61196512D01*
X166280865Y-61737116D01*
X161378665Y-61737116D01*
X161379135Y-61198884D01*
X161172691Y-60699251D01*
X160790760Y-60316653D01*
X160291488Y-60109337D01*
X159750884Y-60108865D01*
X159251251Y-60315309D01*
X158868653Y-60697240D01*
X158661337Y-61196512D01*
X158660865Y-61737116D01*
X156616400Y-61737116D01*
X156616400Y-58798756D01*
X157350757Y-58064400D01*
X170690667Y-58064400D01*
X170579596Y-58175277D01*
G36*
X132436743Y-33922330D02*
X132181600Y-33870662D01*
X130454400Y-33870662D01*
X130209670Y-33916711D01*
X129984901Y-34061346D01*
X129834112Y-34282034D01*
X129833985Y-34282662D01*
X129361210Y-33966765D01*
X128778000Y-33850757D01*
X128194790Y-33966765D01*
X127700369Y-34297126D01*
X127508000Y-34585027D01*
X127315631Y-34297126D01*
X126821210Y-33966765D01*
X126238000Y-33850757D01*
X125654790Y-33966765D01*
X125160369Y-34297126D01*
X124830008Y-34791547D01*
X124714000Y-35374757D01*
X124714000Y-35745243D01*
X124830008Y-36328453D01*
X125069600Y-36687028D01*
X125069600Y-37936969D01*
X124831634Y-38174520D01*
X124578399Y-38784379D01*
X124577823Y-39444724D01*
X124829993Y-40055024D01*
X125296520Y-40522366D01*
X125906379Y-40775601D01*
X126566724Y-40776177D01*
X127177024Y-40524007D01*
X127609600Y-40092185D01*
X127609600Y-44449995D01*
X127609599Y-44450000D01*
X127698539Y-44897128D01*
X127951816Y-45276184D01*
X128967816Y-46292184D01*
X129346872Y-46545461D01*
X129794000Y-46634401D01*
X129794005Y-46634400D01*
X129884969Y-46634400D01*
X130122520Y-46872366D01*
X130732379Y-47125601D01*
X131392724Y-47126177D01*
X132003024Y-46874007D01*
X132181600Y-46695742D01*
X132181600Y-55396033D01*
X131342032Y-56235600D01*
X126749379Y-56235600D01*
X126712889Y-56041670D01*
X126568254Y-55816901D01*
X126347566Y-55666112D01*
X126085600Y-55613062D01*
X123850400Y-55613062D01*
X123605670Y-55659111D01*
X123380901Y-55803746D01*
X123230112Y-56024434D01*
X123177062Y-56286400D01*
X123177062Y-58521600D01*
X123223111Y-58766330D01*
X123367746Y-58991099D01*
X123588434Y-59141888D01*
X123850400Y-59194938D01*
X126085600Y-59194938D01*
X126330330Y-59148889D01*
X126555099Y-59004254D01*
X126705888Y-58783566D01*
X126748651Y-58572400D01*
X131825995Y-58572400D01*
X131826000Y-58572401D01*
X132273128Y-58483461D01*
X132652184Y-58230184D01*
X134176181Y-56706186D01*
X134176184Y-56706184D01*
X134429461Y-56327127D01*
X134518400Y-55880000D01*
X134518400Y-44348400D01*
X137454062Y-44348400D01*
X137277634Y-44524520D01*
X137024399Y-45134379D01*
X137023823Y-45794724D01*
X137275993Y-46405024D01*
X137742520Y-46872366D01*
X137769600Y-46883611D01*
X137769600Y-61722000D01*
X137839205Y-62071926D01*
X137995778Y-62306254D01*
X138037422Y-62368578D01*
X138799422Y-63130579D01*
X139096075Y-63328796D01*
X139446000Y-63398400D01*
X147320000Y-63398400D01*
X147669926Y-63328795D01*
X147717810Y-63296800D01*
X147745328Y-63296800D01*
X147999200Y-63550672D01*
X147999200Y-66565301D01*
X147962929Y-66382955D01*
X147861366Y-66230955D01*
X147786736Y-66119263D01*
X147386736Y-65719264D01*
X147239198Y-65620682D01*
X147376869Y-65289135D01*
X147377329Y-64761182D01*
X147175716Y-64273241D01*
X146802723Y-63899596D01*
X146315135Y-63697131D01*
X145787182Y-63696671D01*
X145299241Y-63898284D01*
X144925596Y-64271277D01*
X144904844Y-64321254D01*
X144713264Y-64449263D01*
X144254613Y-64907915D01*
X144008723Y-64661596D01*
X143521135Y-64459131D01*
X142993182Y-64458671D01*
X142505241Y-64660284D01*
X142131596Y-65033277D01*
X141929131Y-65520865D01*
X141928671Y-66048818D01*
X142130284Y-66536759D01*
X142503277Y-66910404D01*
X142990865Y-67112869D01*
X143181424Y-67113035D01*
X143135462Y-67340000D01*
X143135462Y-68713462D01*
X141762000Y-68713462D01*
X141517270Y-68759511D01*
X141489781Y-68777200D01*
X140792673Y-68777200D01*
X140020736Y-68005264D01*
X139757045Y-67829071D01*
X139756462Y-67828955D01*
X139650768Y-67807931D01*
X139541926Y-67735205D01*
X139192000Y-67665600D01*
X130045333Y-67665600D01*
X130156404Y-67554723D01*
X130358869Y-67067135D01*
X130359329Y-66539182D01*
X130200400Y-66154544D01*
X130200400Y-61976005D01*
X130200401Y-61976000D01*
X130111461Y-61528872D01*
X129858184Y-61149816D01*
X128842184Y-60133816D01*
X128463128Y-59880539D01*
X128016000Y-59791599D01*
X128015995Y-59791600D01*
X126572635Y-59791600D01*
X126466654Y-59626901D01*
X126245966Y-59476112D01*
X125984000Y-59423062D01*
X123952000Y-59423062D01*
X123707270Y-59469111D01*
X123482501Y-59613746D01*
X123331712Y-59834434D01*
X123278662Y-60096400D01*
X123278662Y-61823600D01*
X123324711Y-62068330D01*
X123469346Y-62293099D01*
X123690034Y-62443888D01*
X123690662Y-62444015D01*
X123374765Y-62916790D01*
X123258757Y-63500000D01*
X123374765Y-64083210D01*
X123705126Y-64577631D01*
X123993027Y-64770000D01*
X123705126Y-64962369D01*
X123374765Y-65456790D01*
X123308971Y-65787556D01*
X122869264Y-66227264D01*
X122735400Y-66427605D01*
X122735400Y-50415543D01*
X123177062Y-50415543D01*
X123177062Y-52425600D01*
X123223111Y-52670330D01*
X123367746Y-52895099D01*
X123588434Y-53045888D01*
X123850400Y-53098938D01*
X126085600Y-53098938D01*
X126330330Y-53052889D01*
X126555099Y-52908254D01*
X126705888Y-52687566D01*
X126748651Y-52476400D01*
X127877231Y-52476400D01*
X128258865Y-52634869D01*
X128786818Y-52635329D01*
X129274759Y-52433716D01*
X129648404Y-52060723D01*
X129850869Y-51573135D01*
X129851329Y-51045182D01*
X129649716Y-50557241D01*
X129276723Y-50183596D01*
X128789135Y-49981131D01*
X128261182Y-49980671D01*
X127876544Y-50139600D01*
X126749379Y-50139600D01*
X126712889Y-49945670D01*
X126568254Y-49720901D01*
X126347566Y-49570112D01*
X126085600Y-49517062D01*
X125558400Y-49517062D01*
X125558400Y-48251108D01*
X125906379Y-48395601D01*
X126566724Y-48396177D01*
X127177024Y-48144007D01*
X127644366Y-47677480D01*
X127897601Y-47067621D01*
X127898177Y-46407276D01*
X127646007Y-45796976D01*
X127179480Y-45329634D01*
X126569621Y-45076399D01*
X125909276Y-45075823D01*
X125558400Y-45220802D01*
X125558400Y-44580457D01*
X122735400Y-44580457D01*
X122735400Y-33735400D01*
X132436743Y-33735400D01*
X132436743Y-33922330D01*
X132436743Y-33922330D01*
G37*
X132436743Y-33922330D02*
X132181600Y-33870662D01*
X130454400Y-33870662D01*
X130209670Y-33916711D01*
X129984901Y-34061346D01*
X129834112Y-34282034D01*
X129833985Y-34282662D01*
X129361210Y-33966765D01*
X128778000Y-33850757D01*
X128194790Y-33966765D01*
X127700369Y-34297126D01*
X127508000Y-34585027D01*
X127315631Y-34297126D01*
X126821210Y-33966765D01*
X126238000Y-33850757D01*
X125654790Y-33966765D01*
X125160369Y-34297126D01*
X124830008Y-34791547D01*
X124714000Y-35374757D01*
X124714000Y-35745243D01*
X124830008Y-36328453D01*
X125069600Y-36687028D01*
X125069600Y-37936969D01*
X124831634Y-38174520D01*
X124578399Y-38784379D01*
X124577823Y-39444724D01*
X124829993Y-40055024D01*
X125296520Y-40522366D01*
X125906379Y-40775601D01*
X126566724Y-40776177D01*
X127177024Y-40524007D01*
X127609600Y-40092185D01*
X127609600Y-44449995D01*
X127609599Y-44450000D01*
X127698539Y-44897128D01*
X127951816Y-45276184D01*
X128967816Y-46292184D01*
X129346872Y-46545461D01*
X129794000Y-46634401D01*
X129794005Y-46634400D01*
X129884969Y-46634400D01*
X130122520Y-46872366D01*
X130732379Y-47125601D01*
X131392724Y-47126177D01*
X132003024Y-46874007D01*
X132181600Y-46695742D01*
X132181600Y-55396033D01*
X131342032Y-56235600D01*
X126749379Y-56235600D01*
X126712889Y-56041670D01*
X126568254Y-55816901D01*
X126347566Y-55666112D01*
X126085600Y-55613062D01*
X123850400Y-55613062D01*
X123605670Y-55659111D01*
X123380901Y-55803746D01*
X123230112Y-56024434D01*
X123177062Y-56286400D01*
X123177062Y-58521600D01*
X123223111Y-58766330D01*
X123367746Y-58991099D01*
X123588434Y-59141888D01*
X123850400Y-59194938D01*
X126085600Y-59194938D01*
X126330330Y-59148889D01*
X126555099Y-59004254D01*
X126705888Y-58783566D01*
X126748651Y-58572400D01*
X131825995Y-58572400D01*
X131826000Y-58572401D01*
X132273128Y-58483461D01*
X132652184Y-58230184D01*
X134176181Y-56706186D01*
X134176184Y-56706184D01*
X134429461Y-56327127D01*
X134518400Y-55880000D01*
X134518400Y-44348400D01*
X137454062Y-44348400D01*
X137277634Y-44524520D01*
X137024399Y-45134379D01*
X137023823Y-45794724D01*
X137275993Y-46405024D01*
X137742520Y-46872366D01*
X137769600Y-46883611D01*
X137769600Y-61722000D01*
X137839205Y-62071926D01*
X137995778Y-62306254D01*
X138037422Y-62368578D01*
X138799422Y-63130579D01*
X139096075Y-63328796D01*
X139446000Y-63398400D01*
X147320000Y-63398400D01*
X147669926Y-63328795D01*
X147717810Y-63296800D01*
X147745328Y-63296800D01*
X147999200Y-63550672D01*
X147999200Y-66565301D01*
X147962929Y-66382955D01*
X147861366Y-66230955D01*
X147786736Y-66119263D01*
X147386736Y-65719264D01*
X147239198Y-65620682D01*
X147376869Y-65289135D01*
X147377329Y-64761182D01*
X147175716Y-64273241D01*
X146802723Y-63899596D01*
X146315135Y-63697131D01*
X145787182Y-63696671D01*
X145299241Y-63898284D01*
X144925596Y-64271277D01*
X144904844Y-64321254D01*
X144713264Y-64449263D01*
X144254613Y-64907915D01*
X144008723Y-64661596D01*
X143521135Y-64459131D01*
X142993182Y-64458671D01*
X142505241Y-64660284D01*
X142131596Y-65033277D01*
X141929131Y-65520865D01*
X141928671Y-66048818D01*
X142130284Y-66536759D01*
X142503277Y-66910404D01*
X142990865Y-67112869D01*
X143181424Y-67113035D01*
X143135462Y-67340000D01*
X143135462Y-68713462D01*
X141762000Y-68713462D01*
X141517270Y-68759511D01*
X141489781Y-68777200D01*
X140792673Y-68777200D01*
X140020736Y-68005264D01*
X139757045Y-67829071D01*
X139756462Y-67828955D01*
X139650768Y-67807931D01*
X139541926Y-67735205D01*
X139192000Y-67665600D01*
X130045333Y-67665600D01*
X130156404Y-67554723D01*
X130358869Y-67067135D01*
X130359329Y-66539182D01*
X130200400Y-66154544D01*
X130200400Y-61976005D01*
X130200401Y-61976000D01*
X130111461Y-61528872D01*
X129858184Y-61149816D01*
X128842184Y-60133816D01*
X128463128Y-59880539D01*
X128016000Y-59791599D01*
X128015995Y-59791600D01*
X126572635Y-59791600D01*
X126466654Y-59626901D01*
X126245966Y-59476112D01*
X125984000Y-59423062D01*
X123952000Y-59423062D01*
X123707270Y-59469111D01*
X123482501Y-59613746D01*
X123331712Y-59834434D01*
X123278662Y-60096400D01*
X123278662Y-61823600D01*
X123324711Y-62068330D01*
X123469346Y-62293099D01*
X123690034Y-62443888D01*
X123690662Y-62444015D01*
X123374765Y-62916790D01*
X123258757Y-63500000D01*
X123374765Y-64083210D01*
X123705126Y-64577631D01*
X123993027Y-64770000D01*
X123705126Y-64962369D01*
X123374765Y-65456790D01*
X123308971Y-65787556D01*
X122869264Y-66227264D01*
X122735400Y-66427605D01*
X122735400Y-50415543D01*
X123177062Y-50415543D01*
X123177062Y-52425600D01*
X123223111Y-52670330D01*
X123367746Y-52895099D01*
X123588434Y-53045888D01*
X123850400Y-53098938D01*
X126085600Y-53098938D01*
X126330330Y-53052889D01*
X126555099Y-52908254D01*
X126705888Y-52687566D01*
X126748651Y-52476400D01*
X127877231Y-52476400D01*
X128258865Y-52634869D01*
X128786818Y-52635329D01*
X129274759Y-52433716D01*
X129648404Y-52060723D01*
X129850869Y-51573135D01*
X129851329Y-51045182D01*
X129649716Y-50557241D01*
X129276723Y-50183596D01*
X128789135Y-49981131D01*
X128261182Y-49980671D01*
X127876544Y-50139600D01*
X126749379Y-50139600D01*
X126712889Y-49945670D01*
X126568254Y-49720901D01*
X126347566Y-49570112D01*
X126085600Y-49517062D01*
X125558400Y-49517062D01*
X125558400Y-48251108D01*
X125906379Y-48395601D01*
X126566724Y-48396177D01*
X127177024Y-48144007D01*
X127644366Y-47677480D01*
X127897601Y-47067621D01*
X127898177Y-46407276D01*
X127646007Y-45796976D01*
X127179480Y-45329634D01*
X126569621Y-45076399D01*
X125909276Y-45075823D01*
X125558400Y-45220802D01*
X125558400Y-44580457D01*
X122735400Y-44580457D01*
X122735400Y-33735400D01*
X132436743Y-33735400D01*
X132436743Y-33922330D01*
G36*
X159465486Y-34109650D02*
X159441359Y-34086533D01*
X158902114Y-33863177D01*
X158641600Y-33992119D01*
X158641600Y-35398400D01*
X158661600Y-35398400D01*
X158661600Y-35601600D01*
X158641600Y-35601600D01*
X158641600Y-37007881D01*
X158902114Y-37136823D01*
X159441359Y-36913467D01*
X159465486Y-36890350D01*
X159465486Y-36914800D01*
X166162514Y-36914800D01*
X166162514Y-33735400D01*
X177264600Y-33735400D01*
X177264600Y-48922171D01*
X173861600Y-48922171D01*
X173861600Y-53073062D01*
X173482000Y-53073062D01*
X173237270Y-53119111D01*
X173012501Y-53263746D01*
X172861712Y-53484434D01*
X172861476Y-53485600D01*
X170267031Y-53485600D01*
X170029480Y-53247634D01*
X169419621Y-52994399D01*
X168759276Y-52993823D01*
X168352335Y-53161967D01*
X168046400Y-52856032D01*
X168046400Y-51979031D01*
X168284366Y-51741480D01*
X168537601Y-51131621D01*
X168538177Y-50471276D01*
X168286007Y-49860976D01*
X167819480Y-49393634D01*
X167209621Y-49140399D01*
X166549276Y-49139823D01*
X165938976Y-49391993D01*
X165471634Y-49858520D01*
X165218399Y-50468379D01*
X165217823Y-51128724D01*
X165469993Y-51739024D01*
X165709600Y-51979050D01*
X165709600Y-53339995D01*
X165709599Y-53340000D01*
X165798539Y-53787128D01*
X166051816Y-54166184D01*
X167365814Y-55480181D01*
X167365816Y-55480184D01*
X167564683Y-55613062D01*
X167744873Y-55733461D01*
X167838845Y-55752153D01*
X168146520Y-56060366D01*
X168568531Y-56235600D01*
X161986895Y-56235600D01*
X162407024Y-56062007D01*
X162874366Y-55595480D01*
X163127601Y-54985621D01*
X163128177Y-54325276D01*
X162876007Y-53714976D01*
X162409480Y-53247634D01*
X161799621Y-52994399D01*
X161139276Y-52993823D01*
X160528976Y-53245993D01*
X160061634Y-53712520D01*
X160050389Y-53739600D01*
X157182000Y-53739600D01*
X156832074Y-53809205D01*
X156566617Y-53986578D01*
X156535422Y-54007422D01*
X154039422Y-56503422D01*
X153841205Y-56800074D01*
X153771600Y-57150000D01*
X153771600Y-65364166D01*
X153427135Y-65221131D01*
X152899182Y-65220671D01*
X152411241Y-65422284D01*
X152037596Y-65795277D01*
X151835131Y-66282865D01*
X151834671Y-66810818D01*
X152036284Y-67298759D01*
X152349200Y-67612222D01*
X152349200Y-68497327D01*
X152087417Y-68759111D01*
X151862000Y-68713462D01*
X150488538Y-68713462D01*
X150488538Y-67340000D01*
X150442489Y-67095270D01*
X150424800Y-67067781D01*
X150424800Y-64338672D01*
X151206527Y-63556945D01*
X151646818Y-63557329D01*
X152134759Y-63355716D01*
X152508404Y-62982723D01*
X152710869Y-62495135D01*
X152711329Y-61967182D01*
X152509716Y-61479241D01*
X152136723Y-61105596D01*
X151649135Y-60903131D01*
X151121182Y-60902671D01*
X150633241Y-61104284D01*
X150259596Y-61477277D01*
X150057131Y-61964865D01*
X150056745Y-62407782D01*
X149562386Y-62902142D01*
X149386736Y-62639264D01*
X148656736Y-61909264D01*
X148393045Y-61733071D01*
X148082000Y-61671200D01*
X147717810Y-61671200D01*
X147669926Y-61639205D01*
X147320000Y-61569600D01*
X139824757Y-61569600D01*
X139598400Y-61343244D01*
X139598400Y-58386389D01*
X142965170Y-58386389D01*
X142965170Y-58961611D01*
X143091522Y-59596823D01*
X143451341Y-60135330D01*
X143989848Y-60495149D01*
X144625060Y-60621501D01*
X145260272Y-60495149D01*
X145798779Y-60135330D01*
X146158598Y-59596823D01*
X146284950Y-58961611D01*
X146284950Y-58386389D01*
X147847050Y-58386389D01*
X147847050Y-58961611D01*
X147973402Y-59596823D01*
X148333221Y-60135330D01*
X148871728Y-60495149D01*
X149506940Y-60621501D01*
X150142152Y-60495149D01*
X150680659Y-60135330D01*
X151040478Y-59596823D01*
X151166830Y-58961611D01*
X151166830Y-58386389D01*
X151040478Y-57751177D01*
X150680659Y-57212670D01*
X150142152Y-56852851D01*
X149506940Y-56726499D01*
X148871728Y-56852851D01*
X148333221Y-57212670D01*
X147973402Y-57751177D01*
X147847050Y-58386389D01*
X146284950Y-58386389D01*
X146158598Y-57751177D01*
X145798779Y-57212670D01*
X145260272Y-56852851D01*
X144625060Y-56726499D01*
X143989848Y-56852851D01*
X143451341Y-57212670D01*
X143091522Y-57751177D01*
X142965170Y-58386389D01*
X139598400Y-58386389D01*
X139598400Y-53198000D01*
X142186662Y-53198000D01*
X142186662Y-54498000D01*
X142232711Y-54742730D01*
X142377346Y-54967499D01*
X142598034Y-55118288D01*
X142860000Y-55171338D01*
X144160000Y-55171338D01*
X144404730Y-55125289D01*
X144629499Y-54980654D01*
X144780288Y-54759966D01*
X144833338Y-54498000D01*
X144833338Y-53198000D01*
X149552662Y-53198000D01*
X149552662Y-54498000D01*
X149598711Y-54742730D01*
X149743346Y-54967499D01*
X149964034Y-55118288D01*
X150226000Y-55171338D01*
X151526000Y-55171338D01*
X151770730Y-55125289D01*
X151995499Y-54980654D01*
X152146288Y-54759966D01*
X152199338Y-54498000D01*
X152199338Y-53198000D01*
X152153289Y-52953270D01*
X152008654Y-52728501D01*
X151787966Y-52577712D01*
X151526000Y-52524662D01*
X151482293Y-52524662D01*
X151576853Y-52485494D01*
X151629038Y-52244722D01*
X150876000Y-51491684D01*
X150122962Y-52244722D01*
X150175147Y-52485494D01*
X150280529Y-52524662D01*
X150226000Y-52524662D01*
X149981270Y-52570711D01*
X149756501Y-52715346D01*
X149605712Y-52936034D01*
X149552662Y-53198000D01*
X144833338Y-53198000D01*
X144787289Y-52953270D01*
X144642654Y-52728501D01*
X144421966Y-52577712D01*
X144160000Y-52524662D01*
X144116293Y-52524662D01*
X144210853Y-52485494D01*
X144263038Y-52244722D01*
X143510000Y-51491684D01*
X142756962Y-52244722D01*
X142809147Y-52485494D01*
X142914529Y-52524662D01*
X142860000Y-52524662D01*
X142615270Y-52570711D01*
X142390501Y-52715346D01*
X142239712Y-52936034D01*
X142186662Y-53198000D01*
X139598400Y-53198000D01*
X139598400Y-51135797D01*
X142190887Y-51135797D01*
X142210092Y-51656752D01*
X142372506Y-52048853D01*
X142613278Y-52101038D01*
X143366316Y-51348000D01*
X143653684Y-51348000D01*
X144406722Y-52101038D01*
X144647494Y-52048853D01*
X144829113Y-51560203D01*
X144813468Y-51135797D01*
X149556887Y-51135797D01*
X149576092Y-51656752D01*
X149738506Y-52048853D01*
X149979278Y-52101038D01*
X150732316Y-51348000D01*
X151019684Y-51348000D01*
X151772722Y-52101038D01*
X152013494Y-52048853D01*
X152050450Y-51949420D01*
X158252264Y-51949420D01*
X158347217Y-52226437D01*
X158962421Y-52466398D01*
X159622623Y-52452663D01*
X160168783Y-52226437D01*
X160263736Y-51949420D01*
X159258000Y-50943684D01*
X158252264Y-51949420D01*
X152050450Y-51949420D01*
X152195113Y-51560203D01*
X152175908Y-51039248D01*
X152013494Y-50647147D01*
X151772722Y-50594962D01*
X151019684Y-51348000D01*
X150732316Y-51348000D01*
X149979278Y-50594962D01*
X149738506Y-50647147D01*
X149556887Y-51135797D01*
X144813468Y-51135797D01*
X144809908Y-51039248D01*
X144647494Y-50647147D01*
X144406722Y-50594962D01*
X143653684Y-51348000D01*
X143366316Y-51348000D01*
X142613278Y-50594962D01*
X142372506Y-50647147D01*
X142190887Y-51135797D01*
X139598400Y-51135797D01*
X139598400Y-50451278D01*
X142756962Y-50451278D01*
X143510000Y-51204316D01*
X144263038Y-50451278D01*
X150122962Y-50451278D01*
X150876000Y-51204316D01*
X151575895Y-50504421D01*
X157591602Y-50504421D01*
X157605337Y-51164623D01*
X157831563Y-51710783D01*
X158108580Y-51805736D01*
X159114316Y-50800000D01*
X159401684Y-50800000D01*
X160407420Y-51805736D01*
X160684437Y-51710783D01*
X160924398Y-51095579D01*
X160910663Y-50435377D01*
X160684437Y-49889217D01*
X160407420Y-49794264D01*
X159401684Y-50800000D01*
X159114316Y-50800000D01*
X158108580Y-49794264D01*
X157831563Y-49889217D01*
X157591602Y-50504421D01*
X151575895Y-50504421D01*
X151629038Y-50451278D01*
X151576853Y-50210506D01*
X151088203Y-50028887D01*
X150567248Y-50048092D01*
X150175147Y-50210506D01*
X150122962Y-50451278D01*
X144263038Y-50451278D01*
X144210853Y-50210506D01*
X143722203Y-50028887D01*
X143201248Y-50048092D01*
X142809147Y-50210506D01*
X142756962Y-50451278D01*
X139598400Y-50451278D01*
X139598400Y-49650580D01*
X158252264Y-49650580D01*
X159258000Y-50656316D01*
X160263736Y-49650580D01*
X160168783Y-49373563D01*
X159553579Y-49133602D01*
X158893377Y-49147337D01*
X158347217Y-49373563D01*
X158252264Y-49650580D01*
X139598400Y-49650580D01*
X139598400Y-46884181D01*
X139623024Y-46874007D01*
X140090366Y-46407480D01*
X140343601Y-45797621D01*
X140344177Y-45137276D01*
X140092007Y-44526976D01*
X139913742Y-44348400D01*
X142353457Y-44348400D01*
X142190887Y-44785797D01*
X142210092Y-45306752D01*
X142372506Y-45698853D01*
X142613278Y-45751038D01*
X143366316Y-44998000D01*
X143352174Y-44983858D01*
X143495858Y-44840174D01*
X143510000Y-44854316D01*
X143524143Y-44840174D01*
X143667827Y-44983858D01*
X143653684Y-44998000D01*
X144406722Y-45751038D01*
X144647494Y-45698853D01*
X144829113Y-45210203D01*
X144809908Y-44689248D01*
X144668724Y-44348400D01*
X144804032Y-44348400D01*
X145135600Y-44679968D01*
X145135600Y-45719995D01*
X145135599Y-45720000D01*
X145224539Y-46167128D01*
X145333099Y-46329600D01*
X144571085Y-46329600D01*
X144421966Y-46227712D01*
X144160000Y-46174662D01*
X144116293Y-46174662D01*
X144210853Y-46135494D01*
X144263038Y-45894722D01*
X143510000Y-45141684D01*
X142756962Y-45894722D01*
X142809147Y-46135494D01*
X142914529Y-46174662D01*
X142860000Y-46174662D01*
X142615270Y-46220711D01*
X142390501Y-46365346D01*
X142239712Y-46586034D01*
X142186662Y-46848000D01*
X142186662Y-48148000D01*
X142232711Y-48392730D01*
X142377346Y-48617499D01*
X142598034Y-48768288D01*
X142860000Y-48821338D01*
X144160000Y-48821338D01*
X144404730Y-48775289D01*
X144573948Y-48666400D01*
X148081995Y-48666400D01*
X148082000Y-48666401D01*
X148082005Y-48666400D01*
X149814915Y-48666400D01*
X149964034Y-48768288D01*
X150226000Y-48821338D01*
X151526000Y-48821338D01*
X151770730Y-48775289D01*
X151939948Y-48666400D01*
X156971995Y-48666400D01*
X156972000Y-48666401D01*
X157419128Y-48577461D01*
X157798184Y-48324184D01*
X157953968Y-48168400D01*
X160200969Y-48168400D01*
X160438520Y-48406366D01*
X161048379Y-48659601D01*
X161708724Y-48660177D01*
X162319024Y-48408007D01*
X162786366Y-47941480D01*
X163039601Y-47331621D01*
X163039603Y-47328724D01*
X167339823Y-47328724D01*
X167591993Y-47939024D01*
X168058520Y-48406366D01*
X168668379Y-48659601D01*
X169328724Y-48660177D01*
X169939024Y-48408007D01*
X170406366Y-47941480D01*
X170659601Y-47331621D01*
X170660177Y-46671276D01*
X170408007Y-46060976D01*
X169941480Y-45593634D01*
X169331621Y-45340399D01*
X168671276Y-45339823D01*
X168060976Y-45591993D01*
X167593634Y-46058520D01*
X167340399Y-46668379D01*
X167339823Y-47328724D01*
X163039603Y-47328724D01*
X163040177Y-46671276D01*
X162788007Y-46060976D01*
X162321480Y-45593634D01*
X161711621Y-45340399D01*
X161051276Y-45339823D01*
X160440976Y-45591993D01*
X160200950Y-45831600D01*
X157470000Y-45831600D01*
X157022873Y-45920539D01*
X156643816Y-46173816D01*
X156643814Y-46173819D01*
X156488033Y-46329600D01*
X151937085Y-46329600D01*
X151787966Y-46227712D01*
X151526000Y-46174662D01*
X151482293Y-46174662D01*
X151576853Y-46135494D01*
X151629038Y-45894722D01*
X150876000Y-45141684D01*
X150122962Y-45894722D01*
X150175147Y-46135494D01*
X150280529Y-46174662D01*
X150226000Y-46174662D01*
X149981270Y-46220711D01*
X149812052Y-46329600D01*
X148565967Y-46329600D01*
X147472400Y-45236032D01*
X147472400Y-44785797D01*
X149556887Y-44785797D01*
X149576092Y-45306752D01*
X149738506Y-45698853D01*
X149979278Y-45751038D01*
X150732316Y-44998000D01*
X151019684Y-44998000D01*
X151772722Y-45751038D01*
X152013494Y-45698853D01*
X152195113Y-45210203D01*
X152175908Y-44689248D01*
X152013494Y-44297147D01*
X151772722Y-44244962D01*
X151019684Y-44998000D01*
X150732316Y-44998000D01*
X149979278Y-44244962D01*
X149738506Y-44297147D01*
X149556887Y-44785797D01*
X147472400Y-44785797D01*
X147472400Y-44196005D01*
X147472401Y-44196000D01*
X147453560Y-44101278D01*
X150122962Y-44101278D01*
X150876000Y-44854316D01*
X151629038Y-44101278D01*
X151576853Y-43860506D01*
X151088203Y-43678887D01*
X150567248Y-43698092D01*
X150175147Y-43860506D01*
X150122962Y-44101278D01*
X147453560Y-44101278D01*
X147383461Y-43748872D01*
X147130184Y-43369816D01*
X146114184Y-42353816D01*
X145735128Y-42100539D01*
X145288000Y-42011599D01*
X145287995Y-42011600D01*
X144517287Y-42011600D01*
X144405422Y-41899735D01*
X144682437Y-41804783D01*
X144922398Y-41189579D01*
X144918122Y-40984000D01*
X154463062Y-40984000D01*
X154463062Y-43016000D01*
X154509111Y-43260730D01*
X154653746Y-43485499D01*
X154874434Y-43636288D01*
X155136400Y-43689338D01*
X156863600Y-43689338D01*
X157108330Y-43643289D01*
X157333099Y-43498654D01*
X157483888Y-43277966D01*
X157493386Y-43231064D01*
X157602125Y-43356848D01*
X158134439Y-43624074D01*
X158201775Y-43638395D01*
X158438400Y-43507497D01*
X158438400Y-42101600D01*
X158418400Y-42101600D01*
X158418400Y-41898400D01*
X158438400Y-41898400D01*
X158438400Y-40492503D01*
X158641600Y-40492503D01*
X158641600Y-41898400D01*
X158661600Y-41898400D01*
X158661600Y-42101600D01*
X158641600Y-42101600D01*
X158641600Y-43507497D01*
X158878225Y-43638395D01*
X158945561Y-43624074D01*
X159477875Y-43356848D01*
X159809129Y-42973669D01*
X160002369Y-43262874D01*
X160496790Y-43593235D01*
X161080000Y-43709243D01*
X161663210Y-43593235D01*
X162157631Y-43262874D01*
X162487992Y-42768453D01*
X162604000Y-42185243D01*
X162604000Y-41814757D01*
X162487992Y-41231547D01*
X162157631Y-40737126D01*
X161663210Y-40406765D01*
X161080000Y-40290757D01*
X160496790Y-40406765D01*
X160002369Y-40737126D01*
X159809129Y-41026331D01*
X159477875Y-40643152D01*
X158945561Y-40375926D01*
X158878225Y-40361605D01*
X158641600Y-40492503D01*
X158438400Y-40492503D01*
X158201775Y-40361605D01*
X158134439Y-40375926D01*
X157602125Y-40643152D01*
X157495920Y-40766006D01*
X157490889Y-40739270D01*
X157346254Y-40514501D01*
X157125566Y-40363712D01*
X156863600Y-40310662D01*
X155136400Y-40310662D01*
X154891670Y-40356711D01*
X154666901Y-40501346D01*
X154516112Y-40722034D01*
X154463062Y-40984000D01*
X144918122Y-40984000D01*
X144908663Y-40529377D01*
X144682437Y-39983217D01*
X144405420Y-39888264D01*
X143399684Y-40894000D01*
X143413827Y-40908143D01*
X143270143Y-41051827D01*
X143256000Y-41037684D01*
X143241858Y-41051827D01*
X143098174Y-40908143D01*
X143112316Y-40894000D01*
X142106580Y-39888264D01*
X141829563Y-39983217D01*
X141589602Y-40598421D01*
X141603337Y-41258623D01*
X141829563Y-41804783D01*
X142106578Y-41899735D01*
X141994713Y-42011600D01*
X136865938Y-42011600D01*
X137042366Y-41835480D01*
X137295601Y-41225621D01*
X137296177Y-40565276D01*
X137044007Y-39954976D01*
X136833978Y-39744580D01*
X142250264Y-39744580D01*
X143256000Y-40750316D01*
X144261736Y-39744580D01*
X144166783Y-39467563D01*
X143551579Y-39227602D01*
X142891377Y-39241337D01*
X142345217Y-39467563D01*
X142250264Y-39744580D01*
X136833978Y-39744580D01*
X136577480Y-39487634D01*
X135967621Y-39234399D01*
X135307276Y-39233823D01*
X134696976Y-39485993D01*
X134229634Y-39952520D01*
X133976399Y-40562379D01*
X133975823Y-41222724D01*
X134227993Y-41833024D01*
X134406258Y-42011600D01*
X133833968Y-42011600D01*
X132486400Y-40664032D01*
X132486400Y-37164635D01*
X132651099Y-37058654D01*
X132801888Y-36837966D01*
X132854938Y-36576000D01*
X132854938Y-36404400D01*
X134226362Y-36404400D01*
X133976399Y-37006379D01*
X133975823Y-37666724D01*
X134227993Y-38277024D01*
X134694520Y-38744366D01*
X135304379Y-38997601D01*
X135964724Y-38998177D01*
X136575024Y-38746007D01*
X137042366Y-38279480D01*
X137295601Y-37669621D01*
X137295603Y-37666724D01*
X141595823Y-37666724D01*
X141847993Y-38277024D01*
X142314520Y-38744366D01*
X142924379Y-38997601D01*
X143584724Y-38998177D01*
X143588245Y-38996722D01*
X147622962Y-38996722D01*
X147675147Y-39237494D01*
X148163797Y-39419113D01*
X148684752Y-39399908D01*
X149076853Y-39237494D01*
X149129038Y-38996722D01*
X148376000Y-38243684D01*
X147622962Y-38996722D01*
X143588245Y-38996722D01*
X144195024Y-38746007D01*
X144662366Y-38279480D01*
X144825006Y-37887797D01*
X147056887Y-37887797D01*
X147076092Y-38408752D01*
X147238506Y-38800853D01*
X147479278Y-38853038D01*
X148232316Y-38100000D01*
X148519684Y-38100000D01*
X149272722Y-38853038D01*
X149513494Y-38800853D01*
X149552662Y-38695471D01*
X149552662Y-38750000D01*
X149598711Y-38994730D01*
X149743346Y-39219499D01*
X149964034Y-39370288D01*
X150226000Y-39423338D01*
X151526000Y-39423338D01*
X151770730Y-39377289D01*
X151942590Y-39266700D01*
X167339600Y-39266700D01*
X167339600Y-40081361D01*
X167440140Y-40324086D01*
X167625913Y-40509860D01*
X167715377Y-40546917D01*
X167635565Y-40626590D01*
X167389880Y-41218266D01*
X167389321Y-41858923D01*
X167633973Y-42451027D01*
X168086590Y-42904435D01*
X168678266Y-43150120D01*
X169318923Y-43150679D01*
X169911027Y-42906027D01*
X170364435Y-42453410D01*
X170610120Y-41861734D01*
X170610679Y-41221077D01*
X170366027Y-40628973D01*
X170284263Y-40547066D01*
X170374087Y-40509860D01*
X170559860Y-40324086D01*
X170660400Y-40081361D01*
X170660400Y-39266700D01*
X170495300Y-39101600D01*
X169101600Y-39101600D01*
X169101600Y-39121600D01*
X168898400Y-39121600D01*
X168898400Y-39101600D01*
X167504700Y-39101600D01*
X167339600Y-39266700D01*
X151942590Y-39266700D01*
X151995499Y-39232654D01*
X152146288Y-39011966D01*
X152199338Y-38750000D01*
X152199338Y-37918639D01*
X167339600Y-37918639D01*
X167339600Y-38733300D01*
X167504700Y-38898400D01*
X168898400Y-38898400D01*
X168898400Y-37554700D01*
X169101600Y-37554700D01*
X169101600Y-38898400D01*
X170495300Y-38898400D01*
X170660400Y-38733300D01*
X170660400Y-37918639D01*
X170559860Y-37675914D01*
X170374087Y-37490140D01*
X170131362Y-37389600D01*
X169266700Y-37389600D01*
X169101600Y-37554700D01*
X168898400Y-37554700D01*
X168733300Y-37389600D01*
X167868638Y-37389600D01*
X167625913Y-37490140D01*
X167440140Y-37675914D01*
X167339600Y-37918639D01*
X152199338Y-37918639D01*
X152199338Y-37450000D01*
X152153289Y-37205270D01*
X152008654Y-36980501D01*
X151787966Y-36829712D01*
X151526000Y-36776662D01*
X150226000Y-36776662D01*
X149981270Y-36822711D01*
X149756501Y-36967346D01*
X149605712Y-37188034D01*
X149552662Y-37450000D01*
X149552662Y-37493707D01*
X149513494Y-37399147D01*
X149272722Y-37346962D01*
X148519684Y-38100000D01*
X148232316Y-38100000D01*
X147479278Y-37346962D01*
X147238506Y-37399147D01*
X147056887Y-37887797D01*
X144825006Y-37887797D01*
X144915601Y-37669621D01*
X144916007Y-37203278D01*
X147622962Y-37203278D01*
X148376000Y-37956316D01*
X149129038Y-37203278D01*
X149076853Y-36962506D01*
X148588203Y-36780887D01*
X148067248Y-36800092D01*
X147675147Y-36962506D01*
X147622962Y-37203278D01*
X144916007Y-37203278D01*
X144916177Y-37009276D01*
X144664007Y-36398976D01*
X144197480Y-35931634D01*
X143587621Y-35678399D01*
X142927276Y-35677823D01*
X142316976Y-35929993D01*
X141849634Y-36396520D01*
X141596399Y-37006379D01*
X141595823Y-37666724D01*
X137295603Y-37666724D01*
X137296177Y-37009276D01*
X137046248Y-36404400D01*
X139343258Y-36404400D01*
X139343258Y-34484000D01*
X154310662Y-34484000D01*
X154310662Y-36516000D01*
X154356711Y-36760730D01*
X154501346Y-36985499D01*
X154722034Y-37136288D01*
X154984000Y-37189338D01*
X157016000Y-37189338D01*
X157260730Y-37143289D01*
X157485499Y-36998654D01*
X157581266Y-36858494D01*
X157638641Y-36913467D01*
X158177886Y-37136823D01*
X158438400Y-37007881D01*
X158438400Y-35601600D01*
X158418400Y-35601600D01*
X158418400Y-35398400D01*
X158438400Y-35398400D01*
X158438400Y-33992119D01*
X158177886Y-33863177D01*
X157638641Y-34086533D01*
X157580718Y-34142032D01*
X157498654Y-34014501D01*
X157277966Y-33863712D01*
X157016000Y-33810662D01*
X154984000Y-33810662D01*
X154739270Y-33856711D01*
X154514501Y-34001346D01*
X154363712Y-34222034D01*
X154310662Y-34484000D01*
X139343258Y-34484000D01*
X139343258Y-33735400D01*
X159465486Y-33735400D01*
X159465486Y-34109650D01*
X159465486Y-34109650D01*
G37*
X159465486Y-34109650D02*
X159441359Y-34086533D01*
X158902114Y-33863177D01*
X158641600Y-33992119D01*
X158641600Y-35398400D01*
X158661600Y-35398400D01*
X158661600Y-35601600D01*
X158641600Y-35601600D01*
X158641600Y-37007881D01*
X158902114Y-37136823D01*
X159441359Y-36913467D01*
X159465486Y-36890350D01*
X159465486Y-36914800D01*
X166162514Y-36914800D01*
X166162514Y-33735400D01*
X177264600Y-33735400D01*
X177264600Y-48922171D01*
X173861600Y-48922171D01*
X173861600Y-53073062D01*
X173482000Y-53073062D01*
X173237270Y-53119111D01*
X173012501Y-53263746D01*
X172861712Y-53484434D01*
X172861476Y-53485600D01*
X170267031Y-53485600D01*
X170029480Y-53247634D01*
X169419621Y-52994399D01*
X168759276Y-52993823D01*
X168352335Y-53161967D01*
X168046400Y-52856032D01*
X168046400Y-51979031D01*
X168284366Y-51741480D01*
X168537601Y-51131621D01*
X168538177Y-50471276D01*
X168286007Y-49860976D01*
X167819480Y-49393634D01*
X167209621Y-49140399D01*
X166549276Y-49139823D01*
X165938976Y-49391993D01*
X165471634Y-49858520D01*
X165218399Y-50468379D01*
X165217823Y-51128724D01*
X165469993Y-51739024D01*
X165709600Y-51979050D01*
X165709600Y-53339995D01*
X165709599Y-53340000D01*
X165798539Y-53787128D01*
X166051816Y-54166184D01*
X167365814Y-55480181D01*
X167365816Y-55480184D01*
X167564683Y-55613062D01*
X167744873Y-55733461D01*
X167838845Y-55752153D01*
X168146520Y-56060366D01*
X168568531Y-56235600D01*
X161986895Y-56235600D01*
X162407024Y-56062007D01*
X162874366Y-55595480D01*
X163127601Y-54985621D01*
X163128177Y-54325276D01*
X162876007Y-53714976D01*
X162409480Y-53247634D01*
X161799621Y-52994399D01*
X161139276Y-52993823D01*
X160528976Y-53245993D01*
X160061634Y-53712520D01*
X160050389Y-53739600D01*
X157182000Y-53739600D01*
X156832074Y-53809205D01*
X156566617Y-53986578D01*
X156535422Y-54007422D01*
X154039422Y-56503422D01*
X153841205Y-56800074D01*
X153771600Y-57150000D01*
X153771600Y-65364166D01*
X153427135Y-65221131D01*
X152899182Y-65220671D01*
X152411241Y-65422284D01*
X152037596Y-65795277D01*
X151835131Y-66282865D01*
X151834671Y-66810818D01*
X152036284Y-67298759D01*
X152349200Y-67612222D01*
X152349200Y-68497327D01*
X152087417Y-68759111D01*
X151862000Y-68713462D01*
X150488538Y-68713462D01*
X150488538Y-67340000D01*
X150442489Y-67095270D01*
X150424800Y-67067781D01*
X150424800Y-64338672D01*
X151206527Y-63556945D01*
X151646818Y-63557329D01*
X152134759Y-63355716D01*
X152508404Y-62982723D01*
X152710869Y-62495135D01*
X152711329Y-61967182D01*
X152509716Y-61479241D01*
X152136723Y-61105596D01*
X151649135Y-60903131D01*
X151121182Y-60902671D01*
X150633241Y-61104284D01*
X150259596Y-61477277D01*
X150057131Y-61964865D01*
X150056745Y-62407782D01*
X149562386Y-62902142D01*
X149386736Y-62639264D01*
X148656736Y-61909264D01*
X148393045Y-61733071D01*
X148082000Y-61671200D01*
X147717810Y-61671200D01*
X147669926Y-61639205D01*
X147320000Y-61569600D01*
X139824757Y-61569600D01*
X139598400Y-61343244D01*
X139598400Y-58386389D01*
X142965170Y-58386389D01*
X142965170Y-58961611D01*
X143091522Y-59596823D01*
X143451341Y-60135330D01*
X143989848Y-60495149D01*
X144625060Y-60621501D01*
X145260272Y-60495149D01*
X145798779Y-60135330D01*
X146158598Y-59596823D01*
X146284950Y-58961611D01*
X146284950Y-58386389D01*
X147847050Y-58386389D01*
X147847050Y-58961611D01*
X147973402Y-59596823D01*
X148333221Y-60135330D01*
X148871728Y-60495149D01*
X149506940Y-60621501D01*
X150142152Y-60495149D01*
X150680659Y-60135330D01*
X151040478Y-59596823D01*
X151166830Y-58961611D01*
X151166830Y-58386389D01*
X151040478Y-57751177D01*
X150680659Y-57212670D01*
X150142152Y-56852851D01*
X149506940Y-56726499D01*
X148871728Y-56852851D01*
X148333221Y-57212670D01*
X147973402Y-57751177D01*
X147847050Y-58386389D01*
X146284950Y-58386389D01*
X146158598Y-57751177D01*
X145798779Y-57212670D01*
X145260272Y-56852851D01*
X144625060Y-56726499D01*
X143989848Y-56852851D01*
X143451341Y-57212670D01*
X143091522Y-57751177D01*
X142965170Y-58386389D01*
X139598400Y-58386389D01*
X139598400Y-53198000D01*
X142186662Y-53198000D01*
X142186662Y-54498000D01*
X142232711Y-54742730D01*
X142377346Y-54967499D01*
X142598034Y-55118288D01*
X142860000Y-55171338D01*
X144160000Y-55171338D01*
X144404730Y-55125289D01*
X144629499Y-54980654D01*
X144780288Y-54759966D01*
X144833338Y-54498000D01*
X144833338Y-53198000D01*
X149552662Y-53198000D01*
X149552662Y-54498000D01*
X149598711Y-54742730D01*
X149743346Y-54967499D01*
X149964034Y-55118288D01*
X150226000Y-55171338D01*
X151526000Y-55171338D01*
X151770730Y-55125289D01*
X151995499Y-54980654D01*
X152146288Y-54759966D01*
X152199338Y-54498000D01*
X152199338Y-53198000D01*
X152153289Y-52953270D01*
X152008654Y-52728501D01*
X151787966Y-52577712D01*
X151526000Y-52524662D01*
X151482293Y-52524662D01*
X151576853Y-52485494D01*
X151629038Y-52244722D01*
X150876000Y-51491684D01*
X150122962Y-52244722D01*
X150175147Y-52485494D01*
X150280529Y-52524662D01*
X150226000Y-52524662D01*
X149981270Y-52570711D01*
X149756501Y-52715346D01*
X149605712Y-52936034D01*
X149552662Y-53198000D01*
X144833338Y-53198000D01*
X144787289Y-52953270D01*
X144642654Y-52728501D01*
X144421966Y-52577712D01*
X144160000Y-52524662D01*
X144116293Y-52524662D01*
X144210853Y-52485494D01*
X144263038Y-52244722D01*
X143510000Y-51491684D01*
X142756962Y-52244722D01*
X142809147Y-52485494D01*
X142914529Y-52524662D01*
X142860000Y-52524662D01*
X142615270Y-52570711D01*
X142390501Y-52715346D01*
X142239712Y-52936034D01*
X142186662Y-53198000D01*
X139598400Y-53198000D01*
X139598400Y-51135797D01*
X142190887Y-51135797D01*
X142210092Y-51656752D01*
X142372506Y-52048853D01*
X142613278Y-52101038D01*
X143366316Y-51348000D01*
X143653684Y-51348000D01*
X144406722Y-52101038D01*
X144647494Y-52048853D01*
X144829113Y-51560203D01*
X144813468Y-51135797D01*
X149556887Y-51135797D01*
X149576092Y-51656752D01*
X149738506Y-52048853D01*
X149979278Y-52101038D01*
X150732316Y-51348000D01*
X151019684Y-51348000D01*
X151772722Y-52101038D01*
X152013494Y-52048853D01*
X152050450Y-51949420D01*
X158252264Y-51949420D01*
X158347217Y-52226437D01*
X158962421Y-52466398D01*
X159622623Y-52452663D01*
X160168783Y-52226437D01*
X160263736Y-51949420D01*
X159258000Y-50943684D01*
X158252264Y-51949420D01*
X152050450Y-51949420D01*
X152195113Y-51560203D01*
X152175908Y-51039248D01*
X152013494Y-50647147D01*
X151772722Y-50594962D01*
X151019684Y-51348000D01*
X150732316Y-51348000D01*
X149979278Y-50594962D01*
X149738506Y-50647147D01*
X149556887Y-51135797D01*
X144813468Y-51135797D01*
X144809908Y-51039248D01*
X144647494Y-50647147D01*
X144406722Y-50594962D01*
X143653684Y-51348000D01*
X143366316Y-51348000D01*
X142613278Y-50594962D01*
X142372506Y-50647147D01*
X142190887Y-51135797D01*
X139598400Y-51135797D01*
X139598400Y-50451278D01*
X142756962Y-50451278D01*
X143510000Y-51204316D01*
X144263038Y-50451278D01*
X150122962Y-50451278D01*
X150876000Y-51204316D01*
X151575895Y-50504421D01*
X157591602Y-50504421D01*
X157605337Y-51164623D01*
X157831563Y-51710783D01*
X158108580Y-51805736D01*
X159114316Y-50800000D01*
X159401684Y-50800000D01*
X160407420Y-51805736D01*
X160684437Y-51710783D01*
X160924398Y-51095579D01*
X160910663Y-50435377D01*
X160684437Y-49889217D01*
X160407420Y-49794264D01*
X159401684Y-50800000D01*
X159114316Y-50800000D01*
X158108580Y-49794264D01*
X157831563Y-49889217D01*
X157591602Y-50504421D01*
X151575895Y-50504421D01*
X151629038Y-50451278D01*
X151576853Y-50210506D01*
X151088203Y-50028887D01*
X150567248Y-50048092D01*
X150175147Y-50210506D01*
X150122962Y-50451278D01*
X144263038Y-50451278D01*
X144210853Y-50210506D01*
X143722203Y-50028887D01*
X143201248Y-50048092D01*
X142809147Y-50210506D01*
X142756962Y-50451278D01*
X139598400Y-50451278D01*
X139598400Y-49650580D01*
X158252264Y-49650580D01*
X159258000Y-50656316D01*
X160263736Y-49650580D01*
X160168783Y-49373563D01*
X159553579Y-49133602D01*
X158893377Y-49147337D01*
X158347217Y-49373563D01*
X158252264Y-49650580D01*
X139598400Y-49650580D01*
X139598400Y-46884181D01*
X139623024Y-46874007D01*
X140090366Y-46407480D01*
X140343601Y-45797621D01*
X140344177Y-45137276D01*
X140092007Y-44526976D01*
X139913742Y-44348400D01*
X142353457Y-44348400D01*
X142190887Y-44785797D01*
X142210092Y-45306752D01*
X142372506Y-45698853D01*
X142613278Y-45751038D01*
X143366316Y-44998000D01*
X143352174Y-44983858D01*
X143495858Y-44840174D01*
X143510000Y-44854316D01*
X143524143Y-44840174D01*
X143667827Y-44983858D01*
X143653684Y-44998000D01*
X144406722Y-45751038D01*
X144647494Y-45698853D01*
X144829113Y-45210203D01*
X144809908Y-44689248D01*
X144668724Y-44348400D01*
X144804032Y-44348400D01*
X145135600Y-44679968D01*
X145135600Y-45719995D01*
X145135599Y-45720000D01*
X145224539Y-46167128D01*
X145333099Y-46329600D01*
X144571085Y-46329600D01*
X144421966Y-46227712D01*
X144160000Y-46174662D01*
X144116293Y-46174662D01*
X144210853Y-46135494D01*
X144263038Y-45894722D01*
X143510000Y-45141684D01*
X142756962Y-45894722D01*
X142809147Y-46135494D01*
X142914529Y-46174662D01*
X142860000Y-46174662D01*
X142615270Y-46220711D01*
X142390501Y-46365346D01*
X142239712Y-46586034D01*
X142186662Y-46848000D01*
X142186662Y-48148000D01*
X142232711Y-48392730D01*
X142377346Y-48617499D01*
X142598034Y-48768288D01*
X142860000Y-48821338D01*
X144160000Y-48821338D01*
X144404730Y-48775289D01*
X144573948Y-48666400D01*
X148081995Y-48666400D01*
X148082000Y-48666401D01*
X148082005Y-48666400D01*
X149814915Y-48666400D01*
X149964034Y-48768288D01*
X150226000Y-48821338D01*
X151526000Y-48821338D01*
X151770730Y-48775289D01*
X151939948Y-48666400D01*
X156971995Y-48666400D01*
X156972000Y-48666401D01*
X157419128Y-48577461D01*
X157798184Y-48324184D01*
X157953968Y-48168400D01*
X160200969Y-48168400D01*
X160438520Y-48406366D01*
X161048379Y-48659601D01*
X161708724Y-48660177D01*
X162319024Y-48408007D01*
X162786366Y-47941480D01*
X163039601Y-47331621D01*
X163039603Y-47328724D01*
X167339823Y-47328724D01*
X167591993Y-47939024D01*
X168058520Y-48406366D01*
X168668379Y-48659601D01*
X169328724Y-48660177D01*
X169939024Y-48408007D01*
X170406366Y-47941480D01*
X170659601Y-47331621D01*
X170660177Y-46671276D01*
X170408007Y-46060976D01*
X169941480Y-45593634D01*
X169331621Y-45340399D01*
X168671276Y-45339823D01*
X168060976Y-45591993D01*
X167593634Y-46058520D01*
X167340399Y-46668379D01*
X167339823Y-47328724D01*
X163039603Y-47328724D01*
X163040177Y-46671276D01*
X162788007Y-46060976D01*
X162321480Y-45593634D01*
X161711621Y-45340399D01*
X161051276Y-45339823D01*
X160440976Y-45591993D01*
X160200950Y-45831600D01*
X157470000Y-45831600D01*
X157022873Y-45920539D01*
X156643816Y-46173816D01*
X156643814Y-46173819D01*
X156488033Y-46329600D01*
X151937085Y-46329600D01*
X151787966Y-46227712D01*
X151526000Y-46174662D01*
X151482293Y-46174662D01*
X151576853Y-46135494D01*
X151629038Y-45894722D01*
X150876000Y-45141684D01*
X150122962Y-45894722D01*
X150175147Y-46135494D01*
X150280529Y-46174662D01*
X150226000Y-46174662D01*
X149981270Y-46220711D01*
X149812052Y-46329600D01*
X148565967Y-46329600D01*
X147472400Y-45236032D01*
X147472400Y-44785797D01*
X149556887Y-44785797D01*
X149576092Y-45306752D01*
X149738506Y-45698853D01*
X149979278Y-45751038D01*
X150732316Y-44998000D01*
X151019684Y-44998000D01*
X151772722Y-45751038D01*
X152013494Y-45698853D01*
X152195113Y-45210203D01*
X152175908Y-44689248D01*
X152013494Y-44297147D01*
X151772722Y-44244962D01*
X151019684Y-44998000D01*
X150732316Y-44998000D01*
X149979278Y-44244962D01*
X149738506Y-44297147D01*
X149556887Y-44785797D01*
X147472400Y-44785797D01*
X147472400Y-44196005D01*
X147472401Y-44196000D01*
X147453560Y-44101278D01*
X150122962Y-44101278D01*
X150876000Y-44854316D01*
X151629038Y-44101278D01*
X151576853Y-43860506D01*
X151088203Y-43678887D01*
X150567248Y-43698092D01*
X150175147Y-43860506D01*
X150122962Y-44101278D01*
X147453560Y-44101278D01*
X147383461Y-43748872D01*
X147130184Y-43369816D01*
X146114184Y-42353816D01*
X145735128Y-42100539D01*
X145288000Y-42011599D01*
X145287995Y-42011600D01*
X144517287Y-42011600D01*
X144405422Y-41899735D01*
X144682437Y-41804783D01*
X144922398Y-41189579D01*
X144918122Y-40984000D01*
X154463062Y-40984000D01*
X154463062Y-43016000D01*
X154509111Y-43260730D01*
X154653746Y-43485499D01*
X154874434Y-43636288D01*
X155136400Y-43689338D01*
X156863600Y-43689338D01*
X157108330Y-43643289D01*
X157333099Y-43498654D01*
X157483888Y-43277966D01*
X157493386Y-43231064D01*
X157602125Y-43356848D01*
X158134439Y-43624074D01*
X158201775Y-43638395D01*
X158438400Y-43507497D01*
X158438400Y-42101600D01*
X158418400Y-42101600D01*
X158418400Y-41898400D01*
X158438400Y-41898400D01*
X158438400Y-40492503D01*
X158641600Y-40492503D01*
X158641600Y-41898400D01*
X158661600Y-41898400D01*
X158661600Y-42101600D01*
X158641600Y-42101600D01*
X158641600Y-43507497D01*
X158878225Y-43638395D01*
X158945561Y-43624074D01*
X159477875Y-43356848D01*
X159809129Y-42973669D01*
X160002369Y-43262874D01*
X160496790Y-43593235D01*
X161080000Y-43709243D01*
X161663210Y-43593235D01*
X162157631Y-43262874D01*
X162487992Y-42768453D01*
X162604000Y-42185243D01*
X162604000Y-41814757D01*
X162487992Y-41231547D01*
X162157631Y-40737126D01*
X161663210Y-40406765D01*
X161080000Y-40290757D01*
X160496790Y-40406765D01*
X160002369Y-40737126D01*
X159809129Y-41026331D01*
X159477875Y-40643152D01*
X158945561Y-40375926D01*
X158878225Y-40361605D01*
X158641600Y-40492503D01*
X158438400Y-40492503D01*
X158201775Y-40361605D01*
X158134439Y-40375926D01*
X157602125Y-40643152D01*
X157495920Y-40766006D01*
X157490889Y-40739270D01*
X157346254Y-40514501D01*
X157125566Y-40363712D01*
X156863600Y-40310662D01*
X155136400Y-40310662D01*
X154891670Y-40356711D01*
X154666901Y-40501346D01*
X154516112Y-40722034D01*
X154463062Y-40984000D01*
X144918122Y-40984000D01*
X144908663Y-40529377D01*
X144682437Y-39983217D01*
X144405420Y-39888264D01*
X143399684Y-40894000D01*
X143413827Y-40908143D01*
X143270143Y-41051827D01*
X143256000Y-41037684D01*
X143241858Y-41051827D01*
X143098174Y-40908143D01*
X143112316Y-40894000D01*
X142106580Y-39888264D01*
X141829563Y-39983217D01*
X141589602Y-40598421D01*
X141603337Y-41258623D01*
X141829563Y-41804783D01*
X142106578Y-41899735D01*
X141994713Y-42011600D01*
X136865938Y-42011600D01*
X137042366Y-41835480D01*
X137295601Y-41225621D01*
X137296177Y-40565276D01*
X137044007Y-39954976D01*
X136833978Y-39744580D01*
X142250264Y-39744580D01*
X143256000Y-40750316D01*
X144261736Y-39744580D01*
X144166783Y-39467563D01*
X143551579Y-39227602D01*
X142891377Y-39241337D01*
X142345217Y-39467563D01*
X142250264Y-39744580D01*
X136833978Y-39744580D01*
X136577480Y-39487634D01*
X135967621Y-39234399D01*
X135307276Y-39233823D01*
X134696976Y-39485993D01*
X134229634Y-39952520D01*
X133976399Y-40562379D01*
X133975823Y-41222724D01*
X134227993Y-41833024D01*
X134406258Y-42011600D01*
X133833968Y-42011600D01*
X132486400Y-40664032D01*
X132486400Y-37164635D01*
X132651099Y-37058654D01*
X132801888Y-36837966D01*
X132854938Y-36576000D01*
X132854938Y-36404400D01*
X134226362Y-36404400D01*
X133976399Y-37006379D01*
X133975823Y-37666724D01*
X134227993Y-38277024D01*
X134694520Y-38744366D01*
X135304379Y-38997601D01*
X135964724Y-38998177D01*
X136575024Y-38746007D01*
X137042366Y-38279480D01*
X137295601Y-37669621D01*
X137295603Y-37666724D01*
X141595823Y-37666724D01*
X141847993Y-38277024D01*
X142314520Y-38744366D01*
X142924379Y-38997601D01*
X143584724Y-38998177D01*
X143588245Y-38996722D01*
X147622962Y-38996722D01*
X147675147Y-39237494D01*
X148163797Y-39419113D01*
X148684752Y-39399908D01*
X149076853Y-39237494D01*
X149129038Y-38996722D01*
X148376000Y-38243684D01*
X147622962Y-38996722D01*
X143588245Y-38996722D01*
X144195024Y-38746007D01*
X144662366Y-38279480D01*
X144825006Y-37887797D01*
X147056887Y-37887797D01*
X147076092Y-38408752D01*
X147238506Y-38800853D01*
X147479278Y-38853038D01*
X148232316Y-38100000D01*
X148519684Y-38100000D01*
X149272722Y-38853038D01*
X149513494Y-38800853D01*
X149552662Y-38695471D01*
X149552662Y-38750000D01*
X149598711Y-38994730D01*
X149743346Y-39219499D01*
X149964034Y-39370288D01*
X150226000Y-39423338D01*
X151526000Y-39423338D01*
X151770730Y-39377289D01*
X151942590Y-39266700D01*
X167339600Y-39266700D01*
X167339600Y-40081361D01*
X167440140Y-40324086D01*
X167625913Y-40509860D01*
X167715377Y-40546917D01*
X167635565Y-40626590D01*
X167389880Y-41218266D01*
X167389321Y-41858923D01*
X167633973Y-42451027D01*
X168086590Y-42904435D01*
X168678266Y-43150120D01*
X169318923Y-43150679D01*
X169911027Y-42906027D01*
X170364435Y-42453410D01*
X170610120Y-41861734D01*
X170610679Y-41221077D01*
X170366027Y-40628973D01*
X170284263Y-40547066D01*
X170374087Y-40509860D01*
X170559860Y-40324086D01*
X170660400Y-40081361D01*
X170660400Y-39266700D01*
X170495300Y-39101600D01*
X169101600Y-39101600D01*
X169101600Y-39121600D01*
X168898400Y-39121600D01*
X168898400Y-39101600D01*
X167504700Y-39101600D01*
X167339600Y-39266700D01*
X151942590Y-39266700D01*
X151995499Y-39232654D01*
X152146288Y-39011966D01*
X152199338Y-38750000D01*
X152199338Y-37918639D01*
X167339600Y-37918639D01*
X167339600Y-38733300D01*
X167504700Y-38898400D01*
X168898400Y-38898400D01*
X168898400Y-37554700D01*
X169101600Y-37554700D01*
X169101600Y-38898400D01*
X170495300Y-38898400D01*
X170660400Y-38733300D01*
X170660400Y-37918639D01*
X170559860Y-37675914D01*
X170374087Y-37490140D01*
X170131362Y-37389600D01*
X169266700Y-37389600D01*
X169101600Y-37554700D01*
X168898400Y-37554700D01*
X168733300Y-37389600D01*
X167868638Y-37389600D01*
X167625913Y-37490140D01*
X167440140Y-37675914D01*
X167339600Y-37918639D01*
X152199338Y-37918639D01*
X152199338Y-37450000D01*
X152153289Y-37205270D01*
X152008654Y-36980501D01*
X151787966Y-36829712D01*
X151526000Y-36776662D01*
X150226000Y-36776662D01*
X149981270Y-36822711D01*
X149756501Y-36967346D01*
X149605712Y-37188034D01*
X149552662Y-37450000D01*
X149552662Y-37493707D01*
X149513494Y-37399147D01*
X149272722Y-37346962D01*
X148519684Y-38100000D01*
X148232316Y-38100000D01*
X147479278Y-37346962D01*
X147238506Y-37399147D01*
X147056887Y-37887797D01*
X144825006Y-37887797D01*
X144915601Y-37669621D01*
X144916007Y-37203278D01*
X147622962Y-37203278D01*
X148376000Y-37956316D01*
X149129038Y-37203278D01*
X149076853Y-36962506D01*
X148588203Y-36780887D01*
X148067248Y-36800092D01*
X147675147Y-36962506D01*
X147622962Y-37203278D01*
X144916007Y-37203278D01*
X144916177Y-37009276D01*
X144664007Y-36398976D01*
X144197480Y-35931634D01*
X143587621Y-35678399D01*
X142927276Y-35677823D01*
X142316976Y-35929993D01*
X141849634Y-36396520D01*
X141596399Y-37006379D01*
X141595823Y-37666724D01*
X137295603Y-37666724D01*
X137296177Y-37009276D01*
X137046248Y-36404400D01*
X139343258Y-36404400D01*
X139343258Y-34484000D01*
X154310662Y-34484000D01*
X154310662Y-36516000D01*
X154356711Y-36760730D01*
X154501346Y-36985499D01*
X154722034Y-37136288D01*
X154984000Y-37189338D01*
X157016000Y-37189338D01*
X157260730Y-37143289D01*
X157485499Y-36998654D01*
X157581266Y-36858494D01*
X157638641Y-36913467D01*
X158177886Y-37136823D01*
X158438400Y-37007881D01*
X158438400Y-35601600D01*
X158418400Y-35601600D01*
X158418400Y-35398400D01*
X158438400Y-35398400D01*
X158438400Y-33992119D01*
X158177886Y-33863177D01*
X157638641Y-34086533D01*
X157580718Y-34142032D01*
X157498654Y-34014501D01*
X157277966Y-33863712D01*
X157016000Y-33810662D01*
X154984000Y-33810662D01*
X154739270Y-33856711D01*
X154514501Y-34001346D01*
X154363712Y-34222034D01*
X154310662Y-34484000D01*
X139343258Y-34484000D01*
X139343258Y-33735400D01*
X159465486Y-33735400D01*
X159465486Y-34109650D01*
G36*
X177264600Y-62731156D02*
X177176578Y-62599422D01*
X176160578Y-61583422D01*
X176001721Y-61477277D01*
X175958814Y-61448607D01*
X175760874Y-61152369D01*
X175471669Y-60959129D01*
X175854848Y-60627875D01*
X176122074Y-60095561D01*
X176136395Y-60028225D01*
X176005497Y-59791600D01*
X174599600Y-59791600D01*
X174599600Y-59811600D01*
X174396400Y-59811600D01*
X174396400Y-59791600D01*
X172990503Y-59791600D01*
X172859605Y-60028225D01*
X172873926Y-60095561D01*
X173141152Y-60627875D01*
X173524331Y-60959129D01*
X173235126Y-61152369D01*
X173126059Y-61315600D01*
X173098756Y-61315600D01*
X172618400Y-60835244D01*
X172618400Y-59890361D01*
X172828404Y-59680723D01*
X172919807Y-59460602D01*
X172990503Y-59588400D01*
X174396400Y-59588400D01*
X174396400Y-59568400D01*
X174599600Y-59568400D01*
X174599600Y-59588400D01*
X176005497Y-59588400D01*
X176136395Y-59351775D01*
X176122074Y-59284439D01*
X175854848Y-58752125D01*
X175471669Y-58420871D01*
X175760874Y-58227631D01*
X176091235Y-57733210D01*
X176207243Y-57150000D01*
X176091235Y-56566790D01*
X175773556Y-56091349D01*
X175983499Y-55956254D01*
X176134288Y-55735566D01*
X176187338Y-55473600D01*
X176187338Y-53746400D01*
X176141289Y-53501670D01*
X175996654Y-53276901D01*
X175863364Y-53185828D01*
X177264600Y-53185828D01*
X177264600Y-62731156D01*
X177264600Y-62731156D01*
G37*
X177264600Y-62731156D02*
X177176578Y-62599422D01*
X176160578Y-61583422D01*
X176001721Y-61477277D01*
X175958814Y-61448607D01*
X175760874Y-61152369D01*
X175471669Y-60959129D01*
X175854848Y-60627875D01*
X176122074Y-60095561D01*
X176136395Y-60028225D01*
X176005497Y-59791600D01*
X174599600Y-59791600D01*
X174599600Y-59811600D01*
X174396400Y-59811600D01*
X174396400Y-59791600D01*
X172990503Y-59791600D01*
X172859605Y-60028225D01*
X172873926Y-60095561D01*
X173141152Y-60627875D01*
X173524331Y-60959129D01*
X173235126Y-61152369D01*
X173126059Y-61315600D01*
X173098756Y-61315600D01*
X172618400Y-60835244D01*
X172618400Y-59890361D01*
X172828404Y-59680723D01*
X172919807Y-59460602D01*
X172990503Y-59588400D01*
X174396400Y-59588400D01*
X174396400Y-59568400D01*
X174599600Y-59568400D01*
X174599600Y-59588400D01*
X176005497Y-59588400D01*
X176136395Y-59351775D01*
X176122074Y-59284439D01*
X175854848Y-58752125D01*
X175471669Y-58420871D01*
X175760874Y-58227631D01*
X176091235Y-57733210D01*
X176207243Y-57150000D01*
X176091235Y-56566790D01*
X175773556Y-56091349D01*
X175983499Y-55956254D01*
X176134288Y-55735566D01*
X176187338Y-55473600D01*
X176187338Y-53746400D01*
X176141289Y-53501670D01*
X175996654Y-53276901D01*
X175863364Y-53185828D01*
X177264600Y-53185828D01*
X177264600Y-62731156D01*
M02*
