M48
;DRILL file {KiCad 4.0.2-stable} date 13/05/2016 13:42:47
;FORMAT={-:-/ absolute / inch / decimal}
FMAT,2
INCH,TZ
T1C0.028
T2C0.031
T3C0.032
T4C0.039
T5C0.040
T6C0.047
%
G90
G05
M72
T1
X5.06Y-2.02
X5.08Y-2.63
X5.26Y-2.81
X5.32Y-2.89
X5.38Y-2.95
X5.39Y-3.53
X5.58Y-3.13
X5.64Y-2.59
X5.64Y-3.19
X5.75Y-2.56
X5.8Y-3.41
X5.86Y-3.25
X5.96Y-2.45
X6.03Y-2.62
X6.15Y-2.79
X6.76Y-2.32
T2
X5.22Y-3.3116
X5.22Y-3.41
X5.65Y-1.7716
X5.65Y-1.87
X5.65Y-2.0216
X5.65Y-2.12
X5.8416Y-1.5
X5.9Y-3.39
X5.94Y-1.5
X5.94Y-1.7716
X5.94Y-1.87
X5.94Y-2.0216
X5.94Y-2.12
X5.9984Y-3.39
X6.18Y-3.33
X6.2784Y-3.33
T3
X5.02Y-3.55
X5.02Y-3.85
X5.22Y-3.55
X5.22Y-3.85
X6.3Y-2.42
X6.3Y-2.62
X6.38Y-3.22
X6.38Y-3.42
X6.6Y-2.42
X6.6Y-2.62
X6.68Y-3.22
X6.68Y-3.42
T4
X4.97Y-1.54
X4.97Y-1.84
X5.16Y-1.79
X5.34Y-1.47
X5.34Y-1.61
X5.45Y-3.63
X5.45Y-3.93
X5.46Y-1.79
X5.64Y-1.47
X5.64Y-1.61
X5.69Y-3.63
X5.69Y-3.76
X5.99Y-3.63
X5.99Y-3.76
X6.17Y-3.58
X6.24Y-3.72
X6.27Y-2.
X6.3535Y-1.8504
X6.357Y-2.1517
X6.47Y-3.58
X6.54Y-3.72
X6.57Y-2.
X6.6535Y-1.5354
X6.6535Y-1.6354
X6.6535Y-1.8504
X6.657Y-2.1517
T5
X4.92Y-2.02
X4.92Y-2.26
X4.92Y-2.4
X4.92Y-2.5
X4.92Y-2.6
X4.92Y-2.7
X4.92Y-2.8
X4.92Y-2.9
X4.97Y-1.4
X5.07Y-1.4
X5.17Y-1.4
X5.48Y-3.31
X5.48Y-3.41
X5.58Y-3.31
X5.58Y-3.41
X5.68Y-3.31
X5.68Y-3.41
X5.69Y-3.91
X5.79Y-3.91
X6.1417Y-1.3976
X6.1417Y-1.6535
X6.2Y-3.91
X6.2417Y-1.3976
X6.2417Y-1.6535
X6.3Y-3.91
X6.3417Y-1.6535
X6.4Y-3.91
X6.87Y-2.15
X6.87Y-2.25
X6.87Y-2.35
X6.87Y-2.45
X6.87Y-2.72
X6.87Y-2.82
X6.87Y-2.92
X6.87Y-3.02
X6.87Y-3.12
X6.87Y-3.22
T6
X5.6939Y-2.31
X5.8861Y-2.31
T0
M30
